SplineFontDB: 3.0
FontName: Latte-BoldItalic
FullName: Latte Bold Italic
FamilyName: Latte
Weight: Bold
Copyright: Copyright (c) 2016 by Guillaume Litaudon (www.guillaumelitaudon.com) with Reserved Font Name "Latte".\nThis Font Software is licensed under the SIL Open Font License, Version 1.1.\n\nLatte is a variation of Carlito.\nCarlito is Copyright (c) 2010-2013 by tyPoland Lukasz Dziedzic with Reserved Font Name "Carlito". Licensed under the SIL Open Font License, Version 1.1.

StartChar: .notdef
Encoding: 2122 -1 0
Width: 1038
GlyphClass: 2
Flags: MW
LayerCount: 2
Fore
SplineSet
229 1109 m 1,0,1
 360 1214 360 1214 524 1214 c 0,2,3
 663 1214 663 1214 742 1143 c 0,4,5
 820 1073 820 1073 820 956 c 0,6,7
 820 828 820 828 729 750 c 0,8,9
 706 730 706 730 684 712 c 0,10,11
 630 668 630 668 623 639 c 2,12,-1
 601 548 l 1,13,-1
 427 548 l 1,14,-1
 409 657 l 2,15,16
 396 738 396 738 488 804 c 0,17,18
 546 846 546 846 565 877 c 128,-1,19
 584 908 584 908 584 940 c 0,20,21
 584 1010 584 1010 501 1010 c 0,22,23
 448 1010 448 1010 418.5 996.5 c 128,-1,24
 389 983 389 983 376 977 c 128,-1,25
 363 971 363 971 337.5 971 c 128,-1,26
 312 971 312 971 296 1001 c 1,27,-1
 229 1109 l 1,0,1
378.5 253.5 m 128,-1,29
 368 278 368 278 368 306.5 c 128,-1,30
 368 335 368 335 378 360 c 0,31,32
 390 386 390 386 408 404 c 0,33,34
 448 444 448 444 491 443.5 c 128,-1,35
 534 443 534 443 559 432.5 c 128,-1,36
 584 422 584 422 602 404 c 0,37,38
 642 364 642 364 642 321 c 128,-1,39
 642 278 642 278 632 254 c 0,40,41
 620 228 620 228 602 210 c 0,42,43
 562 170 562 170 519 170.5 c 128,-1,44
 476 171 476 171 451 181.5 c 128,-1,45
 426 192 426 192 407.5 210.5 c 128,-1,28
 389 229 389 229 378.5 253.5 c 128,-1,29
40 1398 m 1,46,-1
 1023 1398 l 1,47,-1
 1023 0 l 1,48,-1
 40 0 l 1,49,-1
 40 1398 l 1,46,-1
105 69 m 1,50,-1
 949 69 l 1,51,-1
 949 1329 l 1,52,-1
 105 1329 l 1,53,-1
 105 69 l 1,50,-1
EndSplineSet
Validated: 33
EndChar

StartChar: glyph1
Encoding: 0 -1 1
AltUni2: 000000.ffffffff.0
Width: 0
Flags: MW
LayerCount: 2
Fore
SplineSet
-37 -306 m 0,0,1
 -24 -306 -24 -306 -24 -323.5 c 128,-1,2
 -24 -341 -24 -341 -40 -341 c 128,-1,3
 -56 -341 -56 -341 -56 -323.5 c 128,-1,4
 -56 -306 -56 -306 -37 -306 c 0,0,1
EndSplineSet
Validated: 1
EndChar

StartChar: A
Encoding: 35 65 3
Width: 1241
GlyphClass: 2
Flags: MW
LayerCount: 2
Fore
SplineSet
1196 0 m 1,0,-1
 1000 0 l 2,1,2
 938 0 938 0 925 56 c 2,3,-1
 865 324 l 1,4,-1
 345 324 l 1,5,-1
 219 57 l 2,6,7
 208 35 208 35 184 17.5 c 128,-1,8
 160 0 160 0 129 0 c 2,9,-1
 -69 0 l 1,10,-1
 597 1328 l 1,11,-1
 856 1328 l 1,12,-1
 1196 0 l 1,0,-1
428 501 m 1,13,-1
 825 501 l 1,14,-1
 728 934 l 2,15,16
 712 1003 712 1003 699 1097 c 1,17,18
 672 1023 672 1023 632 932 c 1,19,-1
 428 501 l 1,13,-1
EndSplineSet
Validated: 1
Substitution2: "sous-table 'sups' Exposant lookups25" A.superior
Position2: "sous-table 'cpsp' Chasses pour composition en capitales lookups0" dx=40 dy=0 dh=80 dv=0
EndChar

StartChar: Aogonek
Encoding: 195 260 4
Width: 1241
GlyphClass: 2
Flags: MW
LayerCount: 2
Fore
SplineSet
1119 0 m 1,0,1
 1019 -56 1019 -56 1019 -136 c 0,2,3
 1019 -159 1019 -159 1032 -174 c 128,-1,4
 1045 -189 1045 -189 1064.5 -189 c 128,-1,5
 1084 -189 1084 -189 1094 -187 c 128,-1,6
 1104 -185 1104 -185 1111 -182 c 128,-1,7
 1118 -179 1118 -179 1122 -177 c 128,-1,8
 1126 -175 1126 -175 1131 -175 c 0,9,10
 1147 -175 1147 -175 1152 -191 c 2,11,-1
 1176 -282 l 1,12,13
 1101 -331 1101 -331 1008 -331 c 128,-1,14
 915 -331 915 -331 872.5 -295 c 128,-1,15
 830 -259 830 -259 830 -204 c 0,16,17
 830 -88 830 -88 978 2 c 1,18,19
 936 12 936 12 925 56 c 1,20,-1
 865 324 l 1,21,-1
 345 324 l 1,22,-1
 219 57 l 2,23,24
 208 35 208 35 184 17.5 c 128,-1,25
 160 0 160 0 129 0 c 2,26,-1
 -69 0 l 1,27,-1
 597 1328 l 1,28,-1
 856 1328 l 1,29,-1
 1196 0 l 1,30,-1
 1119 0 l 1,0,1
428 501 m 1,31,-1
 825 501 l 1,32,-1
 728 934 l 2,33,34
 712 1003 712 1003 699 1097 c 1,35,36
 672 1023 672 1023 632 932 c 1,37,-1
 428 501 l 1,31,-1
EndSplineSet
Validated: 1
Position2: "sous-table 'cpsp' Chasses pour composition en capitales lookups0" dx=40 dy=0 dh=80 dv=0
EndChar

StartChar: AE
Encoding: 133 198 5
Width: 1588
GlyphClass: 2
Flags: MW
LayerCount: 2
Fore
SplineSet
682 1328 m 1,0,-1
 1626 1328 l 1,1,-1
 1602 1127 l 1,2,-1
 1013 1127 l 1,3,-1
 1014 765 l 1,4,-1
 1439 765 l 1,5,-1
 1417 571 l 1,6,-1
 1014 571 l 1,7,-1
 1015 201 l 1,8,-1
 1487 201 l 1,9,-1
 1462 0 l 1,10,-1
 775 0 l 1,11,-1
 774 324 l 1,12,-1
 348 324 l 1,13,-1
 202 58 l 2,14,15
 169 0 169 0 107 0 c 2,16,-1
 -90 0 l 1,17,-1
 682 1328 l 1,0,-1
446 501 m 1,18,-1
 774 501 l 1,19,-1
 773 1120 l 1,20,21
 739 1036 739 1036 705 972 c 1,22,-1
 446 501 l 1,18,-1
EndSplineSet
Validated: 1
Position2: "sous-table 'cpsp' Chasses pour composition en capitales lookups0" dx=40 dy=0 dh=80 dv=0
EndChar

StartChar: B
Encoding: 36 66 6
Width: 1148
GlyphClass: 2
Flags: MW
LayerCount: 2
Fore
SplineSet
674 1328 m 2,0,1
 1110 1328 1110 1328 1110 1022 c 0,2,3
 1110 844 1110 844 965 742 c 0,4,5
 915 707 915 707 846 684 c 1,6,7
 1072 626 1072 626 1072 429 c 0,8,9
 1072 242 1072 242 934 124 c 0,10,11
 791 1 791 1 554 0 c 2,12,-1
 65 0 l 1,13,-1
 227 1328 l 1,14,-1
 674 1328 l 2,0,1
822 426 m 0,15,16
 822 580 822 580 620 580 c 2,17,-1
 389 580 l 1,18,-1
 342 196 l 1,19,-1
 573 196 l 2,20,21
 760 196 760 196 808 333 c 0,22,23
 822 375 822 375 822 426 c 0,15,16
590 754 m 2,24,25
 853 754 853 754 853 979 c 0,26,27
 853 1061 853 1061 804 1097.5 c 128,-1,28
 755 1134 755 1134 653 1134 c 2,29,-1
 457 1134 l 1,30,-1
 410 754 l 1,31,-1
 590 754 l 2,24,25
EndSplineSet
Validated: 1
Substitution2: "sous-table 'sups' Exposant lookups25" B.superior
Position2: "sous-table 'cpsp' Chasses pour composition en capitales lookups0" dx=40 dy=0 dh=80 dv=0
EndChar

StartChar: C
Encoding: 37 67 7
Width: 1062
GlyphClass: 2
Flags: MW
LayerCount: 2
Fore
SplineSet
1017 192 m 1,0,1
 842 -14 842 -14 558 -14 c 0,2,3
 325 -14 325 -14 189 150 c 0,4,5
 59 306 59 306 59 561 c 0,6,7
 59 733 59 733 113 877 c 128,-1,8
 167 1021 167 1021 260.5 1124.5 c 128,-1,9
 354 1228 354 1228 480 1285.5 c 128,-1,10
 606 1343 606 1343 750 1343 c 0,11,12
 1006 1343 1006 1343 1136 1159 c 1,13,-1
 1047 1053 l 1,14,15
 1021 1024 1021 1024 996 1024 c 128,-1,16
 971 1024 971 1024 954 1040 c 128,-1,17
 937 1056 937 1056 911 1076 c 0,18,19
 842 1128 842 1128 744.5 1127.5 c 128,-1,20
 647 1127 647 1127 571 1089 c 0,21,22
 494 1051 494 1051 438 980 c 0,23,24
 318 829 318 829 318 582 c 0,25,26
 318 408 318 408 398 302 c 0,27,28
 475 201 475 201 601 200 c 0,29,30
 730 200 730 200 807 258 c 0,31,32
 826 273 826 273 842 286 c 0,33,34
 878 316 878 316 896 316 c 256,35,36
 917 316 917 316 929 301 c 2,37,-1
 1017 192 l 1,0,1
EndSplineSet
Validated: 33
Substitution2: "sous-table 'sups' Exposant lookups25" C.superior
Position2: "sous-table 'cpsp' Chasses pour composition en capitales lookups0" dx=40 dy=0 dh=80 dv=0
EndChar

StartChar: Ccedilla
Encoding: 134 199 8
Width: 1062
GlyphClass: 2
Flags: MW
LayerCount: 2
Fore
SplineSet
606 -50 m 1,0,1
 732 -84 732 -84 732 -175 c 0,2,3
 732 -246 732 -246 662 -290 c 0,4,5
 595 -332 595 -332 488 -333 c 0,6,7
 417 -333 417 -333 358 -312 c 1,8,-1
 391 -236 l 1,9,10
 402 -214 402 -214 414.5 -214 c 128,-1,11
 427 -214 427 -214 433 -216 c 0,12,13
 438 -220 438 -220 446 -222 c 0,14,15
 477 -230 477 -230 490 -230 c 0,16,17
 512 -229 512 -229 526 -214.5 c 128,-1,18
 540 -200 540 -200 540 -180 c 0,19,20
 540 -142 540 -142 422 -127 c 1,21,-1
 469 -7 l 1,22,23
 275 22 275 22 165 180 c 0,24,25
 59 332 59 332 59 561 c 0,26,27
 59 733 59 733 113 877 c 128,-1,28
 167 1021 167 1021 260.5 1124.5 c 128,-1,29
 354 1228 354 1228 480 1285.5 c 128,-1,30
 606 1343 606 1343 750 1343 c 0,31,32
 1006 1343 1006 1343 1136 1159 c 1,33,-1
 1047 1053 l 1,34,35
 1021 1024 1021 1024 996 1024 c 128,-1,36
 971 1024 971 1024 954 1040 c 128,-1,37
 937 1056 937 1056 911 1076 c 0,38,39
 842 1128 842 1128 744.5 1127.5 c 128,-1,40
 647 1127 647 1127 571 1089 c 0,41,42
 494 1051 494 1051 438 980 c 0,43,44
 318 829 318 829 318 582 c 0,45,46
 318 408 318 408 398 302 c 0,47,48
 475 201 475 201 601 200 c 0,49,50
 730 200 730 200 807 258 c 0,51,52
 826 273 826 273 842 286 c 0,53,54
 878 316 878 316 896 316 c 256,55,56
 917 316 917 316 929 301 c 2,57,-1
 1017 192 l 1,58,59
 864 9 864 9 621 -11 c 1,60,-1
 606 -50 l 1,0,1
EndSplineSet
Validated: 33
Position2: "sous-table 'cpsp' Chasses pour composition en capitales lookups0" dx=40 dy=0 dh=80 dv=0
EndChar

StartChar: D
Encoding: 38 68 9
Width: 1291
GlyphClass: 2
Flags: MW
LayerCount: 2
Fore
SplineSet
1273 730 m 0,0,1
 1273 586 1273 586 1218.5 448 c 128,-1,2
 1164 310 1164 310 1066 210 c 0,3,4
 860 0 860 0 544 0 c 2,5,-1
 62 0 l 1,6,-1
 225 1328 l 1,7,-1
 708 1328 l 2,8,9
 966 1328 966 1328 1122 1164 c 0,10,11
 1274 1005 1274 1005 1273 730 c 0,0,1
982 517 m 0,12,13
 1013 617 1013 617 1013 724 c 128,-1,14
 1013 831 1013 831 991 902 c 0,15,16
 968 974 968 974 926 1024 c 0,17,18
 838 1128 838 1128 683 1128 c 2,19,-1
 457 1128 l 1,20,-1
 341 201 l 1,21,-1
 568 201 l 2,22,23
 771 200 771 200 892 346 c 0,24,25
 950 416 950 416 982 517 c 0,12,13
EndSplineSet
Validated: 33
Substitution2: "sous-table 'sups' Exposant lookups25" D.superior
Position2: "sous-table 'cpsp' Chasses pour composition en capitales lookups0" dx=40 dy=0 dh=80 dv=0
EndChar

StartChar: Eth
Encoding: 143 208 10
Width: 1309
GlyphClass: 2
Flags: MW
LayerCount: 2
Fore
SplineSet
83 739 m 1,0,-1
 223 739 l 1,1,-1
 296 1328 l 1,2,-1
 759 1328 l 2,3,4
 1008 1328 1008 1328 1156 1166 c 0,5,6
 1300 1007 1300 1007 1300 754 c 0,7,8
 1300 425 1300 425 1100 212 c 0,9,10
 902 0 902 0 596 0 c 2,11,-1
 133 0 l 1,12,-1
 206 596 l 1,13,-1
 63 596 l 1,14,-1
 83 739 l 1,0,-1
1011 520 m 0,15,16
 1041 621 1041 621 1041 727.5 c 128,-1,17
 1041 834 1041 834 1020 904 c 0,18,19
 1000 974 1000 974 961 1024 c 0,20,21
 880 1128 880 1128 734 1128 c 2,22,-1
 525 1128 l 1,23,-1
 478 739 l 1,24,-1
 769 739 l 1,25,-1
 752 596 l 1,26,-1
 461 596 l 1,27,-1
 414 201 l 1,28,-1
 622 201 l 2,29,30
 813 202 813 202 926 348 c 0,31,32
 980 418 980 418 1011 520 c 0,15,16
EndSplineSet
Validated: 1
Position2: "sous-table 'cpsp' Chasses pour composition en capitales lookups0" dx=40 dy=0 dh=80 dv=0
EndChar

StartChar: E
Encoding: 39 69 11
Width: 999
GlyphClass: 2
Flags: MW
LayerCount: 2
Fore
SplineSet
1032 1328 m 1,0,-1
 1009 1127 l 1,1,-1
 458 1127 l 1,2,-1
 413 765 l 1,3,-1
 844 765 l 1,4,-1
 820 572 l 1,5,-1
 390 572 l 1,6,-1
 344 201 l 1,7,-1
 894 201 l 1,8,-1
 870 0 l 1,9,-1
 64 0 l 1,10,-1
 227 1328 l 1,11,-1
 1032 1328 l 1,0,-1
EndSplineSet
Validated: 1
Substitution2: "sous-table 'sups' Exposant lookups25" E.superior
Position2: "sous-table 'cpsp' Chasses pour composition en capitales lookups0" dx=40 dy=0 dh=80 dv=0
EndChar

StartChar: Eogonek
Encoding: 215 280 12
Width: 999
GlyphClass: 2
Flags: MW
LayerCount: 2
Fore
SplineSet
783 0 m 1,0,1
 683 -56 683 -56 683 -136 c 0,2,3
 683 -159 683 -159 696 -174 c 128,-1,4
 709 -189 709 -189 728.5 -189 c 128,-1,5
 748 -189 748 -189 758 -187 c 128,-1,6
 768 -185 768 -185 775 -182 c 128,-1,7
 782 -179 782 -179 786 -177 c 128,-1,8
 790 -175 790 -175 795 -175 c 0,9,10
 811 -175 811 -175 816 -191 c 2,11,-1
 840 -282 l 1,12,13
 765 -331 765 -331 672 -331 c 128,-1,14
 579 -331 579 -331 536.5 -295 c 128,-1,15
 494 -259 494 -259 494 -204 c 0,16,17
 494 -89 494 -89 639 0 c 1,18,-1
 64 0 l 1,19,-1
 227 1328 l 1,20,-1
 1032 1328 l 1,21,-1
 1009 1127 l 1,22,-1
 458 1127 l 1,23,-1
 413 765 l 1,24,-1
 844 765 l 1,25,-1
 820 572 l 1,26,-1
 390 572 l 1,27,-1
 344 201 l 1,28,-1
 894 201 l 1,29,-1
 870 0 l 1,30,-1
 783 0 l 1,0,1
EndSplineSet
Validated: 1
Position2: "sous-table 'cpsp' Chasses pour composition en capitales lookups0" dx=40 dy=0 dh=80 dv=0
EndChar

StartChar: F
Encoding: 40 70 13
Width: 940
GlyphClass: 2
Flags: MW
LayerCount: 2
Fore
SplineSet
973 1127 m 1,0,-1
 451 1127 l 1,1,-1
 403 739 l 1,2,-1
 841 739 l 1,3,-1
 815 537 l 1,4,-1
 378 537 l 1,5,-1
 312 0 l 1,6,-1
 57 0 l 1,7,-1
 220 1328 l 1,8,-1
 997 1328 l 1,9,-1
 973 1127 l 1,0,-1
EndSplineSet
Validated: 1
Substitution2: "sous-table 'sups' Exposant lookups25" F.superior
Position2: "sous-table 'cpsp' Chasses pour composition en capitales lookups0" dx=40 dy=0 dh=80 dv=0
EndChar

StartChar: G
Encoding: 41 71 14
Width: 1305
GlyphClass: 2
Flags: MW
LayerCount: 2
Fore
SplineSet
954 241 m 1,0,-1
 983 480 l 1,1,-1
 825 480 l 2,2,3
 802 480 802 480 789 492 c 128,-1,4
 776 504 776 504 778 524 c 2,5,-1
 794 668 l 1,6,-1
 1235 668 l 1,7,-1
 1170 128 l 1,8,9
 1061 53 1061 53 967 28 c 0,10,11
 809 -14 809 -14 665 -14 c 128,-1,12
 521 -14 521 -14 413 31 c 0,13,14
 304 76 304 76 228 156 c 0,15,16
 68 323 68 323 68 582 c 0,17,18
 68 912 68 912 284 1128 c 0,19,20
 498 1342 498 1342 824 1343 c 0,21,22
 1115 1343 1115 1343 1292 1161 c 1,23,-1
 1211 1055 l 2,24,25
 1165 995 1165 995 1106 1036 c 0,26,27
 1029 1084 1029 1084 990 1098 c 0,28,29
 909 1127 909 1127 805 1127 c 128,-1,30
 701 1127 701 1127 613 1088 c 0,31,32
 526 1048 526 1048 462 978 c 0,33,34
 328 829 328 829 327 590 c 0,35,36
 327 404 327 404 428 294 c 0,37,38
 526 186 526 186 681 186 c 128,-1,39
 836 186 836 186 954 241 c 1,0,-1
EndSplineSet
Validated: 33
Substitution2: "sous-table 'sups' Exposant lookups25" G.superior
Position2: "sous-table 'cpsp' Chasses pour composition en capitales lookups0" dx=40 dy=0 dh=80 dv=0
EndChar

StartChar: H
Encoding: 42 72 15
Width: 1292
GlyphClass: 2
Flags: MW
LayerCount: 2
Fore
SplineSet
1120 0 m 1,0,-1
 864 0 l 1,1,-1
 936 579 l 1,2,-1
 386 579 l 1,3,-1
 315 0 l 1,4,-1
 60 0 l 1,5,-1
 223 1328 l 1,6,-1
 479 1328 l 1,7,-1
 408 757 l 1,8,-1
 958 757 l 1,9,-1
 1029 1328 l 1,10,-1
 1283 1328 l 1,11,-1
 1120 0 l 1,0,-1
EndSplineSet
Validated: 1
Substitution2: "sous-table 'sups' Exposant lookups25" H.superior
Position2: "sous-table 'cpsp' Chasses pour composition en capitales lookups0" dx=40 dy=0 dh=80 dv=0
EndChar

StartChar: Hbar
Encoding: 229 294 16
Width: 1347
GlyphClass: 2
Flags: MW
LayerCount: 2
Fore
SplineSet
1285 1097 m 1,0,-1
 1405 1097 l 1,1,-1
 1388 949 l 1,2,-1
 1267 949 l 1,3,-1
 1151 0 l 1,4,-1
 895 0 l 1,5,-1
 967 579 l 1,6,-1
 417 579 l 1,7,-1
 346 0 l 1,8,-1
 91 0 l 1,9,-1
 207 949 l 1,10,-1
 86 949 l 1,11,-1
 103 1097 l 1,12,-1
 225 1097 l 1,13,-1
 254 1328 l 1,14,-1
 510 1328 l 1,15,-1
 481 1097 l 1,16,-1
 1031 1097 l 1,17,-1
 1060 1328 l 1,18,-1
 1314 1328 l 1,19,-1
 1285 1097 l 1,0,-1
439 757 m 1,20,-1
 989 757 l 1,21,-1
 1013 949 l 1,22,-1
 463 949 l 1,23,-1
 439 757 l 1,20,-1
EndSplineSet
Validated: 1
Position2: "sous-table 'cpsp' Chasses pour composition en capitales lookups0" dx=40 dy=0 dh=80 dv=0
EndChar

StartChar: I
Encoding: 43 73 17
Width: 546
GlyphClass: 2
Flags: MW
LayerCount: 2
Fore
SplineSet
345 0 m 1,0,-1
 90 0 l 1,1,-1
 252 1328 l 1,2,-1
 507 1328 l 1,3,-1
 345 0 l 1,0,-1
EndSplineSet
Validated: 1
Substitution2: "sous-table 'sups' Exposant lookups25" I.superior
Position2: "sous-table 'cpsp' Chasses pour composition en capitales lookups0" dx=40 dy=0 dh=80 dv=0
EndChar

StartChar: Iogonek
Encoding: 237 302 18
Width: 546
GlyphClass: 2
Flags: MW
LayerCount: 2
Fore
SplineSet
307 0 m 1,0,1
 207 -56 207 -56 207 -136 c 0,2,3
 207 -159 207 -159 220 -174 c 128,-1,4
 233 -189 233 -189 252.5 -189 c 128,-1,5
 272 -189 272 -189 282 -187 c 128,-1,6
 292 -185 292 -185 299 -182 c 128,-1,7
 306 -179 306 -179 310 -177 c 128,-1,8
 314 -175 314 -175 319 -175 c 0,9,10
 335 -175 335 -175 340 -191 c 2,11,-1
 364 -282 l 1,12,13
 289 -331 289 -331 196 -331 c 128,-1,14
 103 -331 103 -331 60.5 -295 c 128,-1,15
 18 -259 18 -259 18 -204 c 0,16,17
 18 -89 18 -89 163 0 c 1,18,-1
 90 0 l 1,19,-1
 252 1328 l 1,20,-1
 507 1328 l 1,21,-1
 345 0 l 1,22,-1
 307 0 l 1,0,1
EndSplineSet
Validated: 1
Position2: "sous-table 'cpsp' Chasses pour composition en capitales lookups0" dx=40 dy=0 dh=80 dv=0
EndChar

StartChar: J
Encoding: 44 74 19
Width: 678
GlyphClass: 2
Flags: MW
LayerCount: 2
Fore
SplineSet
587 465 m 1,0,1
 543 116 543 116 316 18 c 0,2,3
 239 -16 239 -16 147.5 -15.5 c 128,-1,4
 56 -15 56 -15 -32 9 c 1,5,-1
 -12 158 l 1,6,7
 -7 205 -7 205 39 205 c 0,8,9
 59 205 59 205 84.5 199 c 128,-1,10
 110 193 110 193 144 193 c 0,11,12
 301 193 301 193 333 460 c 2,13,-1
 437 1328 l 1,14,-1
 692 1328 l 1,15,-1
 587 465 l 1,0,1
EndSplineSet
Validated: 33
Substitution2: "sous-table 'sups' Exposant lookups25" J.superior
Position2: "sous-table 'cpsp' Chasses pour composition en capitales lookups0" dx=40 dy=0 dh=80 dv=0
EndChar

StartChar: K
Encoding: 45 75 20
Width: 1120
GlyphClass: 2
Flags: MW
LayerCount: 2
Fore
SplineSet
398 772 m 1,0,-1
 442 772 l 2,1,2
 502 772 502 772 533 814 c 2,3,-1
 862 1276 l 1,4,5
 904 1328 904 1328 980 1328 c 2,6,-1
 1198 1328 l 1,7,-1
 780 776 l 1,8,9
 739 725 739 725 695 704 c 1,10,11
 751 683 751 683 782 621 c 1,12,-1
 1064 0 l 1,13,-1
 839 0 l 2,14,15
 782 0 782 0 759 29 c 0,16,17
 752 38 752 38 746 49 c 2,18,-1
 527 537 l 2,19,20
 507 582 507 582 439 582 c 2,21,-1
 374 582 l 1,22,-1
 302 0 l 1,23,-1
 51 0 l 1,24,-1
 213 1329 l 1,25,-1
 467 1329 l 1,26,-1
 398 772 l 1,0,-1
EndSplineSet
Validated: 1
Substitution2: "sous-table 'sups' Exposant lookups25" K.superior
Position2: "sous-table 'cpsp' Chasses pour composition en capitales lookups0" dx=40 dy=0 dh=80 dv=0
EndChar

StartChar: L
Encoding: 46 76 21
Width: 866
GlyphClass: 2
Flags: MW
LayerCount: 2
Fore
SplineSet
336 209 m 1,0,-1
 804 209 l 1,1,-1
 780 0 l 1,2,-1
 57 0 l 1,3,-1
 220 1328 l 1,4,-1
 474 1328 l 1,5,-1
 336 209 l 1,0,-1
EndSplineSet
Validated: 1
Substitution2: "sous-table 'sups' Exposant lookups25" L.superior
Position2: "sous-table 'cpsp' Chasses pour composition en capitales lookups0" dx=40 dy=0 dh=80 dv=0
EndChar

StartChar: Lslash
Encoding: 256 321 22
Width: 886
GlyphClass: 2
Flags: MW
LayerCount: 2
Fore
SplineSet
445 806 m 1,0,-1
 743 967 l 1,1,-1
 720 796 l 2,2,3
 717 765 717 765 684 746 c 2,4,-1
 420 598 l 1,5,-1
 372 209 l 1,6,-1
 840 209 l 1,7,-1
 816 0 l 1,8,-1
 93 0 l 1,9,-1
 151 472 l 1,10,-1
 6 400 l 1,11,-1
 29 573 l 2,12,13
 34 605 34 605 61 619 c 2,14,-1
 176 679 l 1,15,-1
 256 1328 l 1,16,-1
 510 1328 l 1,17,-1
 445 806 l 1,0,-1
EndSplineSet
Validated: 1
Position2: "sous-table 'cpsp' Chasses pour composition en capitales lookups0" dx=40 dy=0 dh=80 dv=0
EndChar

StartChar: Lcaron
Encoding: 252 317 23
Width: 881
GlyphClass: 2
Flags: MW
LayerCount: 2
Fore
SplineSet
293 209 m 1,0,-1
 761 209 l 1,1,-1
 737 0 l 1,2,-1
 14 0 l 1,3,-1
 177 1328 l 1,4,-1
 431 1328 l 1,5,-1
 293 209 l 1,0,-1
822 1365 m 2,6,7
 857 1365 857 1365 857 1337 c 0,8,9
 857 1310 857 1310 818.5 1236.5 c 128,-1,10
 780 1163 780 1163 752.5 1112 c 128,-1,11
 725 1061 725 1061 705 1054 c 128,-1,12
 685 1047 685 1047 656 1047 c 2,13,-1
 573 1047 l 1,14,-1
 667 1365 l 1,15,-1
 822 1365 l 2,6,7
EndSplineSet
Validated: 1
Position2: "sous-table 'cpsp' Chasses pour composition en capitales lookups0" dx=40 dy=0 dh=80 dv=0
EndChar

StartChar: M
Encoding: 47 77 24
Width: 1790
GlyphClass: 2
Flags: MW
LayerCount: 2
Fore
SplineSet
852 546 m 1,0,1
 867 503 867 503 883 441 c 1,2,3
 908 497 908 497 937 545 c 1,4,-1
 1469 1285 l 1,5,6
 1487 1313 1487 1313 1504 1320.5 c 128,-1,7
 1521 1328 1521 1328 1553 1328 c 2,8,-1
 1746 1328 l 1,9,-1
 1583 0 l 1,10,-1
 1360 0 l 1,11,-1
 1471 839 l 1,12,13
 1477 893 1477 893 1495 978 c 1,14,-1
 968 213 l 1,15,16
 935 159 935 159 873 159 c 2,17,-1
 838 159 l 2,18,19
 776 159 776 159 754 213 c 1,20,-1
 417 973 l 1,21,22
 417 911 417 911 412 843 c 1,23,-1
 303 0 l 1,24,-1
 80 0 l 1,25,-1
 242 1328 l 1,26,-1
 432 1328 l 2,27,28
 477 1328 477 1328 491.5 1314.5 c 128,-1,29
 506 1301 506 1301 515 1288 c 1,30,-1
 852 546 l 1,0,1
EndSplineSet
Validated: 1
Substitution2: "sous-table 'sups' Exposant lookups25" M.superior
Position2: "sous-table 'cpsp' Chasses pour composition en capitales lookups0" dx=40 dy=0 dh=80 dv=0
EndChar

StartChar: N
Encoding: 48 78 25
Width: 1344
GlyphClass: 2
Flags: MW
LayerCount: 2
Fore
SplineSet
363 1328 m 2,0,1
 409 1328 409 1328 421 1314.5 c 128,-1,2
 433 1301 433 1301 441 1288 c 2,3,-1
 988 401 l 1,4,5
 992 465 992 465 998 509 c 2,6,-1
 1100 1328 l 1,7,-1
 1324 1328 l 1,8,-1
 1161 0 l 1,9,-1
 1030 0 l 2,10,11
 976 0 976 0 948 44 c 2,12,-1
 401 930 l 1,13,14
 399 905 399 905 397.5 883 c 128,-1,15
 396 861 396 861 394 841 c 2,16,-1
 290 0 l 1,17,-1
 66 0 l 1,18,-1
 229 1328 l 1,19,-1
 363 1328 l 2,0,1
EndSplineSet
Validated: 1
Substitution2: "sous-table 'sups' Exposant lookups25" N.superior
Position2: "sous-table 'cpsp' Chasses pour composition en capitales lookups0" dx=40 dy=0 dh=80 dv=0
EndChar

StartChar: Eng
Encoding: 265 330 26
Width: 1305
GlyphClass: 2
Flags: MW
LayerCount: 2
Fore
SplineSet
1171 111 m 1,0,-1
 1166 64 l 1,1,-1
 1165 63 l 1,2,-1
 1162 38 l 1,3,4
 1132 -223 1132 -223 946 -300 c 0,5,6
 880 -327 880 -327 812.5 -327 c 128,-1,7
 745 -327 745 -327 709 -318 c 128,-1,8
 673 -309 673 -309 632 -290 c 1,9,-1
 670 -190 l 2,10,11
 686 -145 686 -145 725 -145 c 0,12,13
 739 -145 739 -145 752.5 -150.5 c 128,-1,14
 766 -156 766 -156 793 -156 c 0,15,16
 856 -156 856 -156 890 -115 c 128,-1,17
 924 -74 924 -74 935 12 c 2,18,-1
 940 53 l 1,19,-1
 421 916 l 1,20,21
 419 852 419 852 413 805 c 2,22,-1
 314 0 l 1,23,-1
 91 0 l 1,24,-1
 254 1328 l 1,25,-1
 386 1328 l 2,26,27
 419 1328 419 1328 434.5 1320 c 128,-1,28
 450 1312 450 1312 466 1286 c 2,29,-1
 991 414 l 1,30,31
 993 489 993 489 1000 532 c 1,32,-1
 1099 1328 l 1,33,-1
 1321 1328 l 1,34,-1
 1191 272 l 1,35,-1
 1193 272 l 1,36,-1
 1171 111 l 1,0,-1
EndSplineSet
Validated: 1
Substitution2: "sous-table 'ss03' Style 3 lookups33" Eng.ss03
Substitution2: "sous-table 'ss02' Style 2 lookups31" Eng.ss02
Substitution2: "sous-table 'ss01' Style 1 lookups29" Eng.ss01
Position2: "sous-table 'cpsp' Chasses pour composition en capitales lookups0" dx=40 dy=0 dh=80 dv=0
EndChar

StartChar: O
Encoding: 49 79 27
Width: 1369
GlyphClass: 2
Flags: MW
LayerCount: 2
Fore
SplineSet
1314 984.5 m 128,-1,1
 1353 876 1353 876 1353 731 c 128,-1,2
 1353 586 1353 586 1298 446 c 0,3,4
 1244 306 1244 306 1146 204 c 0,5,6
 936 -15 936 -15 625 -14 c 0,7,8
 368 -14 368 -14 214 156 c 0,9,10
 64 321 64 321 64 577 c 0,11,12
 64 741 64 741 119 881.5 c 128,-1,13
 174 1022 174 1022 271.5 1124.5 c 128,-1,14
 369 1227 369 1227 502.5 1285 c 128,-1,15
 636 1343 636 1343 779.5 1343 c 128,-1,16
 923 1343 923 1343 1026.5 1297.5 c 128,-1,17
 1130 1252 1130 1252 1202.5 1172.5 c 128,-1,0
 1275 1093 1275 1093 1314 984.5 c 128,-1,1
1062 518 m 0,18,19
 1093 620 1093 620 1093 726.5 c 128,-1,20
 1093 833 1093 833 1070.5 905 c 128,-1,21
 1048 977 1048 977 1005 1028 c 0,22,23
 915 1135 915 1135 762 1135 c 0,24,25
 562 1136 562 1136 442 984 c 0,26,27
 322 833 322 833 323 583 c 0,28,29
 323 406 323 406 410 300 c 128,-1,30
 497 194 497 194 653 194 c 0,31,32
 852 194 852 194 974 345 c 0,33,34
 1032 417 1032 417 1062 518 c 0,18,19
EndSplineSet
Validated: 33
Substitution2: "sous-table 'sups' Exposant lookups25" O.superior
Position2: "sous-table 'cpsp' Chasses pour composition en capitales lookups0" dx=40 dy=0 dh=80 dv=0
EndChar

StartChar: Oslash
Encoding: 151 216 28
Width: 1387
GlyphClass: 2
Flags: MW
LayerCount: 2
Fore
SplineSet
1234 1161 m 1,0,1
 1375 1000 1375 1000 1375 750 c 0,2,3
 1376 422 1376 422 1168 204 c 0,4,5
 960 -15 960 -15 647 -14 c 0,6,7
 477 -14 477 -14 344 66 c 1,8,-1
 263 -34 l 2,9,10
 207 -103 207 -103 118 -103 c 2,11,-1
 18 -103 l 1,12,-1
 232 160 l 1,13,14
 86 325 86 325 86 577 c 0,15,16
 86 741 86 741 141 881.5 c 128,-1,17
 196 1022 196 1022 293.5 1124.5 c 128,-1,18
 391 1227 391 1227 524.5 1285 c 128,-1,19
 658 1343 658 1343 825.5 1343 c 128,-1,20
 993 1343 993 1343 1124 1257 c 1,21,-1
 1178 1324 l 2,22,23
 1220 1376 1220 1376 1244 1381.5 c 128,-1,24
 1268 1387 1268 1387 1289 1387 c 2,25,-1
 1418 1387 l 1,26,-1
 1234 1161 l 1,0,1
976 1076 m 1,27,28
 899 1135 899 1135 791.5 1135 c 128,-1,29
 684 1135 684 1135 603 1095.5 c 128,-1,30
 522 1056 522 1056 464 984 c 0,31,32
 344 833 344 833 345 583 c 0,33,34
 345 449 345 449 393 358 c 1,35,-1
 976 1076 l 1,27,28
1084 518.5 m 128,-1,37
 1115 620 1115 620 1115 714 c 0,38,39
 1115 868 1115 868 1070 960 c 1,40,-1
 490 246 l 1,41,42
 566 194 566 194 670.5 194 c 128,-1,43
 775 194 775 194 856.5 233.5 c 128,-1,44
 938 273 938 273 995.5 345 c 128,-1,36
 1053 417 1053 417 1084 518.5 c 128,-1,37
EndSplineSet
Validated: 33
Position2: "sous-table 'cpsp' Chasses pour composition en capitales lookups0" dx=40 dy=0 dh=80 dv=0
EndChar

StartChar: OE
Encoding: 273 338 29
Width: 1790
GlyphClass: 2
Flags: MW
LayerCount: 2
Fore
SplineSet
710 1343 m 0,0,1
 941 1343 941 1343 1069 1157 c 1,2,-1
 1090 1328 l 1,3,-1
 1832 1328 l 1,4,-1
 1807 1127 l 1,5,-1
 1288 1127 l 1,6,-1
 1245 765 l 1,7,-1
 1648 765 l 1,8,-1
 1624 571 l 1,9,-1
 1221 571 l 1,10,-1
 1176 201 l 1,11,-1
 1693 201 l 1,12,-1
 1669 0 l 1,13,-1
 927 0 l 1,14,-1
 945 149 l 1,15,16
 778 -14 778 -14 545 -14 c 0,17,18
 324 -14 324 -14 190 152 c 0,19,20
 62 311 62 311 61 564 c 0,21,22
 61 899 61 899 246 1120 c 0,23,24
 333 1224 333 1224 451.5 1283.5 c 128,-1,25
 570 1343 570 1343 710 1343 c 0,0,1
957.5 524.5 m 128,-1,27
 985 629 985 629 985 735 c 128,-1,28
 985 841 985 841 967 912 c 0,29,30
 948 983 948 983 914 1034 c 0,31,32
 841 1142 841 1142 712 1142 c 0,33,34
 535 1142 535 1142 427 982 c 0,35,36
 320 824 320 824 320 571 c 0,37,38
 320 301 320 301 477 215 c 0,39,40
 528 187 528 187 606 187 c 128,-1,41
 684 187 684 187 756 228.5 c 128,-1,42
 828 270 828 270 879 345 c 128,-1,26
 930 420 930 420 957.5 524.5 c 128,-1,27
EndSplineSet
Validated: 1
Position2: "sous-table 'cpsp' Chasses pour composition en capitales lookups0" dx=40 dy=0 dh=80 dv=0
EndChar

StartChar: P
Encoding: 50 80 30
Width: 1090
GlyphClass: 2
Flags: MW
LayerCount: 2
Fore
SplineSet
376 464 m 1,0,-1
 319 0 l 1,1,-1
 68 0 l 1,2,-1
 230 1328 l 1,3,-1
 650 1328 l 2,4,5
 984 1328 984 1328 1069 1106 c 0,6,7
 1095 1038 1095 1038 1095 944.5 c 128,-1,8
 1095 851 1095 851 1061 760 c 0,9,10
 1026 670 1026 670 958 604 c 0,11,12
 814 464 814 464 544 464 c 2,13,-1
 376 464 l 1,0,-1
460 1134 m 1,14,-1
 401 661 l 1,15,-1
 568 661 l 2,16,17
 772 662 772 662 824 826 c 0,18,19
 840 876 840 876 840 929 c 128,-1,20
 840 982 840 982 827 1018 c 128,-1,22
 814 1054 814 1054 788 1080 c 0,23,24
 734 1134 734 1134 626 1134 c 2,25,-1
 460 1134 l 1,14,-1
EndSplineSet
Validated: 1
Substitution2: "sous-table 'sups' Exposant lookups25" P.superior
Position2: "sous-table 'cpsp' Chasses pour composition en capitales lookups0" dx=40 dy=0 dh=80 dv=0
EndChar

StartChar: Thorn
Encoding: 157 222 31
Width: 1090
GlyphClass: 2
Flags: MW
LayerCount: 2
Fore
SplineSet
512 1101 m 1,0,-1
 680 1101 l 2,1,2
 900 1101 900 1101 1018 996 c 0,3,4
 1125 901 1125 901 1125 732 c 0,5,6
 1125 510 1125 510 987 378 c 0,7,8
 840 239 840 239 574 239 c 2,9,-1
 405 239 l 1,10,-1
 376 0 l 1,11,-1
 125 0 l 1,12,-1
 286 1328 l 1,13,-1
 540 1328 l 1,14,-1
 512 1101 l 1,0,-1
487 905 m 1,15,-1
 429 435 l 1,16,-1
 597 435 l 2,17,18
 803 435 803 435 855 600 c 0,19,20
 871 651 871 651 871 725.5 c 128,-1,21
 871 800 871 800 818 852.5 c 128,-1,22
 765 905 765 905 655 905 c 2,23,-1
 487 905 l 1,15,-1
EndSplineSet
Validated: 1
Position2: "sous-table 'cpsp' Chasses pour composition en capitales lookups0" dx=40 dy=0 dh=80 dv=0
EndChar

StartChar: Q
Encoding: 51 81 32
Width: 1387
GlyphClass: 2
Flags: MW
LayerCount: 2
Fore
SplineSet
800 1 m 1,0,1
 579 -41 579 -41 413 31 c 0,2,3
 205 121 205 121 125 343 c 0,4,5
 86 451 86 451 86 596 c 128,-1,6
 86 741 86 741 141 881.5 c 128,-1,7
 196 1022 196 1022 293.5 1124.5 c 128,-1,8
 391 1227 391 1227 524.5 1285 c 128,-1,9
 658 1343 658 1343 801.5 1343 c 128,-1,10
 945 1343 945 1343 1048.5 1297.5 c 128,-1,11
 1152 1252 1152 1252 1224 1172 c 0,12,13
 1374 1007 1374 1007 1375 750 c 0,14,15
 1375 426 1375 426 1173 210 c 0,16,17
 1109 142 1109 142 1030 92 c 1,18,-1
 1294 -259 l 1,19,-1
 1087 -259 l 2,20,21
 991 -259 991 -259 949 -200 c 1,22,-1
 800 1 l 1,0,1
1084 518 m 0,23,24
 1115 620 1115 620 1115 726.5 c 128,-1,25
 1115 833 1115 833 1092.5 905 c 128,-1,26
 1070 977 1070 977 1027 1028 c 0,27,28
 937 1135 937 1135 784 1135 c 0,29,30
 584 1136 584 1136 464 984 c 0,31,32
 344 833 344 833 345 583 c 0,33,34
 345 406 345 406 432 300 c 128,-1,35
 519 194 519 194 675 194 c 0,36,37
 874 194 874 194 996 345 c 0,38,39
 1054 417 1054 417 1084 518 c 0,23,24
EndSplineSet
Validated: 33
Substitution2: "sous-table 'sups' Exposant lookups25" Q.superior
Position2: "sous-table 'cpsp' Chasses pour composition en capitales lookups0" dx=40 dy=0 dh=80 dv=0
EndChar

StartChar: R
Encoding: 52 82 33
Width: 1153
GlyphClass: 2
Flags: MW
LayerCount: 2
Fore
SplineSet
385 516 m 1,0,-1
 321 0 l 1,1,-1
 70 0 l 1,2,-1
 232 1328 l 1,3,-1
 626 1328 l 2,4,5
 969 1328 969 1328 1054 1128 c 0,6,7
 1080 1066 1080 1066 1080 991.5 c 128,-1,8
 1080 917 1080 917 1058 850 c 0,9,10
 1036 784 1036 784 994 728 c 0,11,12
 908 613 908 613 757 565 c 1,13,14
 802 539 802 539 828 488 c 2,15,-1
 1073 0 l 1,16,-1
 846 0 l 2,17,18
 783 0 783 0 759 50 c 2,19,-1
 561 470 l 2,20,21
 540 516 540 516 480 516 c 2,22,-1
 385 516 l 1,0,-1
827 955 m 0,23,24
 827 1134 827 1134 603 1134 c 2,25,-1
 461 1134 l 1,26,-1
 407 695 l 1,27,-1
 547 695 l 2,28,29
 686 695 686 695 760 771 c 0,30,31
 827 840 827 840 827 955 c 0,23,24
EndSplineSet
Validated: 1
Substitution2: "sous-table 'sups' Exposant lookups25" R.superior
Position2: "sous-table 'cpsp' Chasses pour composition en capitales lookups0" dx=40 dy=0 dh=80 dv=0
EndChar

StartChar: S
Encoding: 53 83 34
Width: 953
GlyphClass: 2
Flags: MW
LayerCount: 2
Fore
SplineSet
897 1083 m 2,0,1
 870 1047 870 1047 844.5 1047 c 128,-1,2
 819 1047 819 1047 798.5 1061.5 c 128,-1,3
 778 1076 778 1076 750 1093 c 0,4,5
 673 1139 673 1139 605.5 1139 c 128,-1,6
 538 1139 538 1139 498 1125 c 0,7,8
 458 1110 458 1110 430 1086 c 0,9,10
 374 1037 374 1037 375 956 c 0,11,12
 375 858 375 858 542 794 c 0,13,14
 672 744 672 744 728 716 c 0,15,16
 781 686 781 686 820 652 c 0,17,18
 902 579 902 579 902 470 c 0,19,20
 903 363 903 363 868 277 c 0,21,22
 832 189 832 189 767 126 c 0,23,24
 623 -15 623 -15 397 -14 c 0,25,26
 209 -14 209 -14 66 88 c 0,27,28
 21 120 21 120 -12 159 c 1,29,-1
 78 277 l 2,30,31
 103 309 103 309 132.5 309 c 128,-1,32
 162 309 162 309 185.5 290 c 128,-1,33
 209 271 209 271 241 248 c 0,34,35
 326 187 326 187 431.5 187 c 128,-1,36
 537 187 537 187 598 243 c 128,-1,37
 659 299 659 299 659 399 c 0,38,39
 659 478 659 478 577 526 c 0,40,41
 540 548 540 548 493 564.5 c 128,-1,42
 446 581 446 581 397 599.5 c 128,-1,43
 348 618 348 618 301 641 c 128,-1,44
 254 664 254 664 217 698 c 0,45,46
 135 774 135 774 135 903 c 0,47,48
 134 1082 134 1082 262 1208 c 0,49,50
 396 1341 396 1341 613 1341 c 0,51,52
 783 1341 783 1341 906 1250 c 0,53,54
 944 1222 944 1222 972 1189 c 1,55,-1
 897 1083 l 2,0,1
EndSplineSet
Validated: 33
Substitution2: "sous-table 'sups' Exposant lookups25" S.superior
Position2: "sous-table 'cpsp' Chasses pour composition en capitales lookups0" dx=40 dy=0 dh=80 dv=0
EndChar

StartChar: Scedilla
Encoding: 285 350 35
Width: 953
GlyphClass: 2
Flags: MW
LayerCount: 2
Fore
SplineSet
471 -50 m 1,0,1
 597 -84 597 -84 597 -175 c 0,2,3
 598 -246 598 -246 528 -290 c 0,4,5
 461 -332 461 -332 353 -333 c 0,6,7
 282 -333 282 -333 223 -312 c 1,8,-1
 256 -236 l 1,9,10
 267 -214 267 -214 279.5 -214 c 128,-1,11
 292 -214 292 -214 298 -216 c 0,12,13
 304 -220 304 -220 312 -222 c 0,14,15
 343 -230 343 -230 356 -230 c 0,16,17
 377 -229 377 -229 391 -214.5 c 128,-1,18
 405 -200 405 -200 405 -180 c 0,19,20
 405 -142 405 -142 287 -127 c 1,21,-1
 332 -10 l 1,22,23
 226 1 226 1 136 45.5 c 128,-1,24
 46 90 46 90 -12 159 c 1,25,-1
 78 277 l 2,26,27
 103 309 103 309 132.5 309 c 128,-1,28
 162 309 162 309 185.5 290 c 128,-1,29
 209 271 209 271 241 248 c 0,30,31
 326 187 326 187 431.5 187 c 128,-1,32
 537 187 537 187 598 243 c 128,-1,33
 659 299 659 299 659 399 c 0,34,35
 659 478 659 478 577 526 c 0,36,37
 540 548 540 548 493 564.5 c 128,-1,38
 446 581 446 581 397 599.5 c 128,-1,39
 348 618 348 618 301 641 c 128,-1,40
 254 664 254 664 217 698 c 0,41,42
 135 774 135 774 135 903 c 0,43,44
 134 1082 134 1082 262 1208 c 0,45,46
 396 1341 396 1341 613 1341 c 0,47,48
 783 1341 783 1341 906 1250 c 0,49,50
 944 1222 944 1222 972 1189 c 1,51,-1
 897 1083 l 2,52,53
 870 1047 870 1047 844.5 1047 c 128,-1,54
 819 1047 819 1047 798.5 1061.5 c 128,-1,55
 778 1076 778 1076 750 1093 c 0,56,57
 673 1139 673 1139 605.5 1139 c 128,-1,58
 538 1139 538 1139 498 1125 c 0,59,60
 458 1110 458 1110 430 1086 c 0,61,62
 374 1037 374 1037 375 956 c 0,63,64
 375 858 375 858 542 794 c 0,65,66
 672 744 672 744 728 716 c 0,67,68
 781 686 781 686 820 652 c 0,69,70
 902 579 902 579 902 474 c 0,71,72
 903 373 903 373 874.5 294.5 c 128,-1,73
 846 216 846 216 792 154 c 0,74,75
 677 21 677 21 487 -7 c 1,76,-1
 471 -50 l 1,0,1
EndSplineSet
Validated: 33
Substitution2: "sous-table 'salt' Alternatives stylistiques dans Latin lookup 8" uni0218
Position2: "sous-table 'cpsp' Chasses pour composition en capitales lookups0" dx=40 dy=0 dh=80 dv=0
EndChar

StartChar: T
Encoding: 54 84 36
Width: 1014
GlyphClass: 2
Flags: MW
LayerCount: 2
Fore
SplineSet
1102 1328 m 1,0,-1
 1076 1121 l 1,1,-1
 715 1121 l 1,2,-1
 578 0 l 1,3,-1
 326 0 l 1,4,-1
 462 1121 l 1,5,-1
 102 1121 l 1,6,-1
 127 1328 l 1,7,-1
 1102 1328 l 1,0,-1
EndSplineSet
Validated: 1
Substitution2: "sous-table 'sups' Exposant lookups25" T.superior
Position2: "sous-table 'cpsp' Chasses pour composition en capitales lookups0" dx=40 dy=0 dh=80 dv=0
EndChar

StartChar: Tbar
Encoding: 293 358 37
Width: 1014
GlyphClass: 2
Flags: MW
LayerCount: 2
Fore
SplineSet
1076 1121 m 1,0,-1
 715 1121 l 1,1,-1
 674 782 l 1,2,-1
 932 782 l 1,3,-1
 914 639 l 1,4,-1
 656 639 l 1,5,-1
 578 0 l 1,6,-1
 326 0 l 1,7,-1
 404 639 l 1,8,-1
 140 639 l 1,9,-1
 157 782 l 1,10,-1
 421 782 l 1,11,-1
 463 1121 l 1,12,-1
 102 1121 l 1,13,-1
 127 1328 l 1,14,-1
 1102 1328 l 1,15,-1
 1076 1121 l 1,0,-1
EndSplineSet
Validated: 1
Position2: "sous-table 'cpsp' Chasses pour composition en capitales lookups0" dx=40 dy=0 dh=80 dv=0
EndChar

StartChar: U
Encoding: 55 85 38
Width: 1337
GlyphClass: 2
Flags: MW
LayerCount: 2
Fore
SplineSet
507 226 m 0,0,1
 560 202 560 202 631.5 202.5 c 128,-1,2
 703 203 703 203 762 226.5 c 128,-1,3
 821 250 821 250 865 294 c 0,4,5
 956 384 956 384 974 533 c 2,6,-1
 1072 1328 l 1,7,-1
 1325 1328 l 1,8,-1
 1227 533 l 2,9,10
 1197 292 1197 292 1031 140 c 0,11,12
 862 -16 862 -16 607 -15 c 0,13,14
 354 -16 354 -16 221 140 c 0,15,16
 91 292 91 292 121 533 c 2,17,-1
 218 1328 l 1,18,-1
 470 1328 l 1,19,-1
 373 533 l 2,20,21
 345 298 345 298 507 226 c 0,0,1
EndSplineSet
Validated: 33
Substitution2: "sous-table 'sups' Exposant lookups25" U.superior
Position2: "sous-table 'cpsp' Chasses pour composition en capitales lookups0" dx=40 dy=0 dh=80 dv=0
EndChar

StartChar: Uogonek
Encoding: 305 370 39
Width: 1337
GlyphClass: 2
Flags: MW
LayerCount: 2
Fore
SplineSet
437 -204 m 0,0,1
 437 -96 437 -96 560 -13 c 1,2,3
 330 1 330 1 210 154 c 0,4,5
 93 303 93 303 121 533 c 2,6,-1
 218 1328 l 1,7,-1
 470 1328 l 1,8,-1
 373 533 l 2,9,10
 345 298 345 298 507 226 c 0,11,12
 560 202 560 202 631.5 202.5 c 128,-1,13
 703 203 703 203 762 226.5 c 128,-1,14
 821 250 821 250 865 294 c 0,15,16
 956 384 956 384 974 533 c 2,17,-1
 1072 1328 l 1,18,-1
 1325 1328 l 1,19,-1
 1227 533 l 2,20,21
 1201 320 1201 320 1064 174 c 0,22,23
 926 26 926 26 716 -6 c 1,24,25
 626 -64 626 -64 626 -136 c 0,26,27
 626 -159 626 -159 639 -174 c 128,-1,28
 652 -189 652 -189 671.5 -189 c 128,-1,29
 691 -189 691 -189 701 -187 c 128,-1,30
 711 -185 711 -185 718 -182 c 128,-1,31
 725 -179 725 -179 729 -177 c 128,-1,32
 733 -175 733 -175 738 -175 c 0,33,34
 754 -175 754 -175 759 -191 c 2,35,-1
 783 -282 l 1,36,37
 708 -331 708 -331 615 -331 c 128,-1,38
 522 -331 522 -331 479.5 -295 c 128,-1,39
 437 -259 437 -259 437 -204 c 0,0,1
EndSplineSet
Validated: 33
Position2: "sous-table 'cpsp' Chasses pour composition en capitales lookups0" dx=40 dy=0 dh=80 dv=0
EndChar

StartChar: V
Encoding: 56 86 40
Width: 1211
GlyphClass: 2
Flags: MW
LayerCount: 2
Fore
SplineSet
110 1328 m 1,0,-1
 313 1328 l 2,1,2
 378 1328 378 1328 390 1272 c 2,3,-1
 558 471 l 1,4,5
 581 354 581 354 589 283 c 1,6,7
 623 386 623 386 662 473 c 2,8,-1
 1021 1271 l 2,9,10
 1031 1292 1031 1292 1056 1310 c 128,-1,11
 1081 1328 1081 1328 1113 1328 c 2,12,-1
 1317 1328 l 1,13,-1
 665 0 l 1,14,-1
 436 0 l 1,15,-1
 110 1328 l 1,0,-1
EndSplineSet
Validated: 1
Substitution2: "sous-table 'sups' Exposant lookups25" V.superior
Position2: "sous-table 'cpsp' Chasses pour composition en capitales lookups0" dx=40 dy=0 dh=80 dv=0
EndChar

StartChar: W
Encoding: 57 87 41
Width: 1857
GlyphClass: 2
Flags: MW
LayerCount: 2
Fore
SplineSet
116 1328 m 1,0,-1
 314 1328 l 2,1,2
 382 1328 382 1328 391 1272 c 2,3,-1
 512 484 l 2,4,5
 520 436 520 436 527 342 c 1,6,7
 556 436 556 436 576 484 c 2,8,-1
 915 1271 l 2,9,10
 924 1293 924 1293 948 1310.5 c 128,-1,11
 972 1328 972 1328 1004 1328 c 2,12,-1
 1063 1328 l 2,13,14
 1128 1328 1128 1328 1139 1272 c 1,15,-1
 1282 484 l 1,16,17
 1293 415 1293 415 1299 345 c 1,18,19
 1317 408 1317 408 1344 481 c 1,20,-1
 1661 1271 l 2,21,22
 1669 1293 1669 1293 1695.5 1310.5 c 128,-1,23
 1722 1328 1722 1328 1754 1328 c 2,24,-1
 1953 1328 l 1,25,-1
 1393 0 l 1,26,-1
 1164 0 l 1,27,-1
 1005 898 l 2,28,29
 1000 932 1000 932 993 985 c 1,30,31
 976 935 976 935 961 898 c 2,32,-1
 578 0 l 1,33,-1
 350 0 l 1,34,-1
 116 1328 l 1,0,-1
EndSplineSet
Validated: 1
Substitution2: "sous-table 'sups' Exposant lookups25" W.superior
Position2: "sous-table 'cpsp' Chasses pour composition en capitales lookups0" dx=40 dy=0 dh=80 dv=0
EndChar

StartChar: X
Encoding: 58 88 42
Width: 1128
GlyphClass: 2
Flags: MW
LayerCount: 2
Fore
SplineSet
424 710 m 1,0,-1
 146 1328 l 1,1,-1
 375 1328 l 2,2,3
 401 1328 401 1328 411.5 1321.5 c 128,-1,4
 422 1315 422 1315 429 1298 c 2,5,-1
 610 854 l 1,6,7
 619 870 619 870 631 887 c 1,8,-1
 882 1294 l 1,9,10
 906 1328 906 1328 938 1328 c 2,11,-1
 1202 1328 l 1,12,-1
 771 722 l 1,13,-1
 1080 0 l 1,14,-1
 854 0 l 2,15,16
 813 0 813 0 794 43 c 1,17,-1
 591 557 l 1,18,19
 587 551 587 551 584 545 c 128,-1,20
 581 539 581 539 577 534 c 2,21,-1
 266 43 l 1,22,23
 236 0 236 0 189 0 c 2,24,-1
 -64 0 l 1,25,-1
 424 710 l 1,0,-1
EndSplineSet
Validated: 1
Substitution2: "sous-table 'sups' Exposant lookups25" X.superior
Position2: "sous-table 'cpsp' Chasses pour composition en capitales lookups0" dx=40 dy=0 dh=80 dv=0
EndChar

StartChar: Y
Encoding: 59 89 43
Width: 1064
GlyphClass: 2
Flags: MW
LayerCount: 2
Fore
SplineSet
671 520 m 1,0,-1
 607 0 l 1,1,-1
 353 0 l 1,2,-1
 417 511 l 1,3,-1
 98 1328 l 1,4,-1
 323 1328 l 2,5,6
 383 1328 383 1328 402 1272 c 1,7,-1
 537 828 l 1,8,9
 562 756 562 756 573 696 c 1,10,11
 604 758 604 758 648 827 c 1,12,-1
 890 1271 l 1,13,14
 925 1328 925 1328 979 1328 c 2,15,-1
 1189 1328 l 1,16,-1
 671 520 l 1,0,-1
EndSplineSet
Validated: 1
Substitution2: "sous-table 'sups' Exposant lookups25" Y.superior
Position2: "sous-table 'cpsp' Chasses pour composition en capitales lookups0" dx=40 dy=0 dh=80 dv=0
EndChar

StartChar: Z
Encoding: 60 90 44
Width: 979
GlyphClass: 2
Flags: MW
LayerCount: 2
Fore
SplineSet
1058 1328 m 1,0,-1
 1047 1250 l 2,1,2
 1044 1221 1044 1221 1019 1190 c 1,3,-1
 339 201 l 1,4,-1
 904 201 l 1,5,-1
 879 0 l 1,6,-1
 -15 0 l 1,7,-1
 -4 77 l 2,8,9
 -1 106 -1 106 23 136 c 1,10,-1
 704 1127 l 1,11,-1
 164 1127 l 1,12,-1
 191 1328 l 1,13,-1
 1058 1328 l 1,0,-1
EndSplineSet
Validated: 1
Substitution2: "sous-table 'sups' Exposant lookups25" Z.superior
Position2: "sous-table 'cpsp' Chasses pour composition en capitales lookups0" dx=40 dy=0 dh=80 dv=0
EndChar

StartChar: a
Encoding: 67 97 45
Width: 1081
GlyphClass: 2
Flags: MW
LayerCount: 2
Fore
SplineSet
686 210 m 1,0,1
 535 -15 535 -15 329 -15 c 0,2,3
 200 -15 200 -15 122 74 c 0,4,5
 38 170 38 170 37 345 c 0,6,7
 37 616 37 616 234 810 c 0,8,9
 362 936 362 936 540 984 c 0,10,11
 630 1008 630 1008 714 1008 c 0,12,13
 888 1008 888 1008 1014 963 c 1,14,-1
 896 0 l 1,15,-1
 761 0 l 2,16,17
 673 0 673 0 678 84 c 2,18,-1
 686 210 l 1,0,1
427 192 m 0,19,20
 514 192 514 192 594 300 c 0,21,22
 671 404 671 404 717 563 c 1,23,-1
 749 827 l 1,24,25
 721 829 721 829 694 829 c 0,26,27
 524 829 524 829 406 698 c 0,28,29
 290 569 290 569 290 380.5 c 128,-1,30
 290 192 290 192 427 192 c 0,19,20
EndSplineSet
Validated: 33
Substitution2: "sous-table 'ordn' Ordinaux dans Latin lookup 39" a.superior
Substitution2: "sous-table 'sups' Exposant lookups25" a.superior
EndChar

StartChar: aogonek
Encoding: 196 261 46
Width: 1081
GlyphClass: 2
Flags: MW
LayerCount: 2
Fore
SplineSet
686 210 m 1,0,1
 535 -15 535 -15 329 -15 c 0,2,3
 200 -15 200 -15 122 74 c 0,4,5
 38 170 38 170 37 345 c 0,6,7
 37 616 37 616 234 810 c 0,8,9
 362 936 362 936 540 984 c 0,10,11
 630 1008 630 1008 714 1008 c 0,12,13
 888 1008 888 1008 1014 963 c 1,14,-1
 896 0 l 1,15,-1
 879 0 l 1,16,17
 773 -58 773 -58 773 -139 c 256,18,19
 773 -162 773 -162 786 -177 c 128,-1,20
 799 -192 799 -192 818.5 -192 c 128,-1,21
 838 -192 838 -192 848 -190 c 128,-1,22
 858 -188 858 -188 865 -185 c 128,-1,23
 872 -182 872 -182 876 -180 c 128,-1,24
 880 -178 880 -178 885 -178 c 0,25,26
 901 -178 901 -178 906 -194 c 2,27,-1
 930 -285 l 1,28,29
 855 -334 855 -334 762 -334 c 128,-1,30
 669 -334 669 -334 626.5 -298 c 128,-1,31
 584 -262 584 -262 584 -207 c 0,32,33
 584 -89 584 -89 737 2 c 1,34,35
 673 13 673 13 678 84 c 2,36,-1
 686 210 l 1,0,1
427 192 m 0,37,38
 514 192 514 192 594 300 c 0,39,40
 671 404 671 404 717 563 c 1,41,-1
 749 827 l 1,42,43
 721 829 721 829 694 829 c 0,44,45
 524 829 524 829 406 698 c 0,46,47
 290 569 290 569 290 380.5 c 128,-1,48
 290 192 290 192 427 192 c 0,37,38
EndSplineSet
Validated: 33
EndChar

StartChar: ae
Encoding: 165 230 47
Width: 1564
GlyphClass: 2
Flags: MW
LayerCount: 2
Fore
SplineSet
829 856 m 1,0,1
 967 1007 967 1007 1186 1007 c 0,2,3
 1322 1006 1322 1006 1416 930 c 0,4,5
 1508 855 1508 855 1509 746 c 0,6,7
 1509 622 1509 622 1385 542 c 0,8,9
 1232 444 1232 444 877 436 c 1,10,11
 881 181 881 181 1105 181 c 0,12,13
 1216 180 1216 180 1304 232 c 0,14,15
 1338 252 1338 252 1364 268 c 128,-1,16
 1390 284 1390 284 1418 284 c 128,-1,17
 1446 284 1446 284 1466 262 c 1,18,-1
 1532 184 l 1,19,20
 1417 77 1417 77 1336 43 c 0,21,22
 1202 -15 1202 -15 1077 -15 c 0,23,24
 825 -15 825 -15 729 184 c 1,25,26
 631 36 631 36 442 -4 c 0,27,28
 387 -16 387 -16 335 -15 c 0,29,30
 177 -15 177 -15 96.5 48 c 128,-1,31
 16 111 16 111 16 228 c 0,32,33
 16 462 16 462 354 552 c 0,34,35
 478 586 478 586 663 590 c 1,36,-1
 668 625 l 1,37,38
 693 816 693 816 525 816 c 0,39,40
 440 816 440 816 354 774 c 0,41,42
 322 758 322 758 296 744.5 c 128,-1,43
 270 731 270 731 242 731 c 0,44,45
 194 731 194 731 173 776 c 2,46,-1
 137 853 l 1,47,48
 330 1010 330 1010 548.5 1010 c 128,-1,49
 767 1010 767 1010 829 856 c 1,0,1
251 257 m 0,50,51
 251 152 251 152 380 152 c 0,52,53
 540 152 540 152 608 288 c 0,54,55
 632 336 632 336 640 403 c 2,56,-1
 645 441 l 1,57,58
 331 428 331 428 270 326 c 0,59,60
 251 294 251 294 251 257 c 0,50,51
1255.5 804 m 128,-1,62
 1223 832 1223 832 1162 832 c 128,-1,63
 1101 832 1101 832 1056.5 814 c 128,-1,64
 1012 796 1012 796 978 763 c 0,65,66
 914 700 914 700 889 580 c 1,67,68
 1216 600 1216 600 1272 684 c 0,69,70
 1288 708 1288 708 1288 742 c 128,-1,61
 1288 776 1288 776 1255.5 804 c 128,-1,62
EndSplineSet
Validated: 33
EndChar

StartChar: b
Encoding: 68 98 48
Width: 1081
GlyphClass: 2
Flags: MW
LayerCount: 2
Fore
SplineSet
537 -15 m 0,0,1
 384 -15 384 -15 293 96 c 1,2,-1
 285 69 l 2,3,4
 274 34 274 34 256 17 c 128,-1,5
 238 0 238 0 196 0 c 2,6,-1
 59 0 l 1,7,-1
 232 1437 l 1,8,-1
 481 1437 l 1,9,-1
 403 802 l 1,10,11
 559 1008 559 1008 749 1008 c 0,12,13
 954 1008 954 1008 1014 800 c 0,14,15
 1034 730 1034 730 1034.5 618.5 c 128,-1,16
 1035 507 1035 507 995.5 389.5 c 128,-1,17
 956 272 956 272 888 182 c 128,-1,18
 820 92 820 92 729.5 38.5 c 128,-1,19
 639 -15 639 -15 537 -15 c 0,0,1
782 609 m 0,20,21
 782 810 782 810 651 810 c 0,22,23
 574 810 574 810 490 710 c 0,24,25
 410 613 410 613 362 465 c 1,26,-1
 334 236 l 1,27,28
 397 177 397 177 478.5 177 c 128,-1,29
 560 177 560 177 613 215 c 0,30,31
 666 252 666 252 704 314 c 0,32,33
 782 442 782 442 782 609 c 0,20,21
EndSplineSet
Validated: 33
Substitution2: "sous-table 'ordn' Ordinaux dans Latin lookup 39" b.superior
Substitution2: "sous-table 'sups' Exposant lookups25" b.superior
EndChar

StartChar: c
Encoding: 69 99 49
Width: 843
GlyphClass: 2
Flags: MW
LayerCount: 2
Fore
SplineSet
814 176 m 1,0,1
 672 20 672 20 530 -6 c 0,2,3
 478 -16 478 -16 403.5 -15.5 c 128,-1,4
 329 -15 329 -15 260.5 14.5 c 128,-1,5
 192 44 192 44 144 98 c 0,6,7
 46 211 46 211 46 401 c 0,8,9
 46 648 46 648 194 826 c 0,10,11
 288 940 288 940 426 984 c 0,12,13
 494 1006 494 1006 583 1007 c 0,14,15
 759 1007 759 1007 865 867 c 1,16,-1
 783 772 l 1,17,18
 765 747 765 747 742.5 747 c 128,-1,19
 720 747 720 747 706.5 756.5 c 128,-1,20
 693 766 693 766 676 777 c 0,21,22
 630 807 630 807 572 807 c 128,-1,23
 514 807 514 807 466 778 c 128,-1,24
 418 749 418 749 381 696 c 0,25,26
 300 580 300 580 300 400 c 0,27,28
 300 294 300 294 346.5 237.5 c 128,-1,29
 393 181 393 181 459 181 c 128,-1,30
 525 181 525 181 559 196 c 128,-1,31
 593 211 593 211 617 229 c 128,-1,32
 641 247 641 247 660.5 262 c 128,-1,33
 680 277 680 277 698 277 c 0,34,35
 730 277 730 277 749 254 c 2,36,-1
 814 176 l 1,0,1
EndSplineSet
Validated: 33
Substitution2: "sous-table 'ordn' Ordinaux dans Latin lookup 39" c.superior
Substitution2: "sous-table 'sups' Exposant lookups25" c.superior
EndChar

StartChar: ccedilla
Encoding: 166 231 50
Width: 843
GlyphClass: 2
Flags: MW
LayerCount: 2
Fore
SplineSet
462 -53 m 1,0,1
 588 -87 588 -87 588 -178 c 0,2,3
 588 -250 588 -250 518 -294 c 0,4,5
 451 -336 451 -336 344 -336 c 0,6,7
 273 -336 273 -336 214 -315 c 1,8,-1
 247 -239 l 1,9,10
 258 -217 258 -217 270.5 -217 c 128,-1,11
 283 -217 283 -217 289 -220 c 0,12,13
 294 -222 294 -222 302 -224 c 0,14,15
 334 -232 334 -232 346 -232 c 0,16,17
 368 -232 368 -232 382 -218 c 0,18,19
 396 -202 396 -202 396 -182 c 0,20,21
 396 -144 396 -144 278 -130 c 1,22,-1
 327 -6 l 1,23,24
 124 36 124 36 65 250 c 0,25,26
 46 318 46 318 46 400 c 128,-1,27
 46 482 46 482 63.5 558.5 c 128,-1,28
 81 635 81 635 114 702 c 128,-1,29
 147 769 147 769 194 826 c 0,30,31
 242 882 242 882 300 922 c 0,32,33
 423 1007 423 1007 571 1007 c 0,34,35
 759 1007 759 1007 865 867 c 1,36,-1
 783 772 l 1,37,38
 765 747 765 747 742.5 747 c 128,-1,39
 720 747 720 747 706.5 756.5 c 128,-1,40
 693 766 693 766 676 777 c 0,41,42
 630 807 630 807 572 807 c 128,-1,43
 514 807 514 807 466 778 c 128,-1,44
 418 749 418 749 381 696 c 0,45,46
 300 580 300 580 300 400 c 0,47,48
 300 294 300 294 346.5 237.5 c 128,-1,49
 393 181 393 181 459 181 c 128,-1,50
 525 181 525 181 559 196 c 128,-1,51
 593 211 593 211 617 229 c 128,-1,52
 641 247 641 247 660.5 262 c 128,-1,53
 680 277 680 277 698 277 c 0,54,55
 730 277 730 277 749 254 c 2,56,-1
 814 176 l 1,57,58
 731 84 731 84 672 50 c 0,59,60
 575 -4 575 -4 478 -12 c 1,61,-1
 462 -53 l 1,0,1
EndSplineSet
Validated: 1
EndChar

StartChar: c_h.dlig
Encoding: 2123 -1 51
Width: 1883
GlyphClass: 3
Flags: MW
LayerCount: 2
Fore
SplineSet
768 1150 m 0,0,1
 768 1002 768 1002 874 892 c 1,2,-1
 842 867 l 1,3,-1
 843 867 l 1,4,-1
 761 772 l 1,5,6
 743 747 743 747 720.5 747 c 128,-1,7
 698 747 698 747 684.5 756.5 c 128,-1,8
 671 766 671 766 654 777 c 0,9,10
 608 807 608 807 550 807 c 128,-1,11
 492 807 492 807 444 778 c 128,-1,12
 396 749 396 749 359 696 c 0,13,14
 278 580 278 580 278 400 c 0,15,16
 278 294 278 294 324.5 237.5 c 128,-1,17
 371 181 371 181 437 181 c 128,-1,18
 503 181 503 181 537 196 c 128,-1,19
 571 211 571 211 595 229 c 128,-1,20
 619 247 619 247 638.5 262 c 128,-1,21
 658 277 658 277 676 277 c 0,22,23
 708 277 708 277 727 254 c 2,24,-1
 792 176 l 1,25,26
 650 20 650 20 508 -6 c 0,27,28
 456 -16 456 -16 381.5 -15.5 c 128,-1,29
 307 -15 307 -15 238.5 14.5 c 128,-1,30
 170 44 170 44 122 98 c 0,31,32
 24 211 24 211 24 401 c 0,33,34
 24 648 24 648 172 826 c 0,35,36
 266 940 266 940 404 984 c 0,37,38
 472 1006 472 1006 546 1006.5 c 128,-1,39
 620 1007 620 1007 677 989 c 1,40,41
 653 1059 653 1059 653 1137.5 c 128,-1,42
 653 1216 653 1216 681 1285 c 128,-1,43
 709 1354 709 1354 762 1404 c 0,44,45
 876 1512 876 1512 1060 1513 c 0,46,47
 1151 1513 1151 1513 1216 1486.5 c 128,-1,48
 1281 1460 1281 1460 1311 1448 c 128,-1,49
 1341 1436 1341 1436 1372 1436 c 1,50,-1
 1278 1392 l 1,51,-1
 1210 831 l 1,52,53
 1354 1008 1354 1008 1544 1008 c 0,54,55
 1676 1008 1676 1008 1744 910 c 0,56,57
 1815 808 1815 808 1794 632 c 2,58,-1
 1719 0 l 1,59,-1
 1466 0 l 1,60,-1
 1540 632 l 1,61,62
 1552 724 1552 724 1530 763.5 c 128,-1,63
 1508 803 1508 803 1459.5 803 c 128,-1,64
 1411 803 1411 803 1371.5 782.5 c 128,-1,65
 1332 762 1332 762 1295 724 c 0,66,67
 1215 643 1215 643 1172 517 c 1,68,-1
 1110 0 l 1,69,-1
 857 0 l 1,70,-1
 1024 1386 l 1,71,72
 1004 1390 1004 1390 968.5 1390 c 128,-1,73
 933 1390 933 1390 892 1372 c 0,74,75
 852 1352 852 1352 824 1320 c 0,76,77
 768 1256 768 1256 768 1150 c 0,0,1
EndSplineSet
Validated: 33
LCarets2: 1 0
Ligature2: "sous-table 'dlig' Ligatures facultatives  dans Latin lookup 36" c h
EndChar

StartChar: c_k.dlig
Encoding: 2124 -1 52
Width: 1787
GlyphClass: 3
Flags: MW
LayerCount: 2
Fore
SplineSet
771 1148 m 0,0,1
 771 1003 771 1003 869 892 c 1,2,-1
 790 831 l 1,3,-1
 739 772 l 1,4,5
 721 747 721 747 698.5 747 c 128,-1,6
 676 747 676 747 662.5 756.5 c 128,-1,7
 649 766 649 766 632 777 c 0,8,9
 586 807 586 807 528 807 c 128,-1,10
 470 807 470 807 422 778 c 128,-1,11
 374 749 374 749 337 696 c 0,12,13
 256 580 256 580 256 400 c 0,14,15
 256 294 256 294 302.5 237.5 c 128,-1,16
 349 181 349 181 415 181 c 128,-1,17
 481 181 481 181 515 196 c 128,-1,18
 549 211 549 211 573 229 c 128,-1,19
 597 247 597 247 616.5 262 c 128,-1,20
 636 277 636 277 654 277 c 0,21,22
 686 277 686 277 705 254 c 2,23,-1
 770 176 l 1,24,25
 628 20 628 20 486 -6 c 0,26,27
 434 -16 434 -16 359.5 -15.5 c 128,-1,28
 285 -15 285 -15 216.5 14.5 c 128,-1,29
 148 44 148 44 100 98 c 0,30,31
 2 211 2 211 2 401 c 0,32,33
 2 648 2 648 150 826 c 0,34,35
 244 940 244 940 382 984 c 0,36,37
 450 1006 450 1006 512 1007 c 0,38,39
 614 1007 614 1007 682 979 c 1,40,41
 656 1054 656 1054 656 1134 c 128,-1,42
 656 1214 656 1214 683.5 1283.5 c 128,-1,43
 711 1353 711 1353 762 1404 c 0,44,45
 871 1513 871 1513 1051 1513 c 0,46,47
 1138 1513 1138 1513 1201 1486.5 c 128,-1,48
 1264 1460 1264 1460 1293.5 1448 c 128,-1,49
 1323 1436 1323 1436 1353 1436 c 1,50,-1
 1288 1405 l 1,51,-1
 1191 619 l 1,52,-1
 1214 619 l 2,53,54
 1253 619 1253 619 1281 652 c 2,55,-1
 1521 950 l 1,56,57
 1558 993 1558 993 1605 993 c 2,58,-1
 1832 993 l 1,59,-1
 1527 628 l 2,60,61
 1489 584 1489 584 1447 559 c 1,62,63
 1481 531 1481 531 1504 480 c 2,64,-1
 1728 0 l 1,65,-1
 1507 0 l 2,66,67
 1452 0 1452 0 1432 44 c 2,68,-1
 1263 414 l 2,69,70
 1252 437 1252 437 1240.5 444 c 128,-1,71
 1229 451 1229 451 1201 451 c 2,72,-1
 1170 451 l 1,73,-1
 1115 0 l 1,74,-1
 865 0 l 1,75,-1
 1034 1380 l 1,76,77
 1006 1390 1006 1390 966.5 1390 c 128,-1,78
 927 1390 927 1390 889 1372 c 0,79,80
 850 1353 850 1353 824 1320 c 0,81,82
 770 1251 770 1251 771 1148 c 0,0,1
EndSplineSet
Validated: 33
LCarets2: 1 0
Ligature2: "sous-table 'dlig' Ligatures facultatives  dans Latin lookup 36" c k
EndChar

StartChar: c_t.dlig
Encoding: 2125 -1 53
Width: 1536
GlyphClass: 3
Flags: MW
LayerCount: 2
Fore
SplineSet
1518 72 m 1,0,1
 1407 -15 1407 -15 1262 -15 c 0,2,3
 1078 -15 1078 -15 1044 146 c 0,4,5
 1034 197 1034 197 1041 261 c 2,6,-1
 1105 788 l 1,7,-1
 1019 788 l 2,8,9
 974 788 974 788 980 838 c 2,10,-1
 992 934 l 1,11,-1
 1136 960 l 1,12,-1
 1211 1145 l 1,13,-1
 1214 1152 l 1,14,15
 1259 1281 1259 1281 1223.5 1347.5 c 128,-1,16
 1188 1414 1188 1414 1086 1414 c 0,17,18
 960 1414 960 1414 866 1327 c 0,19,20
 776 1244 776 1244 756 1128 c 0,21,22
 735 1007 735 1007 812 911 c 0,23,24
 826 897 826 897 851 867 c 1,25,-1
 769 772 l 1,26,27
 751 747 751 747 728.5 747 c 128,-1,28
 706 747 706 747 692.5 756.5 c 128,-1,29
 679 766 679 766 662 777 c 0,30,31
 616 807 616 807 558 807 c 128,-1,32
 500 807 500 807 452 778 c 128,-1,33
 404 749 404 749 367 696 c 0,34,35
 286 580 286 580 286 400 c 0,36,37
 286 294 286 294 332.5 237.5 c 128,-1,38
 379 181 379 181 445 181 c 128,-1,39
 511 181 511 181 545 196 c 128,-1,40
 579 211 579 211 603 229 c 128,-1,41
 627 247 627 247 646.5 262 c 128,-1,42
 666 277 666 277 684 277 c 0,43,44
 716 277 716 277 735 254 c 2,45,-1
 800 176 l 1,46,47
 658 20 658 20 516 -6 c 0,48,49
 464 -16 464 -16 389.5 -15.5 c 128,-1,50
 315 -15 315 -15 246.5 14.5 c 128,-1,51
 178 44 178 44 130 98 c 0,52,53
 32 211 32 211 32 401 c 0,54,55
 32 648 32 648 180 826 c 0,56,57
 274 940 274 940 412 984 c 0,58,59
 480 1006 480 1006 530 1007 c 0,60,61
 602 1007 602 1007 643 999 c 1,62,63
 623 1113 623 1113 673 1233 c 0,64,65
 752 1424 752 1424 952 1490 c 0,66,67
 1020 1512 1020 1512 1105 1512.5 c 128,-1,68
 1190 1513 1190 1513 1251 1485 c 128,-1,69
 1312 1457 1312 1457 1347 1411 c 0,70,71
 1414 1323 1414 1323 1398 1186 c 1,72,-1
 1370 961 l 1,73,-1
 1601 961 l 1,74,-1
 1579 788 l 1,75,-1
 1350 788 l 1,76,-1
 1288 276 l 2,77,78
 1277 180 1277 180 1344 180 c 0,79,80
 1371 180 1371 180 1388 192 c 0,81,82
 1433 222 1433 222 1448 208 c 0,83,84
 1454 202 1454 202 1460 190 c 2,85,-1
 1518 72 l 1,0,1
EndSplineSet
Validated: 33
Ligature2: "sous-table 'dlig' Ligatures facultatives  dans Latin lookup 36" c t
EndChar

StartChar: ccedilla_t.dlig
Encoding: 2126 -1 54
Width: 1536
GlyphClass: 3
Flags: MW
LayerCount: 2
Fore
SplineSet
456 -53 m 1,0,1
 582 -87 582 -87 582 -178 c 0,2,3
 582 -250 582 -250 512 -294 c 0,4,5
 445 -336 445 -336 338 -336 c 0,6,7
 267 -336 267 -336 208 -315 c 1,8,-1
 241 -239 l 1,9,10
 252 -217 252 -217 264.5 -217 c 128,-1,11
 277 -217 277 -217 283 -220 c 0,12,13
 288 -222 288 -222 296 -224 c 0,14,15
 328 -232 328 -232 340 -232 c 0,16,17
 362 -232 362 -232 376 -218 c 0,18,19
 390 -202 390 -202 390 -182 c 0,20,21
 390 -144 390 -144 272 -130 c 1,22,-1
 319 -10 l 1,23,24
 177 12 177 12 97 121 c 128,-1,25
 17 230 17 230 17 401 c 0,26,27
 17 648 17 648 165 826 c 0,28,29
 260 940 260 940 398 984 c 0,30,31
 466 1006 466 1006 544.5 1006.5 c 128,-1,32
 623 1007 623 1007 685 983 c 1,33,34
 667 1046 667 1046 667 1116 c 128,-1,35
 667 1186 667 1186 693 1259 c 128,-1,36
 719 1332 719 1332 771 1388 c 0,37,38
 886 1512 886 1512 1077 1513 c 0,39,40
 1247 1513 1247 1513 1325 1411 c 0,41,42
 1392 1323 1392 1323 1376 1186 c 1,43,-1
 1351 984 l 1,44,-1
 1584 984 l 1,45,-1
 1562 810 l 1,46,-1
 1330 810 l 1,47,-1
 1265 277 l 1,48,49
 1255 181 1255 181 1322 181 c 0,50,51
 1350 181 1350 181 1374 197 c 128,-1,52
 1398 213 1398 213 1408 213 c 0,53,54
 1424 213 1424 213 1436 190 c 2,55,-1
 1495 72 l 1,56,57
 1382 -15 1382 -15 1249 -15 c 128,-1,58
 1116 -15 1116 -15 1059 58.5 c 128,-1,59
 1002 132 1002 132 1018 261 c 2,60,-1
 1085 810 l 1,61,-1
 1001 810 l 2,62,63
 955 810 955 810 961 862 c 2,64,-1
 973 958 l 1,65,-1
 1133 988 l 1,66,67
 1298 1328 1298 1328 1148 1399 c 0,68,69
 1116 1414 1116 1414 1057.5 1414 c 128,-1,70
 999 1414 999 1414 947 1390 c 128,-1,71
 895 1366 895 1366 858 1326 c 0,72,73
 782 1244 782 1244 782 1116.5 c 128,-1,74
 782 989 782 989 873 892 c 1,75,-1
 826 855 l 1,76,-1
 754 772 l 1,77,78
 736 747 736 747 713.5 747 c 128,-1,79
 691 747 691 747 677.5 756.5 c 128,-1,80
 664 766 664 766 647 777 c 0,81,82
 601 807 601 807 543 807 c 128,-1,83
 485 807 485 807 437 778 c 128,-1,84
 389 749 389 749 352 696 c 0,85,86
 271 580 271 580 271 400 c 0,87,88
 271 294 271 294 317.5 237.5 c 128,-1,89
 364 181 364 181 430 181 c 128,-1,90
 496 181 496 181 530 196 c 128,-1,91
 564 211 564 211 588 229 c 128,-1,92
 612 247 612 247 632 262 c 128,-1,94
 652 277 652 277 670 277 c 0,95,96
 702 277 702 277 720 254 c 2,97,-1
 785 176 l 1,98,99
 704 87 704 87 650 54 c 0,100,101
 563 2 563 2 472 -10 c 1,102,-1
 456 -53 l 1,0,1
EndSplineSet
Validated: 33
LCarets2: 1 0
Ligature2: "sous-table 'dlig' Ligatures facultatives  dans Latin lookup 36" ccedilla t
EndChar

StartChar: d
Encoding: 70 100 55
Width: 1081
GlyphClass: 2
Flags: MW
LayerCount: 2
Fore
SplineSet
761 920 m 1,0,-1
 825 1437 l 1,1,-1
 1074 1437 l 1,2,-1
 896 0 l 1,3,-1
 761 0 l 2,4,5
 674 0 674 0 679 84 c 2,6,-1
 685 210 l 1,7,8
 527 -15 527 -15 326 -15 c 0,9,10
 122 -15 122 -15 62 193 c 0,11,12
 42 264 42 264 41.5 354.5 c 128,-1,13
 41 445 41 445 59 526 c 128,-1,14
 77 607 77 607 109.5 679 c 128,-1,15
 142 751 142 751 188 811.5 c 128,-1,16
 234 872 234 872 289 916 c 0,17,18
 406 1008 406 1008 538.5 1008 c 128,-1,19
 671 1008 671 1008 761 920 c 1,0,-1
293 385 m 0,20,21
 293 184 293 184 425 184 c 0,22,23
 504 184 504 184 586 286 c 0,24,25
 665 384 665 384 713 533 c 1,26,-1
 741 757 l 1,27,28
 678 816 678 816 596.5 816 c 128,-1,29
 515 816 515 816 462.5 778 c 128,-1,30
 410 740 410 740 372 679 c 0,31,32
 293 552 293 552 293 385 c 0,20,21
EndSplineSet
Validated: 33
Substitution2: "sous-table 'ordn' Ordinaux dans Latin lookup 39" d.superior
Substitution2: "sous-table 'sups' Exposant lookups25" d.superior
EndChar

StartChar: dcaron
Encoding: 206 271 56
Width: 1205
GlyphClass: 2
Flags: MW
LayerCount: 2
Fore
SplineSet
818 920 m 1,0,-1
 882 1437 l 1,1,-1
 1131 1437 l 1,2,-1
 953 0 l 1,3,-1
 818 0 l 2,4,5
 731 0 731 0 736 84 c 2,6,-1
 742 210 l 1,7,8
 584 -15 584 -15 383 -15 c 0,9,10
 178 -15 178 -15 118 193 c 0,11,12
 98 264 98 264 98 354.5 c 128,-1,13
 98 445 98 445 116 526 c 128,-1,14
 134 607 134 607 166.5 679 c 128,-1,15
 199 751 199 751 245 811.5 c 128,-1,16
 291 872 291 872 346 916 c 0,17,18
 463 1008 463 1008 595.5 1008 c 128,-1,19
 728 1008 728 1008 818 920 c 1,0,-1
350 385 m 0,20,21
 350 184 350 184 482 184 c 0,22,23
 562 184 562 184 644 286 c 0,24,25
 723 384 723 384 770 533 c 1,26,-1
 798 757 l 1,27,28
 735 816 735 816 653.5 816 c 128,-1,29
 572 816 572 816 519.5 778 c 128,-1,30
 467 740 467 740 429 679 c 0,31,32
 350 552 350 552 350 385 c 0,20,21
1423 1437 m 2,33,34
 1461 1437 1461 1437 1461 1407 c 0,35,36
 1461 1378 1461 1378 1419 1300.5 c 128,-1,37
 1377 1223 1377 1223 1348 1170 c 128,-1,38
 1319 1117 1319 1117 1298 1109.5 c 128,-1,39
 1277 1102 1277 1102 1245 1102 c 2,40,-1
 1159 1102 l 1,41,-1
 1260 1437 l 1,42,-1
 1423 1437 l 2,33,34
EndSplineSet
Validated: 33
EndChar

StartChar: dcroat
Encoding: 208 273 57
Width: 1160
GlyphClass: 2
Flags: MW
LayerCount: 2
Fore
SplineSet
840 887 m 1,0,-1
 864 1091 l 1,1,-1
 719 1091 l 2,2,3
 668 1091 668 1091 649.5 1111 c 128,-1,4
 631 1131 631 1131 638 1177 c 2,5,-1
 647 1242 l 1,6,-1
 882 1242 l 1,7,-1
 906 1437 l 1,8,-1
 1155 1437 l 1,9,-1
 1131 1242 l 1,10,-1
 1271 1242 l 1,11,-1
 1256 1091 l 1,12,-1
 1112 1091 l 1,13,-1
 978 0 l 1,14,-1
 844 0 l 2,15,16
 758 0 758 0 760 84 c 1,17,-1
 771 229 l 1,18,19
 592 -15 592 -15 362 -15 c 0,20,21
 131 -14 131 -14 67 198 c 0,22,23
 45 271 45 271 45 360 c 0,24,25
 45 451 45 451 64 529 c 128,-1,26
 83 607 83 607 118 675 c 128,-1,27
 153 743 153 743 202.5 799 c 128,-1,28
 252 855 252 855 312 895 c 0,29,30
 438 979 438 979 586.5 979 c 128,-1,31
 735 979 735 979 840 887 c 1,0,-1
820 725 m 1,32,33
 749 785 749 785 651 785 c 128,-1,34
 553 785 553 785 491.5 752.5 c 128,-1,35
 430 720 430 720 386 666 c 0,36,37
 296 553 296 553 296 390 c 0,38,39
 296 284 296 284 339 234 c 128,-1,40
 382 184 382 184 443.5 184 c 128,-1,41
 505 184 505 184 555 212 c 0,42,43
 604 240 604 240 650 290 c 0,44,45
 746 394 746 394 799 548 c 1,46,-1
 820 725 l 1,32,33
EndSplineSet
Validated: 33
EndChar

StartChar: eth
Encoding: 175 240 58
Width: 1099
GlyphClass: 2
Flags: MW
LayerCount: 2
Fore
SplineSet
853 751 m 1,0,1
 841 956 841 956 704 1068 c 1,2,-1
 491 941 l 1,3,-1
 444 1022 l 2,4,5
 433 1041 433 1041 438 1058.5 c 128,-1,6
 443 1076 443 1076 457 1084 c 2,7,-1
 569 1151 l 1,8,9
 503 1180 503 1180 439 1199 c 128,-1,10
 375 1218 375 1218 367.5 1244 c 128,-1,11
 360 1270 360 1270 377 1305 c 2,12,-1
 414 1383 l 1,13,14
 627 1347 627 1347 770 1249 c 1,15,-1
 959 1360 l 1,16,-1
 1002 1279 l 1,17,18
 1022 1235 1022 1235 984 1211 c 1,19,-1
 884 1153 l 1,20,21
 1051 971 1051 971 1051 689 c 0,22,23
 1052 362 1052 362 900 176 c 0,24,25
 746 -13 746 -13 471 -14 c 0,26,27
 283 -14 283 -14 167 96 c 0,28,29
 49 209 49 209 49 398 c 0,30,31
 49 606 49 606 191 752 c 0,32,33
 336 900 336 900 541.5 900 c 128,-1,34
 747 900 747 900 853 751 c 1,0,1
807 544 m 1,35,36
 754 713 754 713 579 713 c 0,37,38
 447 713 447 713 368 625 c 0,39,40
 292 541 292 541 292 407 c 0,41,42
 292 240 292 240 416 187 c 0,43,44
 454 171 454 171 503.5 171 c 128,-1,45
 553 171 553 171 602 190 c 0,46,47
 652 209 652 209 692 253 c 0,48,49
 780 348 780 348 807 544 c 1,35,36
EndSplineSet
Validated: 33
EndChar

StartChar: e
Encoding: 71 101 59
Width: 1006
GlyphClass: 2
Flags: MW
LayerCount: 2
Fore
SplineSet
964 744 m 0,0,1
 964 688 964 688 934 634 c 0,2,3
 905 580 905 580 830 536 c 0,4,5
 679 447 679 447 297 412 c 1,6,7
 297 294 297 294 352.5 237.5 c 128,-1,8
 408 181 408 181 501 181 c 128,-1,9
 594 181 594 181 640.5 197 c 128,-1,10
 687 213 687 213 720 232.5 c 128,-1,11
 753 252 753 252 778.5 268 c 128,-1,12
 804 284 804 284 833 284 c 128,-1,13
 862 284 862 284 881 262 c 2,14,-1
 947 184 l 1,15,16
 832 78 832 78 752 43 c 0,17,18
 619 -15 619 -15 498.5 -15 c 128,-1,19
 378 -15 378 -15 300 15 c 0,20,21
 222 44 222 44 166 100 c 0,22,23
 50 216 50 216 49 407 c 0,24,25
 48 651 48 651 204 824 c 0,26,27
 368 1007 368 1007 621 1007 c 0,28,29
 784 1008 784 1008 878 926 c 0,30,31
 964 854 964 854 964 744 c 0,0,1
667 823.5 m 128,-1,33
 643 831 643 831 599 831 c 128,-1,34
 555 831 555 831 508.5 812.5 c 128,-1,35
 462 794 462 794 425 760 c 0,36,37
 351 693 351 693 318 575 c 1,38,39
 673 618 673 618 721 696 c 0,40,41
 736 720 736 720 736 741.5 c 128,-1,42
 736 763 736 763 729 777.5 c 128,-1,43
 722 792 722 792 706.5 804 c 128,-1,32
 691 816 691 816 667 823.5 c 128,-1,33
EndSplineSet
Validated: 33
Substitution2: "sous-table 'ordn' Ordinaux dans Latin lookup 39" e.superior
Substitution2: "sous-table 'sups' Exposant lookups25" e.superior
EndChar

StartChar: eogonek
Encoding: 216 281 60
Width: 1006
GlyphClass: 2
Flags: MW
LayerCount: 2
Fore
SplineSet
310 -207 m 0,0,1
 310 -99 310 -99 437 -14 c 1,2,3
 260 -2 260 -2 155 111 c 0,4,5
 49 225 49 225 49 407 c 0,6,7
 48 651 48 651 204 824 c 0,8,9
 368 1007 368 1007 621 1007 c 0,10,11
 784 1008 784 1008 878 926 c 0,12,13
 964 853 964 853 964 754 c 0,14,15
 964 614 964 614 830 536 c 0,16,17
 676 447 676 447 297 412 c 1,18,19
 297 294 297 294 352.5 237.5 c 128,-1,20
 408 181 408 181 501 181 c 128,-1,21
 594 181 594 181 640.5 197 c 128,-1,22
 687 213 687 213 720 232.5 c 128,-1,23
 753 252 753 252 778.5 268 c 128,-1,24
 804 284 804 284 833 284 c 128,-1,25
 862 284 862 284 881 262 c 2,26,-1
 947 184 l 1,27,28
 774 23 774 23 595 -6 c 1,29,30
 499 -62 499 -62 499 -139 c 0,31,32
 499 -162 499 -162 512 -177 c 128,-1,33
 525 -192 525 -192 544.5 -192 c 128,-1,34
 564 -192 564 -192 574 -190 c 128,-1,35
 584 -188 584 -188 591 -185 c 128,-1,36
 598 -182 598 -182 602 -180 c 128,-1,37
 606 -178 606 -178 611 -178 c 0,38,39
 627 -178 627 -178 632 -194 c 2,40,-1
 656 -285 l 1,41,42
 581 -334 581 -334 488 -334 c 128,-1,43
 395 -334 395 -334 352.5 -298 c 128,-1,44
 310 -262 310 -262 310 -207 c 0,0,1
667 823.5 m 128,-1,46
 643 831 643 831 599 831 c 128,-1,47
 555 831 555 831 508.5 812.5 c 128,-1,48
 462 794 462 794 425 760 c 0,49,50
 351 693 351 693 318 575 c 1,51,52
 673 618 673 618 721 696 c 0,53,54
 736 720 736 720 736 741.5 c 128,-1,55
 736 763 736 763 729 777.5 c 128,-1,56
 722 792 722 792 706.5 804 c 128,-1,45
 691 816 691 816 667 823.5 c 128,-1,46
EndSplineSet
Validated: 33
EndChar

StartChar: f
Encoding: 72 102 61
Width: 648
GlyphClass: 2
Flags: MW
LayerCount: 2
Fore
SplineSet
435 806 m 1,0,-1
 343 42 l 1,1,-1
 291 -135 l 1,2,3
 262 -238 262 -238 163 -238 c 2,4,-1
 60 -238 l 1,5,-1
 187 806 l 1,6,-1
 108 821 l 2,7,8
 50 833 50 833 57 883 c 1,9,-1
 69 986 l 1,10,-1
 209 986 l 1,11,-1
 218 1055 l 1,12,13
 238 1224 238 1224 354 1324 c 0,14,15
 469 1422 469 1422 638 1423 c 0,16,17
 700 1423 700 1423 759 1405 c 1,18,-1
 736 1274 l 2,19,20
 731 1251 731 1251 708 1246 c 128,-1,21
 685 1241 685 1241 650 1241 c 128,-1,22
 615 1241 615 1241 581 1231 c 0,23,24
 548 1221 548 1221 522 1198 c 0,25,26
 469 1150 469 1150 457 1047 c 2,27,-1
 450 986 l 1,28,-1
 681 986 l 1,29,-1
 659 806 l 1,30,-1
 435 806 l 1,0,-1
EndSplineSet
Validated: 33
Substitution2: "sous-table 'ordn' Ordinaux dans Latin lookup 39" f.superior
Substitution2: "sous-table 'sups' Exposant lookups25" f.superior
EndChar

StartChar: f_b.liga
Encoding: 2127 -1 62
Width: 1713
GlyphClass: 3
Flags: MW
LayerCount: 2
Fore
SplineSet
1184 -15 m 0,0,1
 1031 -15 1031 -15 940 96 c 1,2,-1
 932 69 l 2,3,4
 921 34 921 34 903 17 c 128,-1,5
 885 0 885 0 843 0 c 2,6,-1
 706 0 l 1,7,-1
 860 1285 l 1,8,9
 808 1301 808 1301 753.5 1301 c 128,-1,10
 699 1301 699 1301 654 1282 c 0,11,12
 608 1264 608 1264 575 1230 c 0,13,14
 507 1160 507 1160 495 1048 c 1,15,-1
 487 984 l 1,16,-1
 725 984 l 1,17,-1
 704 810 l 1,18,-1
 473 810 l 1,19,-1
 374 0 l 1,20,-1
 130 0 l 1,21,-1
 229 810 l 1,22,-1
 154 824 l 2,23,24
 92 835 92 835 99 885 c 1,25,-1
 111 984 l 1,26,-1
 250 984 l 1,27,-1
 258 1048 l 2,28,29
 294 1341 294 1341 564 1429 c 0,30,31
 660 1460 660 1460 745 1460 c 128,-1,32
 830 1460 830 1460 866 1457 c 0,33,34
 904 1454 904 1454 940 1450 c 0,35,36
 1048 1438 1048 1438 1104 1437 c 1,37,-1
 1128 1437 l 1,38,-1
 1128 1436 l 1,39,-1
 1162 1436 l 1,40,-1
 1124 1410 l 1,41,-1
 1050 802 l 1,42,43
 1206 1008 1206 1008 1396 1008 c 0,44,45
 1602 1008 1602 1008 1662 800 c 0,46,47
 1682 730 1682 730 1682 618.5 c 128,-1,48
 1682 507 1682 507 1642.5 389.5 c 128,-1,49
 1603 272 1603 272 1535 182 c 128,-1,50
 1467 92 1467 92 1376.5 38.5 c 128,-1,51
 1286 -15 1286 -15 1184 -15 c 0,0,1
1429 609 m 0,52,53
 1429 810 1429 810 1298 810 c 0,54,55
 1220 810 1220 810 1136 710 c 0,56,57
 1056 613 1056 613 1009 465 c 1,58,-1
 981 236 l 1,59,60
 1044 177 1044 177 1125.5 177 c 128,-1,61
 1207 177 1207 177 1260 215 c 0,62,63
 1312 252 1312 252 1350 314 c 0,64,65
 1428 442 1428 442 1429 609 c 0,52,53
EndSplineSet
Validated: 33
LCarets2: 1 0
Ligature2: "sous-table 'liga' Ligatures standard dans Latin lookup 37" f b
EndChar

StartChar: f_f_b.liga
Encoding: 2128 -1 63
Width: 2296
GlyphClass: 3
Flags: MW
LayerCount: 2
Fore
SplineSet
1448 1286 m 1,0,1
 1394 1301 1394 1301 1342.5 1301 c 128,-1,2
 1291 1301 1291 1301 1246 1282 c 0,3,4
 1202 1264 1202 1264 1170 1230 c 0,5,6
 1104 1160 1104 1160 1089 1048 c 2,7,-1
 1081 984 l 1,8,-1
 1318 984 l 1,9,-1
 1296 810 l 1,10,-1
 1068 810 l 1,11,-1
 969 0 l 1,12,-1
 723 0 l 1,13,-1
 822 810 l 1,14,-1
 472 810 l 1,15,-1
 373 0 l 1,16,-1
 128 0 l 1,17,-1
 228 810 l 1,18,-1
 154 824 l 2,19,20
 92 835 92 835 99 885 c 1,21,-1
 111 984 l 1,22,-1
 249 984 l 1,23,-1
 256 1038 l 1,24,25
 276 1208 276 1208 384 1306 c 128,-1,26
 492 1404 492 1404 660 1404 c 0,27,28
 723 1404 723 1404 779 1386 c 1,29,-1
 760 1264 l 2,30,31
 755 1235 755 1235 731.5 1228 c 128,-1,32
 708 1221 708 1221 674.5 1221 c 128,-1,33
 641 1221 641 1221 609 1211.5 c 128,-1,34
 577 1202 577 1202 553 1180 c 0,35,36
 505 1136 505 1136 491 1031 c 2,37,-1
 485 984 l 1,38,-1
 844 984 l 1,39,-1
 852 1048 l 2,40,41
 888 1341 888 1341 1158 1429 c 0,42,43
 1252 1460 1252 1460 1337 1460 c 128,-1,44
 1422 1460 1422 1460 1458 1457 c 128,-1,45
 1494 1454 1494 1454 1530 1450 c 0,46,47
 1638 1438 1638 1438 1694 1437 c 1,48,-1
 1715 1437 l 1,49,-1
 1715 1436 l 1,50,-1
 1753 1436 l 1,51,-1
 1711 1407 l 1,52,-1
 1637 802 l 1,53,54
 1793 1008 1793 1008 1983 1008 c 0,55,56
 2188 1008 2188 1008 2248 800 c 0,57,58
 2268 730 2268 730 2268.5 618.5 c 128,-1,59
 2269 507 2269 507 2229.5 389.5 c 128,-1,60
 2190 272 2190 272 2122 182 c 128,-1,61
 2054 92 2054 92 1963.5 38.5 c 128,-1,62
 1873 -15 1873 -15 1771 -15 c 0,63,64
 1618 -15 1618 -15 1527 96 c 1,65,-1
 1519 69 l 2,66,67
 1508 34 1508 34 1490 17 c 128,-1,68
 1472 0 1472 0 1430 0 c 2,69,-1
 1293 0 l 1,70,-1
 1448 1286 l 1,0,1
2016 609 m 0,71,72
 2016 810 2016 810 1885 810 c 0,73,74
 1808 810 1808 810 1724 710 c 0,75,76
 1644 613 1644 613 1596 465 c 1,77,-1
 1568 236 l 1,78,79
 1631 177 1631 177 1712.5 177 c 128,-1,80
 1794 177 1794 177 1847 215 c 0,81,82
 1900 252 1900 252 1938 314 c 0,83,84
 2016 442 2016 442 2016 609 c 0,71,72
EndSplineSet
Validated: 33
LCarets2: 2 0 0
Ligature2: "sous-table 'liga' Ligatures standard dans Latin lookup 37" f f b
EndChar

StartChar: uniFB00
Encoding: 2111 64256 64
Width: 1230
GlyphClass: 3
Flags: MW
LayerCount: 2
Fore
SplineSet
127 0 m 1,0,-1
 226 810 l 1,1,-1
 153 824 l 2,2,3
 92 835 92 835 99 885 c 1,4,-1
 111 984 l 1,5,-1
 247 984 l 1,6,-1
 254 1038 l 1,7,8
 274 1208 274 1208 381.5 1306 c 128,-1,9
 489 1404 489 1404 655 1404 c 0,10,11
 716 1404 716 1404 774 1386 c 1,12,-1
 754 1264 l 2,13,14
 749 1235 749 1235 726 1228 c 128,-1,15
 703 1221 703 1221 669.5 1221 c 128,-1,16
 636 1221 636 1221 605 1211.5 c 128,-1,17
 574 1202 574 1202 550 1180 c 0,18,19
 502 1135 502 1135 489 1031 c 2,20,-1
 483 984 l 1,21,-1
 836 984 l 1,22,-1
 847 1071 l 1,23,24
 867 1241 867 1241 975 1339.5 c 128,-1,25
 1083 1438 1083 1438 1248 1438 c 0,26,27
 1308 1438 1308 1438 1367 1419 c 1,28,-1
 1347 1297 l 2,29,30
 1342 1268 1342 1268 1319 1260.5 c 128,-1,31
 1296 1253 1296 1253 1263.5 1253 c 128,-1,32
 1231 1253 1231 1253 1199.5 1244 c 128,-1,33
 1168 1235 1168 1235 1144 1213 c 0,34,35
 1096 1168 1096 1168 1083 1063 c 2,36,-1
 1073 984 l 1,37,-1
 1306 984 l 1,38,-1
 1284 810 l 1,39,-1
 1060 810 l 1,40,-1
 961 0 l 1,41,-1
 715 0 l 1,42,-1
 815 810 l 1,43,-1
 470 810 l 1,44,-1
 371 0 l 1,45,-1
 127 0 l 1,0,-1
EndSplineSet
Validated: 33
Ligature2: "sous-table 'liga' Ligatures standard dans Latin lookup 37" f f
EndChar

StartChar: f_h.liga
Encoding: 2129 -1 65
Width: 1711
GlyphClass: 3
Flags: MW
LayerCount: 2
Fore
SplineSet
1077 831 m 1,0,1
 1221 1008 1221 1008 1411 1008 c 0,2,3
 1544 1008 1544 1008 1612 910 c 0,4,5
 1683 808 1683 808 1661 632 c 2,6,-1
 1586 0 l 1,7,-1
 1333 0 l 1,8,-1
 1407 632 l 1,9,10
 1419 724 1419 724 1397 763.5 c 128,-1,11
 1375 803 1375 803 1326.5 803 c 128,-1,12
 1278 803 1278 803 1238.5 782.5 c 128,-1,13
 1199 762 1199 762 1162 724 c 0,14,15
 1082 643 1082 643 1039 517 c 1,16,-1
 977 0 l 1,17,-1
 724 0 l 1,18,-1
 878 1280 l 1,19,20
 817 1301 817 1301 758.5 1301 c 128,-1,21
 700 1301 700 1301 654 1282 c 0,22,23
 610 1264 610 1264 576 1230 c 0,24,25
 508 1162 508 1162 495 1048 c 1,26,-1
 487 984 l 1,27,-1
 726 984 l 1,28,-1
 705 810 l 1,29,-1
 473 810 l 1,30,-1
 374 0 l 1,31,-1
 130 0 l 1,32,-1
 229 810 l 1,33,-1
 154 824 l 2,34,35
 92 835 92 835 99 885 c 1,36,-1
 111 984 l 1,37,-1
 250 984 l 1,38,-1
 258 1048 l 2,39,40
 294 1341 294 1341 565 1429 c 0,41,42
 660 1460 660 1460 745.5 1460 c 128,-1,43
 831 1460 831 1460 867.5 1457 c 128,-1,44
 904 1454 904 1454 940 1450 c 0,45,46
 1048 1438 1048 1438 1105 1437 c 1,47,-1
 1151 1437 l 1,48,-1
 1151 1436 l 1,49,-1
 1163 1436 l 1,50,-1
 1150 1427 l 1,51,-1
 1077 831 l 1,0,1
EndSplineSet
Validated: 33
LCarets2: 1 0
Ligature2: "sous-table 'liga' Ligatures standard dans Latin lookup 37" f h
EndChar

StartChar: f_f_h.liga
Encoding: 2130 -1 66
Width: 2293
GlyphClass: 3
Flags: MW
LayerCount: 2
Fore
SplineSet
1456 1283 m 1,0,1
 1398 1301 1398 1301 1343.5 1301 c 128,-1,2
 1289 1301 1289 1301 1245 1282 c 0,3,4
 1201 1264 1201 1264 1168 1230 c 0,5,6
 1103 1164 1103 1164 1088 1048 c 2,7,-1
 1080 984 l 1,8,-1
 1316 984 l 1,9,-1
 1295 810 l 1,10,-1
 1067 810 l 1,11,-1
 968 0 l 1,12,-1
 722 0 l 1,13,-1
 821 810 l 1,14,-1
 471 810 l 1,15,-1
 372 0 l 1,16,-1
 128 0 l 1,17,-1
 227 810 l 1,18,-1
 154 824 l 2,19,20
 92 835 92 835 99 885 c 1,21,-1
 111 984 l 1,22,-1
 248 984 l 1,23,-1
 255 1038 l 1,24,25
 275 1207 275 1207 384 1306 c 0,26,27
 492 1404 492 1404 659 1404 c 0,28,29
 721 1404 721 1404 779 1386 c 1,30,-1
 759 1264 l 2,31,32
 754 1235 754 1235 730.5 1228 c 128,-1,33
 707 1221 707 1221 674 1221 c 128,-1,34
 641 1221 641 1221 609 1211.5 c 128,-1,35
 577 1202 577 1202 553 1180 c 0,36,37
 503 1135 503 1135 490 1031 c 2,38,-1
 484 984 l 1,39,-1
 843 984 l 1,40,-1
 851 1048 l 2,41,42
 886 1341 886 1341 1156 1429 c 0,43,44
 1250 1460 1250 1460 1335 1460 c 128,-1,45
 1420 1460 1420 1460 1456 1457 c 128,-1,46
 1492 1454 1492 1454 1528 1450 c 0,47,48
 1636 1438 1636 1438 1692 1437 c 1,49,-1
 1729 1437 l 1,50,-1
 1729 1436 l 1,51,-1
 1751 1436 l 1,52,-1
 1727 1419 l 1,53,-1
 1655 831 l 1,54,55
 1799 1008 1799 1008 1989 1008 c 0,56,57
 2122 1008 2122 1008 2190 910 c 0,58,59
 2261 808 2261 808 2239 632 c 2,60,-1
 2164 0 l 1,61,-1
 1911 0 l 1,62,-1
 1985 632 l 1,63,64
 1997 724 1997 724 1975 763.5 c 128,-1,65
 1953 803 1953 803 1904.5 803 c 128,-1,66
 1856 803 1856 803 1816.5 782.5 c 128,-1,67
 1777 762 1777 762 1740 724 c 0,68,69
 1660 643 1660 643 1617 517 c 1,70,-1
 1555 0 l 1,71,-1
 1302 0 l 1,72,-1
 1456 1283 l 1,0,1
EndSplineSet
Validated: 33
Ligature2: "sous-table 'liga' Ligatures standard dans Latin lookup 37" f f h
EndChar

StartChar: uniFB01
Encoding: 2112 64257 67
Width: 1135
GlyphClass: 3
Flags: MW
LayerCount: 2
Fore
SplineSet
446 986 m 1,0,-1
 1049 986 l 1,1,-1
 929 0 l 1,2,-1
 680 0 l 1,3,-1
 779 806 l 1,4,-1
 434 806 l 1,5,-1
 341 41 l 1,6,-1
 289 -136 l 1,7,8
 260 -240 260 -240 160 -240 c 2,9,-1
 58 -240 l 1,10,-1
 186 806 l 1,11,-1
 110 820 l 2,12,13
 49 831 49 831 56 880 c 1,14,-1
 66 986 l 1,15,-1
 208 986 l 1,16,-1
 212 1013 l 1,17,18
 234 1204 234 1204 368 1317 c 0,19,20
 512 1439 512 1439 753 1439 c 0,21,22
 852 1439 852 1439 912 1421 c 1,23,-1
 888 1294 l 2,24,25
 883 1271 883 1271 859.5 1266.5 c 128,-1,26
 836 1262 836 1262 773.5 1262 c 128,-1,27
 711 1262 711 1262 647 1246 c 0,28,29
 583 1232 583 1232 542 1200 c 0,30,31
 466 1141 466 1141 449 1008 c 1,32,-1
 446 986 l 1,0,-1
EndSplineSet
Validated: 33
LCarets2: 1 0
Ligature2: "sous-table 'liga' Ligatures standard dans Latin lookup 37" f i
EndChar

StartChar: f_igrave.liga
Encoding: 2131 -1 68
Width: 1135
GlyphClass: 3
Flags: MW
LayerCount: 2
Fore
SplineSet
584 1409 m 0,0,1
 688 1442 688 1442 796 1442 c 128,-1,2
 904 1442 904 1442 942 1419 c 128,-1,3
 980 1396 980 1396 995 1361 c 2,4,-1
 1098 1126 l 1,5,-1
 958 1126 l 2,6,7
 911 1126 911 1126 882 1161 c 2,8,-1
 798 1263 l 1,9,10
 578 1254 578 1254 518 1114 c 0,11,12
 498 1068 498 1068 492 1006 c 1,13,-1
 489 984 l 1,14,-1
 1089 984 l 1,15,-1
 968 0 l 1,16,-1
 723 0 l 1,17,-1
 822 810 l 1,18,-1
 476 810 l 1,19,-1
 377 0 l 1,20,-1
 132 0 l 1,21,-1
 231 810 l 1,22,-1
 154 824 l 2,23,24
 92 836 92 836 99 885 c 1,25,-1
 111 984 l 1,26,-1
 252 984 l 1,27,-1
 256 1014 l 1,28,29
 292 1317 292 1317 584 1409 c 0,0,1
EndSplineSet
Validated: 33
Ligature2: "sous-table 'liga' Ligatures standard dans Latin lookup 37" f igrave
EndChar

StartChar: f_icircumflex.liga
Encoding: 2132 -1 69
Width: 1135
GlyphClass: 3
Flags: MW
LayerCount: 2
Fore
SplineSet
132 0 m 1,0,-1
 231 810 l 1,1,-1
 154 824 l 2,2,3
 92 836 92 836 99 885 c 1,4,-1
 111 984 l 1,5,-1
 252 984 l 1,6,-1
 266 1097 l 2,7,8
 286 1255 286 1255 373 1342 c 128,-1,9
 460 1429 460 1429 603 1429 c 0,10,11
 654 1429 654 1429 689 1418 c 1,12,-1
 674 1285 l 2,13,14
 671 1253 671 1253 618.5 1253 c 128,-1,15
 566 1253 566 1253 539.5 1216.5 c 128,-1,16
 513 1180 513 1180 503 1097 c 2,17,-1
 489 984 l 1,18,-1
 1088 984 l 1,19,-1
 968 0 l 1,20,-1
 723 0 l 1,21,-1
 821 810 l 1,22,-1
 475 810 l 1,23,-1
 376 0 l 1,24,-1
 132 0 l 1,0,-1
1317 1127 m 1,25,-1
 1155 1127 l 2,26,27
 1124 1127 1124 1127 1109 1145 c 2,28,-1
 1034 1233 l 2,29,30
 1030 1238 1030 1238 1025.5 1243 c 128,-1,31
 1021 1248 1021 1248 1016 1254 c 1,32,33
 1004 1242 1004 1242 994 1234 c 2,34,-1
 896 1145 l 2,35,36
 875 1127 875 1127 845 1127 c 2,37,-1
 676 1127 l 1,38,-1
 915 1397 l 1,39,-1
 1145 1397 l 1,40,-1
 1317 1127 l 1,25,-1
EndSplineSet
Validated: 33
Ligature2: "sous-table 'liga' Ligatures standard dans Latin lookup 37" f icircumflex
EndChar

StartChar: f_itilde.liga
Encoding: 2133 -1 70
Width: 1153
GlyphClass: 3
Flags: MW
LayerCount: 2
Fore
SplineSet
1130 1314 m 0,0,1
 1181 1314 1181 1314 1192 1387 c 1,2,-1
 1339 1387 l 1,3,4
 1328 1280 1328 1280 1264 1212 c 0,5,6
 1203 1146 1203 1146 1118 1146 c 0,7,8
 1062 1146 1062 1146 1000 1192 c 0,9,10
 984 1204 984 1204 970 1211 c 1,11,12
 946 1173 946 1173 937 1097 c 2,13,-1
 923 984 l 1,14,-1
 1522 984 l 1,15,-1
 1402 0 l 1,16,-1
 1157 0 l 1,17,-1
 1255 810 l 1,18,-1
 909 810 l 1,19,-1
 810 0 l 1,20,-1
 566 0 l 1,21,-1
 665 810 l 1,22,-1
 588 824 l 2,23,24
 526 836 526 836 533 885 c 1,25,-1
 545 984 l 1,26,-1
 686 984 l 1,27,-1
 700 1097 l 2,28,29
 720 1255 720 1255 807 1342 c 128,-1,30
 894 1429 894 1429 1037 1429 c 0,31,32
 1088 1429 1088 1429 1123 1418 c 1,33,-1
 1111 1318 l 1,34,35
 1120 1314 1120 1314 1130 1314 c 0,0,1
EndSplineSet
Validated: 33
Ligature2: "sous-table 'liga' Ligatures standard dans Latin lookup 37" f itilde
EndChar

StartChar: f_idieresis.liga
Encoding: 2134 -1 71
Width: 1153
GlyphClass: 3
Flags: MW
LayerCount: 2
Fore
SplineSet
742 1345 m 1,0,1
 785 1384 785 1384 839 1384 c 256,2,3
 891 1384 891 1384 917 1358 c 0,4,5
 962 1313 962 1313 962 1272.5 c 128,-1,6
 962 1232 962 1232 949 1206 c 128,-1,7
 936 1180 936 1180 915 1160 c 0,8,9
 871 1118 871 1118 809 1117 c 0,10,11
 760 1116 760 1116 734 1142 c 0,12,13
 690 1186 690 1186 690 1235 c 2,14,-1
 690 1244 l 2,15,16
 690 1248 690 1248 691 1253 c 1,17,-1
 679 1253 l 2,18,19
 627 1253 627 1253 600.5 1216.5 c 128,-1,20
 574 1180 574 1180 564 1097 c 2,21,-1
 550 984 l 1,22,-1
 1149 984 l 1,23,-1
 1029 0 l 1,24,-1
 784 0 l 1,25,-1
 882 810 l 1,26,-1
 536 810 l 1,27,-1
 437 0 l 1,28,-1
 193 0 l 1,29,-1
 292 810 l 1,30,-1
 215 824 l 2,31,32
 153 836 153 836 160 885 c 1,33,-1
 172 984 l 1,34,-1
 313 984 l 1,35,-1
 327 1097 l 2,36,37
 347 1255 347 1255 434 1342 c 128,-1,38
 521 1429 521 1429 664 1429 c 0,39,40
 715 1429 715 1429 750 1418 c 1,41,-1
 742 1345 l 1,0,1
1287 1309.5 m 128,-1,43
 1296 1287 1296 1287 1296 1259.5 c 128,-1,44
 1296 1232 1296 1232 1284 1206 c 0,45,46
 1271 1180 1271 1180 1250 1160 c 0,47,48
 1206 1118 1206 1118 1145 1117 c 0,49,50
 1095 1116 1095 1116 1068 1142 c 0,51,52
 1024 1185 1024 1185 1024 1225.5 c 128,-1,53
 1024 1266 1024 1266 1036.5 1293 c 128,-1,54
 1049 1320 1049 1320 1070 1340 c 0,55,56
 1116 1384 1116 1384 1175 1384 c 0,57,58
 1228 1384 1228 1384 1253 1358 c 128,-1,42
 1278 1332 1278 1332 1287 1309.5 c 128,-1,43
EndSplineSet
Validated: 33
LCarets2: 1 0
Ligature2: "sous-table 'liga' Ligatures standard dans Latin lookup 37" f idieresis
EndChar

StartChar: f_imacron.liga
Encoding: 2135 -1 72
Width: 1153
GlyphClass: 3
Flags: MW
LayerCount: 2
Fore
SplineSet
132 0 m 1,0,-1
 231 810 l 1,1,-1
 154 824 l 2,2,3
 92 836 92 836 99 885 c 1,4,-1
 111 984 l 1,5,-1
 252 984 l 1,6,-1
 266 1097 l 2,7,8
 286 1255 286 1255 373 1342 c 128,-1,9
 460 1429 460 1429 603 1429 c 0,10,11
 654 1429 654 1429 689 1418 c 1,12,-1
 674 1285 l 2,13,14
 671 1253 671 1253 618.5 1253 c 128,-1,15
 566 1253 566 1253 539.5 1216.5 c 128,-1,16
 513 1180 513 1180 503 1097 c 2,17,-1
 489 984 l 1,18,-1
 1088 984 l 1,19,-1
 968 0 l 1,20,-1
 723 0 l 1,21,-1
 821 810 l 1,22,-1
 475 810 l 1,23,-1
 376 0 l 1,24,-1
 132 0 l 1,0,-1
764 1326 m 1,25,-1
 1303 1326 l 1,26,-1
 1283 1170 l 1,27,-1
 744 1170 l 1,28,-1
 764 1326 l 1,25,-1
EndSplineSet
Validated: 33
Ligature2: "sous-table 'liga' Ligatures standard dans Latin lookup 37" f imacron
EndChar

StartChar: f_ibreve.liga
Encoding: 2136 -1 73
Width: 1153
GlyphClass: 3
Flags: MW
LayerCount: 2
Fore
SplineSet
132 0 m 1,0,-1
 231 810 l 1,1,-1
 154 824 l 2,2,3
 92 836 92 836 99 885 c 1,4,-1
 111 984 l 1,5,-1
 252 984 l 1,6,-1
 266 1097 l 2,7,8
 286 1255 286 1255 373 1342 c 128,-1,9
 460 1429 460 1429 603 1429 c 0,10,11
 654 1429 654 1429 689 1418 c 1,12,-1
 674 1285 l 2,13,14
 671 1253 671 1253 618.5 1253 c 128,-1,15
 566 1253 566 1253 539.5 1216.5 c 128,-1,16
 513 1180 513 1180 503 1097 c 2,17,-1
 489 984 l 1,18,-1
 1088 984 l 1,19,-1
 968 0 l 1,20,-1
 723 0 l 1,21,-1
 821 810 l 1,22,-1
 475 810 l 1,23,-1
 376 0 l 1,24,-1
 132 0 l 1,0,-1
1017 1120 m 256,25,26
 738 1120 738 1120 773 1397 c 1,27,-1
 944 1397 l 1,28,29
 935 1334 935 1334 949 1312 c 0,30,31
 974 1274 974 1274 1037.5 1274 c 128,-1,32
 1101 1274 1101 1274 1126.5 1306.5 c 128,-1,33
 1152 1339 1152 1339 1158 1397 c 1,34,-1
 1330 1397 l 1,35,36
 1306 1202 1306 1202 1152 1142 c 0,37,38
 1096 1120 1096 1120 1017 1120 c 256,25,26
EndSplineSet
Validated: 33
Ligature2: "sous-table 'liga' Ligatures standard dans Latin lookup 37" f ibreve
EndChar

StartChar: f_iogonek.liga
Encoding: 2137 -1 74
Width: 1135
GlyphClass: 3
Flags: MW
LayerCount: 2
Fore
SplineSet
612 -207 m 0,0,1
 612 -90 612 -90 762 0 c 1,2,-1
 727 0 l 1,3,-1
 825 810 l 1,4,-1
 479 810 l 1,5,-1
 380 0 l 1,6,-1
 136 0 l 1,7,-1
 235 810 l 1,8,-1
 158 824 l 2,9,10
 96 836 96 836 103 885 c 1,11,-1
 115 984 l 1,12,-1
 256 984 l 1,13,-1
 260 1014 l 1,14,15
 283 1204 283 1204 415 1318 c 0,16,17
 559 1442 559 1442 800 1442 c 0,18,19
 888 1442 888 1442 952 1422 c 1,20,-1
 930 1296 l 2,21,22
 926 1273 926 1273 903 1268.5 c 128,-1,23
 880 1264 880 1264 819.5 1264 c 128,-1,24
 759 1264 759 1264 695 1248 c 128,-1,25
 631 1232 631 1232 589 1200 c 0,26,27
 509 1138 509 1138 495 1006 c 1,28,-1
 492 984 l 1,29,-1
 1092 984 l 1,30,-1
 972 0 l 1,31,-1
 907 0 l 1,32,33
 801 -58 801 -58 801 -139 c 256,34,35
 801 -162 801 -162 814 -177 c 128,-1,36
 827 -192 827 -192 846.5 -192 c 128,-1,37
 866 -192 866 -192 876 -190 c 128,-1,38
 886 -188 886 -188 893 -185 c 128,-1,39
 900 -182 900 -182 904 -180 c 128,-1,40
 908 -178 908 -178 913 -178 c 0,41,42
 929 -178 929 -178 934 -194 c 2,43,-1
 958 -285 l 1,44,45
 883 -334 883 -334 790 -334 c 128,-1,46
 697 -334 697 -334 654.5 -298 c 128,-1,47
 612 -262 612 -262 612 -207 c 0,0,1
EndSplineSet
Validated: 33
Ligature2: "sous-table 'liga' Ligatures standard dans Latin lookup 37" f iogonek
EndChar

StartChar: f_dotlessi.liga
Encoding: 2138 -1 75
Width: 1135
GlyphClass: 3
Flags: MW
LayerCount: 2
Fore
SplineSet
132 0 m 1,0,-1
 231 810 l 1,1,-1
 154 824 l 2,2,3
 92 836 92 836 99 885 c 1,4,-1
 111 984 l 1,5,-1
 252 984 l 1,6,-1
 266 1097 l 2,7,8
 286 1255 286 1255 373 1342 c 128,-1,9
 460 1429 460 1429 603 1429 c 0,10,11
 654 1429 654 1429 689 1418 c 1,12,-1
 674 1285 l 2,13,14
 671 1253 671 1253 618.5 1253 c 128,-1,15
 566 1253 566 1253 539.5 1216.5 c 128,-1,16
 513 1180 513 1180 503 1097 c 2,17,-1
 489 984 l 1,18,-1
 1088 984 l 1,19,-1
 968 0 l 1,20,-1
 723 0 l 1,21,-1
 821 810 l 1,22,-1
 475 810 l 1,23,-1
 376 0 l 1,24,-1
 132 0 l 1,0,-1
EndSplineSet
Validated: 33
Ligature2: "sous-table 'liga' Ligatures standard dans Latin lookup 37" f dotlessi
EndChar

StartChar: uniFB03
Encoding: 2114 64259 76
Width: 1718
GlyphClass: 3
Flags: MW
LayerCount: 2
Fore
SplineSet
129 0 m 1,0,-1
 228 810 l 1,1,-1
 154 824 l 2,2,3
 92 836 92 836 99 885 c 1,4,-1
 111 984 l 1,5,-1
 249 984 l 1,6,-1
 256 1038 l 1,7,8
 276 1208 276 1208 385.5 1306 c 128,-1,9
 495 1404 495 1404 662 1404 c 0,10,11
 724 1404 724 1404 782 1386 c 1,12,-1
 762 1264 l 2,13,14
 757 1235 757 1235 734 1228 c 128,-1,15
 711 1221 711 1221 677 1221 c 128,-1,16
 643 1221 643 1221 610.5 1211.5 c 128,-1,17
 578 1202 578 1202 554 1180 c 0,18,19
 504 1135 504 1135 491 1031 c 2,20,-1
 485 984 l 1,21,-1
 848 984 l 1,22,-1
 852 1014 l 1,23,24
 888 1312 888 1312 1167 1409 c 0,25,26
 1262 1442 1262 1442 1387 1442 c 0,27,28
 1473 1442 1473 1442 1537 1422 c 1,29,-1
 1514 1296 l 2,30,31
 1509 1273 1509 1273 1487 1268.5 c 128,-1,32
 1465 1264 1465 1264 1405 1264 c 128,-1,33
 1345 1264 1345 1264 1282.5 1248 c 128,-1,34
 1220 1232 1220 1232 1180 1200 c 0,35,36
 1105 1140 1105 1140 1088 1006 c 1,37,-1
 1085 984 l 1,38,-1
 1674 984 l 1,39,-1
 1654 810 l 1,40,-1
 1653 810 l 1,41,-1
 1554 0 l 1,42,-1
 1309 0 l 1,43,-1
 1408 810 l 1,44,-1
 1071 810 l 1,45,-1
 972 0 l 1,46,-1
 727 0 l 1,47,-1
 827 810 l 1,48,-1
 472 810 l 1,49,-1
 373 0 l 1,50,-1
 129 0 l 1,0,-1
EndSplineSet
Validated: 33
Ligature2: "sous-table 'liga' Ligatures standard dans Latin lookup 37" f f i
EndChar

StartChar: f_f_igrave.liga
Encoding: 2139 -1 77
Width: 1718
GlyphClass: 3
Flags: MW
LayerCount: 2
Fore
SplineSet
1654 810 m 1,0,-1
 1555 0 l 1,1,-1
 1310 0 l 1,2,-1
 1409 810 l 1,3,-1
 1072 810 l 1,4,-1
 973 0 l 1,5,-1
 728 0 l 1,6,-1
 827 810 l 1,7,-1
 474 810 l 1,8,-1
 374 0 l 1,9,-1
 129 0 l 1,10,-1
 229 810 l 1,11,-1
 154 824 l 2,12,13
 92 836 92 836 99 885 c 1,14,-1
 111 984 l 1,15,-1
 250 984 l 1,16,-1
 257 1038 l 1,17,18
 278 1208 278 1208 386 1306 c 0,19,20
 494 1404 494 1404 662 1404 c 0,21,22
 724 1404 724 1404 782 1386 c 1,23,-1
 763 1264 l 2,24,25
 757 1221 757 1221 682 1221 c 0,26,27
 558 1222 558 1222 516 1122 c 0,28,29
 500 1086 500 1086 493 1031 c 2,30,-1
 487 984 l 1,31,-1
 848 984 l 1,32,-1
 859 1071 l 1,33,34
 890 1336 890 1336 1168 1412 c 0,35,36
 1262 1438 1262 1438 1368 1438 c 0,37,38
 1548 1438 1548 1438 1571 1387 c 2,39,-1
 1683 1126 l 1,40,-1
 1545 1126 l 2,41,42
 1497 1126 1497 1126 1468 1161 c 1,43,-1
 1379 1273 l 1,44,-1
 1368 1273 l 2,45,46
 1172 1273 1172 1273 1120 1157 c 0,47,48
 1102 1117 1102 1117 1095 1063 c 2,49,-1
 1085 984 l 1,50,-1
 1675 984 l 1,51,-1
 1655 810 l 1,52,-1
 1654 810 l 1,0,-1
EndSplineSet
Validated: 33
Ligature2: "sous-table 'liga' Ligatures standard dans Latin lookup 37" f f igrave
EndChar

StartChar: f_f_icircumflex.liga
Encoding: 2140 -1 78
Width: 1718
GlyphClass: 3
Flags: MW
LayerCount: 2
Fore
SplineSet
1653 810 m 1,0,-1
 1554 0 l 1,1,-1
 1309 0 l 1,2,-1
 1408 810 l 1,3,-1
 1071 810 l 1,4,-1
 972 0 l 1,5,-1
 727 0 l 1,6,-1
 826 810 l 1,7,-1
 472 810 l 1,8,-1
 373 0 l 1,9,-1
 129 0 l 1,10,-1
 228 810 l 1,11,-1
 154 824 l 2,12,13
 92 836 92 836 99 885 c 1,14,-1
 111 984 l 1,15,-1
 249 984 l 1,16,-1
 256 1038 l 1,17,18
 276 1208 276 1208 385.5 1306 c 128,-1,19
 495 1404 495 1404 662 1404 c 0,20,21
 724 1404 724 1404 782 1386 c 1,22,-1
 762 1264 l 2,23,24
 757 1235 757 1235 734 1228 c 128,-1,25
 711 1221 711 1221 677 1221 c 128,-1,26
 643 1221 643 1221 610.5 1211.5 c 128,-1,27
 578 1202 578 1202 554 1180 c 0,28,29
 504 1135 504 1135 491 1031 c 2,30,-1
 485 984 l 1,31,-1
 847 984 l 1,32,-1
 861 1097 l 2,33,34
 881 1255 881 1255 967.5 1342 c 128,-1,35
 1054 1429 1054 1429 1195 1429 c 0,36,37
 1246 1429 1246 1429 1281 1418 c 1,38,-1
 1265 1285 l 2,39,40
 1262 1253 1262 1253 1210.5 1253 c 128,-1,41
 1159 1253 1159 1253 1134 1216.5 c 128,-1,42
 1109 1180 1109 1180 1098 1097 c 2,43,-1
 1084 984 l 1,44,-1
 1674 984 l 1,45,-1
 1654 810 l 1,46,-1
 1653 810 l 1,0,-1
1866 1127 m 1,47,-1
 1704 1127 l 2,48,49
 1673 1127 1673 1127 1658 1145 c 2,50,-1
 1583 1233 l 2,51,52
 1579 1238 1579 1238 1574.5 1243 c 128,-1,53
 1570 1248 1570 1248 1565 1254 c 1,54,55
 1553 1242 1553 1242 1543 1234 c 2,56,-1
 1445 1145 l 2,57,58
 1424 1127 1424 1127 1394 1127 c 2,59,-1
 1225 1127 l 1,60,-1
 1464 1397 l 1,61,-1
 1694 1397 l 1,62,-1
 1866 1127 l 1,47,-1
EndSplineSet
Validated: 33
Ligature2: "sous-table 'liga' Ligatures standard dans Latin lookup 37" f f icircumflex
EndChar

StartChar: f_f_itilde.liga
Encoding: 2141 -1 79
Width: 1736
GlyphClass: 3
Flags: MW
LayerCount: 2
Fore
SplineSet
1689 810 m 1,0,-1
 1590 0 l 1,1,-1
 1345 0 l 1,2,-1
 1444 810 l 1,3,-1
 1107 810 l 1,4,-1
 1008 0 l 1,5,-1
 763 0 l 1,6,-1
 862 810 l 1,7,-1
 508 810 l 1,8,-1
 409 0 l 1,9,-1
 165 0 l 1,10,-1
 264 810 l 1,11,-1
 190 824 l 2,12,13
 128 836 128 836 135 885 c 1,14,-1
 147 984 l 1,15,-1
 285 984 l 1,16,-1
 292 1038 l 1,17,18
 312 1208 312 1208 421.5 1306 c 128,-1,19
 531 1404 531 1404 698 1404 c 0,20,21
 760 1404 760 1404 818 1386 c 1,22,-1
 798 1264 l 2,23,24
 793 1235 793 1235 770 1228 c 128,-1,25
 747 1221 747 1221 713 1221 c 128,-1,26
 679 1221 679 1221 646.5 1211.5 c 128,-1,27
 614 1202 614 1202 590 1180 c 0,28,29
 540 1135 540 1135 527 1031 c 2,30,-1
 521 984 l 1,31,-1
 883 984 l 1,32,-1
 897 1097 l 2,33,34
 917 1255 917 1255 1003.5 1342 c 128,-1,35
 1090 1429 1090 1429 1231 1429 c 0,36,37
 1282 1429 1282 1429 1317 1418 c 1,38,-1
 1301 1285 l 2,39,40
 1298 1253 1298 1253 1246.5 1253 c 128,-1,41
 1195 1253 1195 1253 1170 1216.5 c 128,-1,42
 1145 1180 1145 1180 1134 1097 c 2,43,-1
 1120 984 l 1,44,-1
 1710 984 l 1,45,-1
 1690 810 l 1,46,-1
 1689 810 l 1,0,-1
1482 1224 m 0,47,48
 1430 1224 1430 1224 1421 1151 c 1,49,-1
 1272 1151 l 1,50,51
 1284 1256 1284 1256 1348 1326 c 0,52,53
 1410 1392 1410 1392 1494 1393 c 0,54,55
 1541 1393 1541 1393 1583 1366 c 128,-1,56
 1625 1339 1625 1339 1643.5 1326.5 c 128,-1,57
 1662 1314 1662 1314 1679 1314 c 0,58,59
 1730 1314 1730 1314 1741 1387 c 1,60,-1
 1888 1387 l 1,61,62
 1876 1280 1876 1280 1812 1212 c 0,63,64
 1751 1146 1751 1146 1667 1146 c 0,65,66
 1617 1146 1617 1146 1576.5 1173 c 128,-1,67
 1536 1200 1536 1200 1517.5 1212 c 128,-1,68
 1499 1224 1499 1224 1482 1224 c 0,47,48
EndSplineSet
Validated: 33
Ligature2: "sous-table 'liga' Ligatures standard dans Latin lookup 37" f f itilde
EndChar

StartChar: f_f_idieresis.liga
Encoding: 2142 -1 80
Width: 1736
GlyphClass: 3
Flags: MW
LayerCount: 2
Fore
SplineSet
1305 1321 m 1,0,1
 1353 1384 1353 1384 1424 1384 c 0,2,3
 1476 1384 1476 1384 1501 1358 c 0,4,5
 1544 1313 1544 1313 1544 1272.5 c 128,-1,6
 1544 1232 1544 1232 1532 1206 c 0,7,8
 1519 1180 1519 1180 1498 1160 c 0,9,10
 1454 1118 1454 1118 1392 1117 c 0,11,12
 1344 1116 1344 1116 1318 1142 c 0,13,14
 1274 1186 1274 1186 1275 1235 c 2,15,-1
 1275 1246 l 2,16,17
 1275 1252 1275 1252 1276 1257 c 1,18,19
 1264 1253 1264 1253 1245 1253 c 0,20,21
 1195 1253 1195 1253 1170 1216.5 c 128,-1,22
 1145 1180 1145 1180 1134 1097 c 2,23,-1
 1120 984 l 1,24,-1
 1710 984 l 1,25,-1
 1690 810 l 1,26,-1
 1689 810 l 1,27,-1
 1590 0 l 1,28,-1
 1345 0 l 1,29,-1
 1444 810 l 1,30,-1
 1107 810 l 1,31,-1
 1008 0 l 1,32,-1
 763 0 l 1,33,-1
 862 810 l 1,34,-1
 508 810 l 1,35,-1
 409 0 l 1,36,-1
 165 0 l 1,37,-1
 264 810 l 1,38,-1
 190 824 l 2,39,40
 128 836 128 836 135 885 c 1,41,-1
 147 984 l 1,42,-1
 285 984 l 1,43,-1
 292 1038 l 1,44,45
 312 1208 312 1208 421.5 1306 c 128,-1,46
 531 1404 531 1404 698 1404 c 0,47,48
 760 1404 760 1404 818 1386 c 1,49,-1
 798 1264 l 2,50,51
 793 1235 793 1235 770 1228 c 128,-1,52
 747 1221 747 1221 713 1221 c 128,-1,53
 679 1221 679 1221 646.5 1211.5 c 128,-1,54
 614 1202 614 1202 590 1180 c 0,55,56
 540 1135 540 1135 527 1031 c 2,57,-1
 521 984 l 1,58,-1
 883 984 l 1,59,-1
 897 1097 l 2,60,61
 917 1255 917 1255 1003.5 1342 c 128,-1,62
 1090 1429 1090 1429 1231 1429 c 0,63,64
 1282 1429 1282 1429 1317 1418 c 1,65,-1
 1305 1321 l 1,0,1
1864 1309.5 m 128,-1,67
 1873 1287 1873 1287 1873 1259.5 c 128,-1,68
 1873 1232 1873 1232 1860 1206 c 0,69,70
 1848 1180 1848 1180 1827 1160 c 0,71,72
 1783 1118 1783 1118 1722 1117 c 0,73,74
 1672 1116 1672 1116 1646 1142 c 0,75,76
 1602 1186 1602 1186 1602.5 1225.5 c 128,-1,77
 1603 1265 1603 1265 1615.5 1292.5 c 128,-1,78
 1628 1320 1628 1320 1649 1340 c 0,79,80
 1695 1384 1695 1384 1753 1384 c 0,81,82
 1805 1384 1805 1384 1830 1358 c 128,-1,66
 1855 1332 1855 1332 1864 1309.5 c 128,-1,67
EndSplineSet
Validated: 33
LCarets2: 2 0 0
Ligature2: "sous-table 'liga' Ligatures standard dans Latin lookup 37" f f idieresis
EndChar

StartChar: f_f_imacron.liga
Encoding: 2143 -1 81
Width: 1736
GlyphClass: 3
Flags: MW
LayerCount: 2
Fore
SplineSet
1689 810 m 1,0,-1
 1590 0 l 1,1,-1
 1345 0 l 1,2,-1
 1444 810 l 1,3,-1
 1107 810 l 1,4,-1
 1008 0 l 1,5,-1
 763 0 l 1,6,-1
 862 810 l 1,7,-1
 508 810 l 1,8,-1
 409 0 l 1,9,-1
 165 0 l 1,10,-1
 264 810 l 1,11,-1
 190 824 l 2,12,13
 128 836 128 836 135 885 c 1,14,-1
 147 984 l 1,15,-1
 285 984 l 1,16,-1
 292 1038 l 1,17,18
 312 1208 312 1208 421.5 1306 c 128,-1,19
 531 1404 531 1404 698 1404 c 0,20,21
 760 1404 760 1404 818 1386 c 1,22,-1
 798 1264 l 2,23,24
 793 1235 793 1235 770 1228 c 128,-1,25
 747 1221 747 1221 713 1221 c 128,-1,26
 679 1221 679 1221 646.5 1211.5 c 128,-1,27
 614 1202 614 1202 590 1180 c 0,28,29
 540 1135 540 1135 527 1031 c 2,30,-1
 521 984 l 1,31,-1
 883 984 l 1,32,-1
 897 1097 l 2,33,34
 917 1255 917 1255 1003.5 1342 c 128,-1,35
 1090 1429 1090 1429 1231 1429 c 0,36,37
 1282 1429 1282 1429 1317 1418 c 1,38,-1
 1301 1285 l 2,39,40
 1298 1253 1298 1253 1246.5 1253 c 128,-1,41
 1195 1253 1195 1253 1170 1216.5 c 128,-1,42
 1145 1180 1145 1180 1134 1097 c 2,43,-1
 1120 984 l 1,44,-1
 1710 984 l 1,45,-1
 1690 810 l 1,46,-1
 1689 810 l 1,0,-1
1317 1326 m 1,47,-1
 1856 1326 l 1,48,-1
 1836 1170 l 1,49,-1
 1297 1170 l 1,50,-1
 1317 1326 l 1,47,-1
EndSplineSet
Validated: 33
Ligature2: "sous-table 'liga' Ligatures standard dans Latin lookup 37" f f imacron
EndChar

StartChar: f_f_ibreve.liga
Encoding: 2144 -1 82
Width: 1736
GlyphClass: 3
Flags: MW
LayerCount: 2
Fore
SplineSet
1689 810 m 1,0,-1
 1590 0 l 1,1,-1
 1345 0 l 1,2,-1
 1444 810 l 1,3,-1
 1107 810 l 1,4,-1
 1008 0 l 1,5,-1
 763 0 l 1,6,-1
 862 810 l 1,7,-1
 508 810 l 1,8,-1
 409 0 l 1,9,-1
 165 0 l 1,10,-1
 264 810 l 1,11,-1
 190 824 l 2,12,13
 128 836 128 836 135 885 c 1,14,-1
 147 984 l 1,15,-1
 285 984 l 1,16,-1
 292 1038 l 1,17,18
 312 1208 312 1208 421.5 1306 c 128,-1,19
 531 1404 531 1404 698 1404 c 0,20,21
 760 1404 760 1404 818 1386 c 1,22,-1
 798 1264 l 2,23,24
 793 1235 793 1235 770 1228 c 128,-1,25
 747 1221 747 1221 713 1221 c 128,-1,26
 679 1221 679 1221 646.5 1211.5 c 128,-1,27
 614 1202 614 1202 590 1180 c 0,28,29
 540 1135 540 1135 527 1031 c 2,30,-1
 521 984 l 1,31,-1
 883 984 l 1,32,-1
 897 1097 l 2,33,34
 917 1255 917 1255 1003.5 1342 c 128,-1,35
 1090 1429 1090 1429 1231 1429 c 0,36,37
 1282 1429 1282 1429 1317 1418 c 1,38,-1
 1301 1285 l 2,39,40
 1298 1253 1298 1253 1246.5 1253 c 128,-1,41
 1195 1253 1195 1253 1170 1216.5 c 128,-1,42
 1145 1180 1145 1180 1134 1097 c 2,43,-1
 1120 984 l 1,44,-1
 1710 984 l 1,45,-1
 1690 810 l 1,46,-1
 1689 810 l 1,0,-1
1561 1120 m 256,47,48
 1282 1120 1282 1120 1317 1397 c 1,49,-1
 1488 1397 l 1,50,51
 1479 1334 1479 1334 1493 1312 c 0,52,53
 1518 1274 1518 1274 1581.5 1274 c 128,-1,54
 1645 1274 1645 1274 1670.5 1306.5 c 128,-1,55
 1696 1339 1696 1339 1702 1397 c 1,56,-1
 1874 1397 l 1,57,58
 1850 1202 1850 1202 1696 1142 c 0,59,60
 1640 1120 1640 1120 1561 1120 c 256,47,48
EndSplineSet
Validated: 33
Ligature2: "sous-table 'liga' Ligatures standard dans Latin lookup 37" f f ibreve
EndChar

StartChar: f_f_iogonek.liga
Encoding: 2145 -1 83
Width: 1718
GlyphClass: 3
Flags: MW
LayerCount: 2
Fore
SplineSet
1203 -207 m 0,0,1
 1203 -90 1203 -90 1353 0 c 1,2,-1
 1313 0 l 1,3,-1
 1412 810 l 1,4,-1
 1075 810 l 1,5,-1
 976 0 l 1,6,-1
 731 0 l 1,7,-1
 831 810 l 1,8,-1
 476 810 l 1,9,-1
 377 0 l 1,10,-1
 133 0 l 1,11,-1
 232 810 l 1,12,-1
 158 824 l 2,13,14
 96 836 96 836 103 885 c 1,15,-1
 115 984 l 1,16,-1
 253 984 l 1,17,-1
 260 1038 l 1,18,19
 280 1208 280 1208 389.5 1306 c 128,-1,20
 499 1404 499 1404 666 1404 c 0,21,22
 728 1404 728 1404 786 1386 c 1,23,-1
 766 1264 l 2,24,25
 761 1235 761 1235 738 1228 c 128,-1,26
 715 1221 715 1221 681 1221 c 128,-1,27
 647 1221 647 1221 614.5 1211.5 c 128,-1,28
 582 1202 582 1202 558 1180 c 0,29,30
 508 1135 508 1135 495 1031 c 2,31,-1
 489 984 l 1,32,-1
 852 984 l 1,33,-1
 856 1014 l 1,34,35
 892 1312 892 1312 1171 1409 c 0,36,37
 1266 1442 1266 1442 1391 1442 c 0,38,39
 1477 1442 1477 1442 1541 1422 c 1,40,-1
 1518 1296 l 2,41,42
 1513 1273 1513 1273 1491 1268.5 c 128,-1,43
 1469 1264 1469 1264 1409 1264 c 128,-1,44
 1349 1264 1349 1264 1286.5 1248 c 128,-1,45
 1224 1232 1224 1232 1184 1200 c 0,46,47
 1109 1140 1109 1140 1092 1006 c 1,48,-1
 1089 984 l 1,49,-1
 1678 984 l 1,50,-1
 1658 810 l 1,51,-1
 1657 810 l 1,52,-1
 1558 0 l 1,53,-1
 1498 0 l 1,54,55
 1392 -58 1392 -58 1392 -139 c 256,56,57
 1392 -162 1392 -162 1405 -177 c 128,-1,58
 1418 -192 1418 -192 1437.5 -192 c 128,-1,59
 1457 -192 1457 -192 1467 -190 c 128,-1,60
 1477 -188 1477 -188 1484 -185 c 128,-1,61
 1491 -182 1491 -182 1495 -180 c 128,-1,62
 1499 -178 1499 -178 1504 -178 c 0,63,64
 1520 -178 1520 -178 1525 -194 c 2,65,-1
 1549 -285 l 1,66,67
 1474 -334 1474 -334 1381 -334 c 128,-1,68
 1288 -334 1288 -334 1245.5 -298 c 128,-1,69
 1203 -262 1203 -262 1203 -207 c 0,0,1
EndSplineSet
Validated: 33
Ligature2: "sous-table 'liga' Ligatures standard dans Latin lookup 37" f f iogonek
EndChar

StartChar: f_f_dotlessi.liga
Encoding: 2146 -1 84
Width: 1718
GlyphClass: 3
Flags: MW
LayerCount: 2
Fore
SplineSet
1653 810 m 1,0,-1
 1554 0 l 1,1,-1
 1309 0 l 1,2,-1
 1408 810 l 1,3,-1
 1071 810 l 1,4,-1
 972 0 l 1,5,-1
 727 0 l 1,6,-1
 826 810 l 1,7,-1
 472 810 l 1,8,-1
 373 0 l 1,9,-1
 129 0 l 1,10,-1
 228 810 l 1,11,-1
 154 824 l 2,12,13
 92 836 92 836 99 885 c 1,14,-1
 111 984 l 1,15,-1
 249 984 l 1,16,-1
 256 1038 l 1,17,18
 276 1208 276 1208 385.5 1306 c 128,-1,19
 495 1404 495 1404 662 1404 c 0,20,21
 724 1404 724 1404 782 1386 c 1,22,-1
 762 1264 l 2,23,24
 757 1235 757 1235 734 1228 c 128,-1,25
 711 1221 711 1221 677 1221 c 128,-1,26
 643 1221 643 1221 610.5 1211.5 c 128,-1,27
 578 1202 578 1202 554 1180 c 0,28,29
 504 1135 504 1135 491 1031 c 2,30,-1
 485 984 l 1,31,-1
 847 984 l 1,32,-1
 861 1097 l 2,33,34
 881 1255 881 1255 967.5 1342 c 128,-1,35
 1054 1429 1054 1429 1195 1429 c 0,36,37
 1246 1429 1246 1429 1281 1418 c 1,38,-1
 1265 1285 l 2,39,40
 1262 1253 1262 1253 1210.5 1253 c 128,-1,41
 1159 1253 1159 1253 1134 1216.5 c 128,-1,42
 1109 1180 1109 1180 1098 1097 c 2,43,-1
 1084 984 l 1,44,-1
 1674 984 l 1,45,-1
 1654 810 l 1,46,-1
 1653 810 l 1,0,-1
EndSplineSet
Validated: 33
Ligature2: "sous-table 'liga' Ligatures standard dans Latin lookup 37" f f dotlessi
EndChar

StartChar: f_j.liga
Encoding: 2147 -1 85
Width: 1135
GlyphClass: 3
Flags: MW
LayerCount: 2
Fore
SplineSet
135 0 m 1,0,-1
 234 809 l 1,1,-1
 154 824 l 2,2,3
 94 836 94 836 99 885 c 2,4,-1
 111 984 l 1,5,-1
 255 984 l 1,6,-1
 259 1014 l 1,7,8
 282 1204 282 1204 416 1318 c 0,9,10
 561 1442 561 1442 803 1442 c 0,11,12
 893 1442 893 1442 957 1422 c 1,13,-1
 935 1296 l 2,14,15
 931 1273 931 1273 908 1268.5 c 128,-1,16
 885 1264 885 1264 823 1264 c 128,-1,17
 761 1264 761 1264 696 1248 c 0,18,19
 630 1232 630 1232 588 1200 c 0,20,21
 508 1139 508 1139 494 1006 c 1,22,-1
 491 984 l 1,23,-1
 1098 984 l 1,24,-1
 973 -30 l 2,25,26
 946 -252 946 -252 770 -322 c 0,27,28
 706 -347 706 -347 645 -347 c 0,29,30
 557 -347 557 -347 499 -329 c 1,31,-1
 524 -198 l 2,32,33
 528 -178 528 -178 541 -172 c 128,-1,34
 554 -166 554 -166 589 -166 c 256,35,36
 657 -166 657 -166 681 -144 c 0,37,38
 718 -109 718 -109 728 -30 c 2,39,-1
 831 810 l 1,40,-1
 478 810 l 1,41,-1
 379 0 l 1,42,-1
 135 0 l 1,0,-1
EndSplineSet
Validated: 33
Ligature2: "sous-table 'liga' Ligatures standard dans Latin lookup 37" f j
EndChar

StartChar: f_f_j.liga
Encoding: 2148 -1 86
Width: 1719
GlyphClass: 3
Flags: MW
LayerCount: 2
Fore
SplineSet
131 0 m 1,0,-1
 230 810 l 1,1,-1
 154 824 l 2,2,3
 92 836 92 836 99 885 c 1,4,-1
 111 984 l 1,5,-1
 251 984 l 1,6,-1
 258 1038 l 1,7,8
 278 1208 278 1208 387.5 1306 c 128,-1,9
 497 1404 497 1404 666 1404 c 0,10,11
 730 1404 730 1404 787 1386 c 1,12,-1
 768 1264 l 2,13,14
 762 1221 762 1221 687 1221 c 0,15,16
 560 1222 560 1222 516 1122 c 0,17,18
 500 1086 500 1086 493 1031 c 2,19,-1
 487 984 l 1,20,-1
 855 984 l 1,21,-1
 859 1014 l 1,22,23
 882 1204 882 1204 1014 1318 c 0,24,25
 1158 1442 1158 1442 1398 1442 c 0,26,27
 1485 1442 1485 1442 1549 1422 c 1,28,-1
 1526 1296 l 2,29,30
 1521 1273 1521 1273 1499 1268.5 c 128,-1,31
 1477 1264 1477 1264 1416.5 1264 c 128,-1,32
 1356 1264 1356 1264 1292.5 1248 c 128,-1,33
 1229 1232 1229 1232 1188 1200 c 0,34,35
 1112 1139 1112 1139 1095 1006 c 1,36,-1
 1092 984 l 1,37,-1
 1687 984 l 1,38,-1
 1667 810 l 1,39,-1
 1665 810 l 1,40,-1
 1563 -30 l 2,41,42
 1536 -252 1536 -252 1362 -322 c 0,43,44
 1300 -347 1300 -347 1239 -347 c 0,45,46
 1152 -347 1152 -347 1094 -329 c 1,47,-1
 1119 -198 l 2,48,49
 1123 -178 1123 -178 1135.5 -172 c 128,-1,50
 1148 -166 1148 -166 1182 -166 c 256,51,52
 1250 -166 1250 -166 1272 -144 c 0,53,54
 1308 -108 1308 -108 1318 -30 c 2,55,-1
 1421 810 l 1,56,-1
 1079 810 l 1,57,-1
 980 0 l 1,58,-1
 734 0 l 1,59,-1
 834 810 l 1,60,-1
 474 810 l 1,61,-1
 375 0 l 1,62,-1
 131 0 l 1,0,-1
EndSplineSet
Validated: 33
Ligature2: "sous-table 'liga' Ligatures standard dans Latin lookup 37" f f j
EndChar

StartChar: f_k.liga
Encoding: 2149 -1 87
Width: 1613
GlyphClass: 3
Flags: MW
LayerCount: 2
Fore
SplineSet
836 1283 m 1,0,1
 778 1301 778 1301 728.5 1301 c 128,-1,2
 679 1301 679 1301 637 1282 c 0,3,4
 596 1264 596 1264 564 1230 c 0,5,6
 500 1162 500 1162 487 1048 c 1,7,-1
 479 984 l 1,8,-1
 702 984 l 1,9,-1
 680 810 l 1,10,-1
 465 810 l 1,11,-1
 366 0 l 1,12,-1
 122 0 l 1,13,-1
 221 810 l 1,14,-1
 153 824 l 1,15,16
 92 835 92 835 99 885 c 1,17,-1
 111 984 l 1,18,-1
 242 984 l 1,19,-1
 250 1048 l 2,20,21
 286 1341 286 1341 548 1429 c 0,22,23
 640 1460 640 1460 722.5 1460 c 128,-1,24
 805 1460 805 1460 840.5 1457 c 128,-1,25
 876 1454 876 1454 912 1450 c 0,26,27
 1017 1438 1017 1438 1072 1437 c 1,28,-1
 1106 1437 l 1,29,-1
 1106 1436 l 1,30,-1
 1129 1436 l 1,31,-1
 1103 1418 l 1,32,-1
 1005 619 l 1,33,-1
 1028 619 l 2,34,35
 1067 619 1067 619 1095 652 c 2,36,-1
 1335 950 l 1,37,38
 1372 993 1372 993 1419 993 c 2,39,-1
 1646 993 l 1,40,-1
 1341 628 l 2,41,42
 1303 584 1303 584 1261 559 c 1,43,44
 1295 531 1295 531 1318 480 c 2,45,-1
 1542 0 l 1,46,-1
 1321 0 l 2,47,48
 1266 0 1266 0 1246 44 c 2,49,-1
 1077 414 l 2,50,51
 1066 437 1066 437 1054.5 444 c 128,-1,52
 1043 451 1043 451 1015 451 c 2,53,-1
 984 451 l 1,54,-1
 929 0 l 1,55,-1
 679 0 l 1,56,-1
 836 1283 l 1,0,1
EndSplineSet
Validated: 33
Ligature2: "sous-table 'liga' Ligatures standard dans Latin lookup 37" f k
EndChar

StartChar: f_f_k.liga
Encoding: 2150 -1 88
Width: 2197
GlyphClass: 3
Flags: MW
LayerCount: 2
Fore
SplineSet
1417 1283 m 1,0,1
 1359 1301 1359 1301 1308.5 1301 c 128,-1,2
 1258 1301 1258 1301 1216 1282 c 0,3,4
 1173 1264 1173 1264 1142 1230 c 0,5,6
 1077 1159 1077 1159 1065 1048 c 1,7,-1
 1057 984 l 1,8,-1
 1282 984 l 1,9,-1
 1260 810 l 1,10,-1
 1044 810 l 1,11,-1
 945 0 l 1,12,-1
 699 0 l 1,13,-1
 798 810 l 1,14,-1
 466 810 l 1,15,-1
 367 0 l 1,16,-1
 123 0 l 1,17,-1
 222 810 l 1,18,-1
 153 824 l 2,19,20
 92 836 92 836 99 885 c 1,21,-1
 111 984 l 1,22,-1
 243 984 l 1,23,-1
 250 1038 l 1,24,25
 270 1208 270 1208 376 1306 c 128,-1,26
 482 1404 482 1404 646 1404 c 0,27,28
 706 1404 706 1404 762 1386 c 1,29,-1
 742 1264 l 2,30,31
 736 1221 736 1221 666 1221 c 0,32,33
 547 1222 547 1222 506 1122 c 0,34,35
 491 1086 491 1086 485 1031 c 2,36,-1
 479 984 l 1,37,-1
 820 984 l 1,38,-1
 828 1048 l 2,39,40
 864 1341 864 1341 1128 1429 c 0,41,42
 1220 1460 1220 1460 1302.5 1460 c 128,-1,43
 1385 1460 1385 1460 1420 1457 c 0,44,45
 1454 1454 1454 1454 1490 1450 c 0,46,47
 1595 1438 1595 1438 1651 1437 c 1,48,-1
 1687 1437 l 1,49,-1
 1687 1436 l 1,50,-1
 1709 1436 l 1,51,-1
 1685 1419 l 1,52,-1
 1586 619 l 1,53,-1
 1609 619 l 2,54,55
 1648 619 1648 619 1676 652 c 2,56,-1
 1916 950 l 1,57,58
 1953 993 1953 993 2000 993 c 2,59,-1
 2227 993 l 1,60,-1
 1922 628 l 2,61,62
 1884 584 1884 584 1842 559 c 1,63,64
 1876 531 1876 531 1899 480 c 2,65,-1
 2123 0 l 1,66,-1
 1902 0 l 2,67,68
 1847 0 1847 0 1827 44 c 2,69,-1
 1658 414 l 2,70,71
 1647 437 1647 437 1635.5 444 c 128,-1,72
 1624 451 1624 451 1596 451 c 2,73,-1
 1565 451 l 1,74,-1
 1510 0 l 1,75,-1
 1260 0 l 1,76,-1
 1417 1283 l 1,0,1
EndSplineSet
Validated: 33
LCarets2: 2 0 0
Ligature2: "sous-table 'liga' Ligatures standard dans Latin lookup 37" f f k
EndChar

StartChar: uniFB02
Encoding: 2113 64258 89
Width: 1135
GlyphClass: 3
Flags: MW
LayerCount: 2
Fore
SplineSet
841 1234 m 1,0,1
 721 1248 721 1248 674 1248 c 0,2,3
 578 1248 578 1248 519.5 1193 c 128,-1,4
 461 1138 461 1138 450 1028 c 1,5,-1
 445 986 l 1,6,-1
 658 986 l 1,7,-1
 637 806 l 1,8,-1
 432 806 l 1,9,-1
 338 41 l 1,10,-1
 287 -136 l 1,11,12
 258 -240 258 -240 157 -240 c 2,13,-1
 55 -240 l 1,14,-1
 183 806 l 1,15,-1
 111 820 l 2,16,17
 50 831 50 831 57 880 c 1,18,-1
 68 986 l 1,19,-1
 205 986 l 1,20,-1
 210 1028 l 1,21,22
 232 1197 232 1197 340 1305 c 0,23,24
 462 1426 462 1426 657 1426 c 1,25,-1
 970 1414 l 1,26,-1
 1110 1414 l 1,27,-1
 936 0 l 1,28,-1
 690 0 l 1,29,-1
 841 1234 l 1,0,1
EndSplineSet
Validated: 33
Ligature2: "sous-table 'liga' Ligatures standard dans Latin lookup 37" f l
EndChar

StartChar: uniFB04
Encoding: 2115 64260 90
Width: 1718
GlyphClass: 3
Flags: MW
LayerCount: 2
Fore
SplineSet
1467 1246 m 1,0,1
 1303 1253 1303 1253 1302 1253 c 0,2,3
 1206 1253 1206 1253 1148.5 1194 c 128,-1,4
 1091 1135 1091 1135 1078 1025 c 2,5,-1
 1073 984 l 1,6,-1
 1306 984 l 1,7,-1
 1285 810 l 1,8,-1
 1060 810 l 1,9,-1
 961 0 l 1,10,-1
 716 0 l 1,11,-1
 815 810 l 1,12,-1
 470 810 l 1,13,-1
 371 0 l 1,14,-1
 127 0 l 1,15,-1
 226 810 l 1,16,-1
 153 824 l 2,17,18
 92 835 92 835 99 885 c 1,19,-1
 111 984 l 1,20,-1
 247 984 l 1,21,-1
 254 1038 l 1,22,23
 274 1208 274 1208 381.5 1306 c 128,-1,24
 489 1404 489 1404 655 1404 c 0,25,26
 716 1404 716 1404 774 1386 c 1,27,-1
 754 1264 l 2,28,29
 749 1235 749 1235 726 1228 c 128,-1,30
 703 1221 703 1221 670 1221 c 128,-1,31
 637 1221 637 1221 605.5 1211.5 c 128,-1,32
 574 1202 574 1202 550 1180 c 0,33,34
 502 1135 502 1135 489 1031 c 2,35,-1
 483 984 l 1,36,-1
 837 984 l 1,37,-1
 842 1025 l 1,38,39
 861 1194 861 1194 971 1304 c 0,40,41
 1091 1426 1091 1426 1283 1426 c 1,42,-1
 1571 1414 l 1,43,-1
 1731 1414 l 1,44,-1
 1557 0 l 1,45,-1
 1314 0 l 1,46,-1
 1467 1246 l 1,0,1
EndSplineSet
Validated: 33
Ligature2: "sous-table 'liga' Ligatures standard dans Latin lookup 37" f f l
EndChar

StartChar: f_t.liga
Encoding: 2151 -1 91
Width: 1293
GlyphClass: 3
Flags: MW
LayerCount: 2
Fore
SplineSet
1242 72 m 1,0,1
 1131 -15 1131 -15 994.5 -15 c 128,-1,2
 858 -15 858 -15 800.5 58 c 128,-1,3
 743 131 743 131 759 261 c 2,4,-1
 825 810 l 1,5,-1
 469 810 l 1,6,-1
 370 0 l 1,7,-1
 126 0 l 1,8,-1
 225 810 l 1,9,-1
 153 824 l 2,10,11
 92 835 92 835 99 885 c 1,12,-1
 111 984 l 1,13,-1
 246 984 l 1,14,-1
 255 1056 l 1,15,16
 275 1226 275 1226 383 1324 c 128,-1,17
 491 1422 491 1422 655 1422 c 0,18,19
 715 1422 715 1422 773 1404 c 1,20,-1
 752 1282 l 2,21,22
 747 1253 747 1253 724 1245.5 c 128,-1,23
 701 1238 701 1238 668.5 1238 c 128,-1,24
 636 1238 636 1238 606 1229 c 128,-1,26
 576 1220 576 1220 552 1198 c 0,27,28
 505 1155 505 1155 491 1048 c 2,29,-1
 483 984 l 1,30,-1
 858 984 l 1,31,-1
 944 1253 l 2,32,33
 957 1293 957 1293 1003 1293 c 2,34,-1
 1129 1293 l 1,35,-1
 1091 984 l 1,36,-1
 1331 984 l 1,37,-1
 1310 810 l 1,38,-1
 1070 810 l 1,39,-1
 1005 277 l 2,40,41
 999 231 999 231 1015 206 c 128,-1,42
 1031 181 1031 181 1057 181 c 128,-1,43
 1083 181 1083 181 1096 186 c 128,-1,44
 1109 191 1109 191 1119 197 c 0,45,46
 1157 220 1157 220 1167.5 211 c 128,-1,47
 1178 202 1178 202 1184 190 c 2,48,-1
 1242 72 l 1,0,1
EndSplineSet
Validated: 33
LCarets2: 1 0
Ligature2: "sous-table 'liga' Ligatures standard dans Latin lookup 37" f t
EndChar

StartChar: f_f_t.liga
Encoding: 2152 -1 92
Width: 1877
GlyphClass: 3
Flags: MW
LayerCount: 2
Fore
SplineSet
1826 72 m 1,0,1
 1715 -15 1715 -15 1578.5 -15 c 128,-1,2
 1442 -15 1442 -15 1384.5 58 c 128,-1,3
 1327 131 1327 131 1342 261 c 1,4,-1
 1410 810 l 1,5,-1
 1055 810 l 1,6,-1
 956 0 l 1,7,-1
 711 0 l 1,8,-1
 810 810 l 1,9,-1
 468 810 l 1,10,-1
 369 0 l 1,11,-1
 125 0 l 1,12,-1
 224 810 l 1,13,-1
 153 824 l 2,14,15
 92 836 92 836 99 885 c 1,16,-1
 111 984 l 1,17,-1
 245 984 l 1,18,-1
 252 1038 l 1,19,20
 272 1208 272 1208 379.5 1306 c 128,-1,21
 487 1404 487 1404 652 1404 c 0,22,23
 714 1404 714 1404 770 1386 c 1,24,-1
 750 1264 l 2,25,26
 745 1235 745 1235 722 1228 c 128,-1,27
 699 1221 699 1221 666.5 1221 c 128,-1,28
 634 1221 634 1221 602.5 1211.5 c 128,-1,29
 571 1202 571 1202 548 1180 c 0,30,31
 500 1134 500 1134 487 1031 c 2,32,-1
 481 984 l 1,33,-1
 831 984 l 1,34,-1
 840 1056 l 1,35,36
 860 1226 860 1226 968 1324 c 0,37,38
 1076 1422 1076 1422 1241 1422 c 0,39,40
 1300 1422 1300 1422 1358 1404 c 1,41,-1
 1338 1282 l 2,42,43
 1333 1253 1333 1253 1310 1245.5 c 128,-1,44
 1287 1238 1287 1238 1254.5 1238 c 128,-1,45
 1222 1238 1222 1238 1191 1229 c 128,-1,46
 1160 1220 1160 1220 1136 1198 c 0,47,48
 1089 1154 1089 1154 1076 1048 c 2,49,-1
 1068 984 l 1,50,-1
 1443 984 l 1,51,-1
 1528 1253 l 1,52,53
 1543 1293 1543 1293 1587 1293 c 2,54,-1
 1714 1293 l 1,55,-1
 1676 984 l 1,56,-1
 1916 984 l 1,57,-1
 1893 810 l 1,58,-1
 1654 810 l 1,59,-1
 1589 277 l 2,60,61
 1584 232 1584 232 1600 206.5 c 128,-1,62
 1616 181 1616 181 1642 181 c 128,-1,63
 1668 181 1668 181 1681 186 c 128,-1,64
 1694 191 1694 191 1704 197 c 128,-1,65
 1714 203 1714 203 1722 208 c 128,-1,66
 1730 213 1730 213 1740 213 c 0,67,68
 1756 213 1756 213 1767 190 c 2,69,-1
 1826 72 l 1,0,1
EndSplineSet
Validated: 33
Ligature2: "sous-table 'liga' Ligatures standard dans Latin lookup 37" f f t
EndChar

StartChar: g
Encoding: 73 103 93
Width: 1081
GlyphClass: 2
Flags: MW
LayerCount: 2
Fore
SplineSet
902 784 m 1,0,1
 924 699 924 699 908.5 645 c 128,-1,2
 893 591 893 591 878.5 561.5 c 128,-1,3
 864 532 864 532 847 506 c 128,-1,4
 830 480 830 480 815 453 c 0,5,6
 780 390 780 390 780 340 c 128,-1,7
 780 290 780 290 797 256 c 128,-1,8
 814 222 814 222 835 187 c 0,9,10
 891 94 891 94 891 19.5 c 128,-1,11
 891 -55 891 -55 857 -121 c 0,12,13
 822 -187 822 -187 758 -237 c 0,14,15
 619 -345 619 -345 389 -345 c 0,16,17
 199 -346 199 -346 82 -274 c 0,18,19
 -32 -205 -32 -205 -32 -92 c 0,20,21
 -34 36 -34 36 79 112 c 0,22,23
 220 208 220 208 476 200 c 0,24,25
 548 198 548 198 608 188 c 1,26,27
 599 216 599 216 599 246 c 0,28,29
 599 306 599 306 629 370 c 1,30,31
 550 318 550 318 424 318 c 128,-1,32
 298 318 298 318 216 394 c 0,33,34
 127 476 127 476 127 622 c 0,35,36
 128 779 128 779 240 888 c 0,37,38
 362 1007 362 1007 568 1007 c 0,39,40
 684 1007 684 1007 772 957 c 1,41,-1
 1067 957 l 1,42,-1
 1057 875 l 2,43,44
 1050 824 1050 824 1006 812 c 2,45,-1
 902 784 l 1,0,1
679 692 m 0,46,47
 679 840 679 840 541 840 c 0,48,49
 456 840 456 840 404 772 c 0,50,51
 358 712 358 712 358 630 c 0,52,53
 358 468 358 468 495 468 c 0,54,55
 580 468 580 468 632 539 c 0,56,57
 678 602 678 602 679 692 c 0,46,47
209 -60 m 0,58,59
 209 -176 209 -176 408 -176 c 0,60,61
 520 -176 520 -176 592 -126 c 0,62,63
 662 -78 662 -78 661 -1 c 0,64,65
 661 22 661 22 657 44 c 1,66,67
 431 80 431 80 313 44 c 0,68,69
 209 12 209 12 209 -60 c 0,58,59
EndSplineSet
Validated: 33
Substitution2: "sous-table 'ordn' Ordinaux dans Latin lookup 39" g.superior
Substitution2: "sous-table 'ss04' Style 4 lookups34" g.salt
Substitution2: "sous-table 'salt' Alternatives stylistiques lookups28" g.salt
Substitution2: "sous-table 'sups' Exposant lookups25" g.superior
EndChar

StartChar: g.salt
Encoding: 2153 -1 94
Width: 971
GlyphClass: 2
Flags: MW
LayerCount: 2
Fore
SplineSet
962 992 m 1,0,-1
 850 75 l 2,1,2
 828 -112 828 -112 693 -226 c 0,3,4
 554 -344 554 -344 351 -344 c 0,5,6
 144 -344 144 -344 37 -218 c 1,7,-1
 107 -126 l 1,8,9
 132 -91 132 -91 163.5 -91 c 128,-1,10
 195 -91 195 -91 211 -104 c 128,-1,12
 227 -117 227 -117 246 -130 c 0,13,14
 302 -169 302 -169 359 -170 c 0,15,16
 419 -170 419 -170 461 -151.5 c 128,-1,17
 503 -133 503 -133 533 -101 c 0,18,19
 594 -36 594 -36 604 63 c 1,20,-1
 612 129 l 1,21,22
 551 65 551 65 512 46 c 0,23,24
 448 13 448 13 375.5 13 c 128,-1,25
 303 13 303 13 248.5 41 c 128,-1,26
 194 69 194 69 156 121 c 0,27,28
 80 227 80 227 80 411 c 0,29,30
 80 666 80 666 206 837 c 0,31,32
 333 1009 333 1009 519 1009 c 0,33,34
 597 1009 597 1009 644.5 979 c 128,-1,35
 692 949 692 949 727 898 c 1,36,-1
 745 948 l 1,37,38
 764 992 764 992 812 992 c 2,39,-1
 962 992 l 1,0,-1
465 206 m 0,40,41
 515 206 515 206 554 234 c 128,-1,42
 593 262 593 262 635 315 c 1,43,-1
 687 738 l 1,44,45
 640 825 640 825 553 825 c 0,46,47
 454 825 454 825 396 725 c 0,48,49
 332 617 332 617 332.5 411.5 c 128,-1,50
 333 206 333 206 465 206 c 0,40,41
EndSplineSet
Validated: 33
EndChar

StartChar: h
Encoding: 74 104 95
Width: 1080
GlyphClass: 2
Flags: MW
LayerCount: 2
Fore
SplineSet
411 831 m 1,0,1
 555 1008 555 1008 745 1008 c 0,2,3
 878 1008 878 1008 946 910 c 0,4,5
 1017 808 1017 808 995 632 c 2,6,-1
 920 0 l 1,7,-1
 667 0 l 1,8,-1
 741 632 l 1,9,10
 753 724 753 724 731 763.5 c 128,-1,11
 709 803 709 803 660.5 803 c 128,-1,12
 612 803 612 803 572.5 782.5 c 128,-1,13
 533 762 533 762 496 724 c 0,14,15
 416 643 416 643 373 517 c 1,16,-1
 311 0 l 1,17,-1
 58 0 l 1,18,-1
 231 1437 l 1,19,-1
 485 1437 l 1,20,-1
 411 831 l 1,0,1
EndSplineSet
Validated: 33
Substitution2: "sous-table 'ordn' Ordinaux dans Latin lookup 39" h.superior
Substitution2: "sous-table 'sups' Exposant lookups25" h.superior
EndChar

StartChar: hcircumflex
Encoding: 228 293 96
Width: 1080
GlyphClass: 2
Flags: MW
LayerCount: 2
Fore
SplineSet
411 831 m 1,0,1
 555 1008 555 1008 745 1008 c 0,2,3
 878 1008 878 1008 946 910 c 0,4,5
 1017 808 1017 808 995 632 c 2,6,-1
 920 0 l 1,7,-1
 667 0 l 1,8,-1
 741 632 l 1,9,10
 753 724 753 724 731 763.5 c 128,-1,11
 709 803 709 803 660.5 803 c 128,-1,12
 612 803 612 803 572.5 782.5 c 128,-1,13
 533 762 533 762 496 724 c 0,14,15
 416 643 416 643 373 517 c 1,16,-1
 311 0 l 1,17,-1
 58 0 l 1,18,-1
 231 1437 l 1,19,-1
 485 1437 l 1,20,-1
 411 831 l 1,0,1
705 1495 m 1,21,-1
 519 1495 l 2,22,23
 484 1495 484 1495 464 1513 c 1,24,-1
 386 1573 l 1,25,-1
 372 1585 l 1,26,-1
 263 1512 l 1,27,28
 240 1495 240 1495 202 1495 c 2,29,-1
 18 1495 l 1,30,-1
 265 1707 l 1,31,-1
 509 1707 l 1,32,-1
 705 1495 l 1,21,-1
EndSplineSet
Validated: 33
EndChar

StartChar: hbar
Encoding: 230 295 97
Width: 1098
GlyphClass: 2
Flags: MW
LayerCount: 2
Fore
SplineSet
409 795 m 1,0,1
 557 977 557 977 752 977 c 0,2,3
 887 977 887 977 956 879 c 0,4,5
 1028 778 1028 778 1006 600 c 2,6,-1
 934 0 l 1,7,-1
 681 0 l 1,8,-1
 752 600 l 1,9,10
 765 692 765 692 741.5 732 c 128,-1,11
 718 772 718 772 667.5 772 c 128,-1,12
 617 772 617 772 576 751 c 128,-1,13
 535 730 535 730 497 692 c 0,14,15
 414 608 414 608 371 478 c 1,16,-1
 314 0 l 1,17,-1
 60 0 l 1,18,-1
 191 1090 l 1,19,-1
 48 1090 l 1,20,-1
 68 1245 l 1,21,-1
 210 1245 l 1,22,-1
 233 1437 l 1,23,-1
 487 1437 l 1,24,-1
 464 1245 l 1,25,-1
 717 1245 l 1,26,-1
 703 1155 l 1,27,28
 695 1090 695 1090 623 1090 c 2,29,-1
 445 1090 l 1,30,-1
 409 795 l 1,0,1
EndSplineSet
Validated: 33
EndChar

StartChar: i
Encoding: 75 105 98
Width: 503
GlyphClass: 2
Flags: MW
LayerCount: 2
Fore
SplineSet
436 993 m 1,0,-1
 317 0 l 1,1,-1
 67 0 l 1,2,-1
 186 993 l 1,3,-1
 436 993 l 1,0,-1
496 1278 m 0,4,5
 496 1246 496 1246 482 1218 c 128,-1,7
 468 1190 468 1190 446 1168 c 0,8,9
 400 1122 400 1122 337 1121 c 0,10,11
 277 1122 277 1122 232 1168 c 0,12,13
 185 1216 185 1216 185 1278 c 256,14,15
 185 1342 185 1342 232.5 1389.5 c 128,-1,16
 280 1437 280 1437 339 1437 c 256,17,18
 401 1437 401 1437 448 1390 c 0,19,20
 496 1342 496 1342 496 1278 c 0,4,5
EndSplineSet
Validated: 1
Substitution2: "sous-table 'ordn' Ordinaux dans Latin lookup 39" i.superior
Substitution2: "sous-table 'sups' Exposant lookups25" i.superior
Substitution2: "sous-table Substitution simple lookups1" dotlessi
EndChar

StartChar: iogonek
Encoding: 238 303 99
Width: 503
GlyphClass: 2
Flags: MW
LayerCount: 2
Fore
SplineSet
300 0 m 1,0,1
 194 -58 194 -58 194 -139 c 256,2,3
 194 -162 194 -162 207 -177 c 128,-1,4
 220 -192 220 -192 239.5 -192 c 128,-1,5
 259 -192 259 -192 269 -190 c 128,-1,6
 279 -188 279 -188 286 -185 c 128,-1,7
 293 -182 293 -182 297 -180 c 128,-1,8
 301 -178 301 -178 306 -178 c 0,9,10
 322 -178 322 -178 327 -194 c 2,11,-1
 351 -285 l 1,12,13
 276 -334 276 -334 183 -334 c 128,-1,14
 90 -334 90 -334 47.5 -298 c 128,-1,15
 5 -262 5 -262 5 -207 c 0,16,17
 5 -90 5 -90 155 0 c 1,18,-1
 67 0 l 1,19,-1
 186 993 l 1,20,-1
 436 993 l 1,21,-1
 317 0 l 1,22,-1
 300 0 l 1,0,1
496 1278 m 0,23,24
 496 1246 496 1246 482 1218 c 128,-1,26
 468 1190 468 1190 446 1168 c 0,27,28
 400 1122 400 1122 337 1121 c 0,29,30
 277 1122 277 1122 232 1168 c 0,31,32
 185 1216 185 1216 185 1278 c 256,33,34
 185 1342 185 1342 232.5 1389.5 c 128,-1,35
 280 1437 280 1437 339 1437 c 256,36,37
 401 1437 401 1437 448 1390 c 0,38,39
 496 1342 496 1342 496 1278 c 0,23,24
EndSplineSet
Validated: 1
Substitution2: "sous-table Substitution simple lookups1" glyph498
EndChar

StartChar: dotlessi
Encoding: 240 305 100
Width: 503
GlyphClass: 2
Flags: MW
LayerCount: 2
Fore
SplineSet
436 993 m 1,0,-1
 317 0 l 1,1,-1
 67 0 l 1,2,-1
 186 993 l 1,3,-1
 436 993 l 1,0,-1
EndSplineSet
Validated: 1
EndChar

StartChar: ij.salt
Encoding: 2154 -1 101
Width: 1079
GlyphClass: 2
Flags: MW
LayerCount: 2
Fore
SplineSet
672 82 m 1,0,1
 564 -14 564 -14 423 -14 c 0,2,3
 257 -14 257 -14 179 91 c 0,4,5
 105 192 105 192 125 361 c 2,6,-1
 203 992 l 1,7,-1
 448 992 l 1,8,-1
 370 361 l 1,9,10
 358 273 358 273 396.5 224 c 128,-1,11
 435 175 435 175 520 175 c 0,12,13
 606 176 606 176 656 220 c 0,14,15
 674 236 674 236 694 260 c 1,16,-1
 784 992 l 1,17,-1
 1029 992 l 1,18,-1
 910 26 l 2,19,20
 878 -240 878 -240 654 -318 c 0,21,22
 576 -346 576 -346 504 -345 c 0,23,24
 392 -345 392 -345 335 -327 c 1,25,-1
 365 -196 l 2,26,27
 370 -176 370 -176 384.5 -170 c 128,-1,28
 399 -164 399 -164 443.5 -164 c 128,-1,29
 488 -164 488 -164 527 -154 c 128,-1,31
 566 -144 566 -144 594 -122 c 0,32,33
 651 -77 651 -77 665 26 c 2,34,-1
 672 82 l 1,0,1
472 1175.5 m 128,-1,36
 418 1127 418 1127 349 1127 c 0,37,38
 290 1127 290 1127 250 1168 c 128,-1,39
 210 1209 210 1209 210.5 1254.5 c 128,-1,40
 211 1300 211 1300 225.5 1331 c 128,-1,41
 240 1362 240 1362 264 1386 c 0,42,43
 316 1436 316 1436 384 1436 c 0,44,45
 444 1436 444 1436 485 1394 c 128,-1,46
 526 1352 526 1352 526 1305 c 0,47,35
 526 1224 526 1224 472 1175.5 c 128,-1,36
790 1254.5 m 128,-1,49
 790 1300 790 1300 804.5 1331 c 128,-1,50
 819 1362 819 1362 843 1386 c 0,51,52
 895 1436 895 1436 962 1436 c 0,53,54
 1022 1436 1022 1436 1063 1394 c 128,-1,55
 1104 1352 1104 1352 1104 1305 c 0,56,57
 1104 1224 1104 1224 1051 1175.5 c 128,-1,58
 998 1127 998 1127 933.5 1127 c 128,-1,59
 869 1127 869 1127 829.5 1168 c 128,-1,48
 790 1209 790 1209 790 1254.5 c 128,-1,49
EndSplineSet
Validated: 33
LCarets2: 1 0
Ligature2: "sous-table 'dlig' Ligatures facultatives  dans Latin lookup 36" i j
EndChar

StartChar: j
Encoding: 76 106 102
Width: 523
GlyphClass: 2
Flags: MW
LayerCount: 2
Fore
SplineSet
446 993 m 1,0,-1
 321 -24 l 2,1,2
 294 -246 294 -246 112 -320 c 0,3,4
 50 -346 50 -346 -11 -346 c 0,5,6
 -101 -346 -101 -346 -159 -328 c 1,7,-1
 -133 -192 l 2,8,9
 -129 -172 -129 -172 -115.5 -165.5 c 128,-1,10
 -102 -159 -102 -159 -67.5 -159 c 128,-1,11
 -33 -159 -33 -159 -8.5 -152.5 c 128,-1,12
 16 -146 16 -146 32 -130 c 0,13,14
 62 -100 62 -100 72 -24 c 2,15,-1
 198 993 l 1,16,-1
 446 993 l 1,0,-1
501 1278 m 0,17,18
 501 1246 501 1246 487 1217 c 0,19,20
 472 1188 472 1188 450 1167 c 0,21,22
 401 1121 401 1121 340 1121 c 256,23,24
 278 1122 278 1122 232 1168 c 0,25,26
 184 1216 184 1216 185 1279 c 256,27,28
 185 1342 185 1342 232 1390 c 0,29,30
 277 1436 277 1436 339 1437 c 0,31,32
 402 1438 402 1438 452 1390 c 0,33,34
 502 1344 502 1344 501 1278 c 0,17,18
EndSplineSet
Validated: 33
Substitution2: "sous-table 'ordn' Ordinaux dans Latin lookup 39" j.superior
Substitution2: "sous-table 'sups' Exposant lookups25" j.superior
Substitution2: "sous-table Substitution simple lookups2" uni0237
EndChar

StartChar: uni0237
Encoding: 502 567 103
Width: 523
GlyphClass: 2
Flags: MW
LayerCount: 2
Fore
SplineSet
476 992 m 1,0,-1
 349 -30 l 2,1,2
 322 -252 322 -252 141 -322 c 0,3,4
 76 -347 76 -347 14 -347 c 0,5,6
 -78 -347 -78 -347 -136 -329 c 1,7,-1
 -113 -198 l 2,8,9
 -109 -179 -109 -179 -95.5 -172.5 c 128,-1,10
 -82 -166 -82 -166 -45 -166 c 256,11,12
 30 -166 30 -166 54 -144 c 0,13,14
 94 -108 94 -108 104 -30 c 2,15,-1
 231 992 l 1,16,-1
 476 992 l 1,0,-1
EndSplineSet
Validated: 1
EndChar

StartChar: k
Encoding: 77 107 104
Width: 983
GlyphClass: 2
Flags: MW
LayerCount: 2
Fore
SplineSet
481 1437 m 1,0,-1
 380 619 l 1,1,-1
 403 619 l 2,2,3
 442 619 442 619 470 652 c 2,4,-1
 710 950 l 1,5,6
 747 993 747 993 794 993 c 2,7,-1
 1021 993 l 1,8,-1
 716 628 l 2,9,10
 678 584 678 584 636 559 c 1,11,12
 670 531 670 531 693 480 c 2,13,-1
 917 0 l 1,14,-1
 696 0 l 2,15,16
 641 0 641 0 621 44 c 2,17,-1
 452 414 l 2,18,19
 441 437 441 437 429.5 444 c 128,-1,20
 418 451 418 451 390 451 c 2,21,-1
 359 451 l 1,22,-1
 304 0 l 1,23,-1
 54 0 l 1,24,-1
 230 1437 l 1,25,-1
 481 1437 l 1,0,-1
EndSplineSet
Validated: 1
Substitution2: "sous-table 'ordn' Ordinaux dans Latin lookup 39" k.superior
Substitution2: "sous-table 'sups' Exposant lookups25" k.superior
EndChar

StartChar: kgreenlandic
Encoding: 247 312 105
Width: 983
GlyphClass: 2
Flags: MW
LayerCount: 2
Fore
SplineSet
426 993 m 1,0,-1
 379 619 l 1,1,-1
 403 619 l 2,2,3
 443 619 443 619 469 652 c 2,4,-1
 706 950 l 1,5,6
 743 993 743 993 791 993 c 2,7,-1
 1016 993 l 1,8,-1
 719 627 l 1,9,10
 680 582 680 582 638 558 c 1,11,12
 667 533 667 533 692 480 c 2,13,-1
 913 0 l 1,14,-1
 695 0 l 2,15,16
 640 0 640 0 618 43 c 1,17,-1
 451 414 l 2,18,19
 440 437 440 437 428.5 444 c 128,-1,20
 417 451 417 451 389 451 c 2,21,-1
 358 451 l 1,22,-1
 303 0 l 1,23,-1
 53 0 l 1,24,-1
 176 993 l 1,25,-1
 426 993 l 1,0,-1
EndSplineSet
Validated: 1
EndChar

StartChar: lslash
Encoding: 257 322 106
Width: 540
GlyphClass: 2
Flags: MW
LayerCount: 2
Fore
SplineSet
68 713 m 2,0,1
 68 748 68 748 99 762 c 2,2,-1
 174 798 l 1,3,-1
 251 1437 l 1,4,-1
 502 1437 l 1,5,-1
 437 904 l 1,6,-1
 569 964 l 1,7,-1
 566 818 l 2,8,9
 566 778 566 778 532 764 c 1,10,-1
 413 706 l 1,11,-1
 328 0 l 1,12,-1
 78 0 l 1,13,-1
 150 602 l 1,14,-1
 65 564 l 1,15,-1
 68 713 l 2,0,1
EndSplineSet
Validated: 1
EndChar

StartChar: lcaron
Encoding: 253 318 107
Width: 627
GlyphClass: 2
Flags: MW
LayerCount: 2
Fore
SplineSet
779 1437 m 2,0,1
 818 1437 818 1437 818 1407 c 0,2,3
 818 1379 818 1379 774.5 1300.5 c 128,-1,4
 731 1222 731 1222 702 1169.5 c 128,-1,5
 673 1117 673 1117 651.5 1109.5 c 128,-1,6
 630 1102 630 1102 598 1102 c 2,7,-1
 512 1102 l 1,8,-1
 616 1437 l 1,9,-1
 779 1437 l 2,0,1
63 0 m 1,10,-1
 236 1437 l 1,11,-1
 487 1437 l 1,12,-1
 313 0 l 1,13,-1
 63 0 l 1,10,-1
EndSplineSet
Validated: 1
EndChar

StartChar: m
Encoding: 79 109 108
Width: 1646
GlyphClass: 2
Flags: MW
LayerCount: 2
Fore
SplineSet
939 769 m 1,0,1
 1083 1008 1083 1008 1303 1008 c 0,2,3
 1439 1008 1439 1008 1505.5 910 c 128,-1,4
 1572 812 1572 812 1550 632 c 2,5,-1
 1476 0 l 1,6,-1
 1226 0 l 1,7,-1
 1300 632 l 1,8,9
 1312 724 1312 724 1292.5 762.5 c 128,-1,10
 1273 801 1273 801 1223.5 801 c 128,-1,11
 1174 801 1174 801 1135.5 781.5 c 128,-1,12
 1097 762 1097 762 1063 725 c 0,13,14
 992 648 992 648 950 514 c 1,15,-1
 950 513 l 1,16,-1
 891 0 l 1,17,-1
 640 0 l 1,18,-1
 714 632 l 1,19,20
 726 723 726 723 708 762 c 128,-1,21
 690 801 690 801 639 801 c 128,-1,22
 588 801 588 801 548 780 c 0,23,24
 509 760 509 760 475 720 c 0,25,26
 404 636 404 636 362 500 c 1,27,-1
 304 0 l 1,28,-1
 55 0 l 1,29,-1
 175 994 l 1,30,-1
 304 994 l 2,31,32
 391 994 391 994 389 912 c 1,33,-1
 384 807 l 1,34,35
 526 1008 526 1008 717 1008 c 0,36,37
 816 1008 816 1008 873 946.5 c 128,-1,38
 930 885 930 885 939 769 c 1,0,1
EndSplineSet
Validated: 33
Substitution2: "sous-table 'ordn' Ordinaux dans Latin lookup 39" m.superior
Substitution2: "sous-table 'sups' Exposant lookups25" m.superior
EndChar

StartChar: n
Encoding: 80 110 109
Width: 1080
GlyphClass: 2
Flags: MW
LayerCount: 2
Fore
SplineSet
377 793 m 1,0,1
 531 1008 531 1008 743 1008 c 0,2,3
 876 1008 876 1008 944 910 c 0,4,5
 1015 808 1015 808 993 632 c 2,6,-1
 919 0 l 1,7,-1
 665 0 l 1,8,-1
 740 632 l 2,9,10
 751 724 751 724 728.5 762.5 c 128,-1,11
 706 801 706 801 655.5 801 c 128,-1,12
 605 801 605 801 562 778 c 0,13,14
 520 755 520 755 480 713 c 0,15,16
 393 621 393 621 356 479 c 1,17,-1
 304 0 l 1,18,-1
 50 0 l 1,19,-1
 169 994 l 1,20,-1
 298 994 l 2,21,22
 386 994 386 994 382 912 c 2,23,-1
 377 793 l 1,0,1
EndSplineSet
Validated: 33
Substitution2: "sous-table 'ordn' Ordinaux dans Latin lookup 39" uni207F
Substitution2: "sous-table 'sups' Exposant lookups25" uni207F
EndChar

StartChar: eng
Encoding: 266 331 110
Width: 1080
GlyphClass: 2
Flags: MW
LayerCount: 2
Fore
SplineSet
425 871 m 1,0,1
 576 1008 576 1008 737 1008 c 0,2,3
 893 1008 893 1008 966 903 c 0,4,5
 1037 802 1037 802 1016 632 c 2,6,-1
 942 37 l 1,7,8
 910 -238 910 -238 704 -320 c 0,9,10
 632 -348 632 -348 559.5 -348 c 128,-1,11
 487 -348 487 -348 447.5 -338.5 c 128,-1,12
 408 -329 408 -329 364 -309 c 1,13,-1
 404 -203 l 2,14,15
 421 -157 421 -157 463 -157 c 0,16,17
 477 -157 477 -157 492 -162 c 128,-1,18
 507 -167 507 -167 536 -167 c 0,19,20
 674 -167 674 -167 695 10 c 2,21,-1
 772 632 l 2,22,23
 783 720 783 720 750 769 c 0,24,25
 718 818 718 818 650 818 c 0,26,27
 535 818 535 818 424 718 c 1,28,-1
 336 0 l 1,29,-1
 92 0 l 1,30,-1
 213 992 l 1,31,-1
 363 992 l 2,32,33
 413 992 413 992 417 948 c 2,34,-1
 425 871 l 1,0,1
EndSplineSet
Validated: 33
EndChar

StartChar: o
Encoding: 81 111 111
Width: 1080
GlyphClass: 2
Flags: MW
LayerCount: 2
Fore
SplineSet
296 410 m 0,0,1
 296 179 296 179 484 179 c 0,2,3
 612 178 612 178 694 300 c 0,4,5
 772 415 772 415 772 560 c 128,-1,6
 772 705 772 705 725.5 760 c 128,-1,7
 679 815 679 815 598.5 815 c 128,-1,8
 518 815 518 815 464 782 c 0,9,10
 412 750 412 750 374 695 c 0,11,12
 296 582 296 582 296 410 c 0,0,1
682 31 m 0,13,14
 580 -15 580 -15 476.5 -15 c 128,-1,15
 373 -15 373 -15 295.5 13 c 128,-1,16
 218 41 218 41 162 95 c 0,17,18
 42 211 42 211 42 409 c 0,19,20
 42 664 42 664 208 838 c 0,21,22
 371 1010 371 1010 604 1009 c 0,23,24
 790 1009 790 1009 906 899 c 0,25,26
 1026 784 1026 784 1026 585 c 0,27,28
 1026 333 1026 333 862 158 c 0,29,30
 786 77 786 77 682 31 c 0,13,14
EndSplineSet
Validated: 33
Substitution2: "sous-table 'ordn' Ordinaux dans Latin lookup 39" o.superior
Substitution2: "sous-table 'sups' Exposant lookups25" o.superior
EndChar

StartChar: oslash
Encoding: 183 248 112
Width: 1114
GlyphClass: 2
Flags: MW
LayerCount: 2
Fore
SplineSet
966 859 m 1,0,1
 1054 748 1054 748 1054 602 c 128,-1,2
 1054 456 1054 456 1009 347 c 128,-1,3
 964 238 964 238 886 158 c 0,4,5
 719 -14 719 -14 479 -15 c 0,6,7
 346 -15 346 -15 245 40 c 1,8,-1
 235 28 l 1,9,10
 182 -46 182 -46 83 -46 c 2,11,-1
 -11 -46 l 1,12,-1
 131 133 l 1,13,14
 43 244 43 244 43 411 c 0,15,16
 44 665 44 665 212 838 c 0,17,18
 378 1009 378 1009 619 1009 c 0,19,20
 751 1009 751 1009 852 954 c 1,21,-1
 866 971 l 1,22,23
 902 1026 902 1026 942 1034 c 0,24,25
 958 1038 958 1038 981 1038 c 2,26,-1
 1107 1038 l 1,27,-1
 966 859 l 1,0,1
304.5 584 m 128,-1,29
 281 507 281 507 281 429.5 c 128,-1,30
 281 352 281 352 296 306 c 1,31,-1
 707 806 l 1,32,33
 661 831 661 831 595 831 c 128,-1,34
 529 831 529 831 470.5 801 c 128,-1,35
 412 771 412 771 370 716 c 128,-1,28
 328 661 328 661 304.5 584 c 128,-1,29
390 189 m 1,36,37
 436 164 436 164 502 164 c 128,-1,38
 568 164 568 164 626 194 c 0,39,40
 686 226 686 226 728 280 c 0,41,42
 818 396 818 396 817 581 c 0,43,44
 817 638 817 638 802 687 c 1,45,-1
 390 189 l 1,36,37
EndSplineSet
Validated: 33
EndChar

StartChar: oe
Encoding: 274 339 113
Width: 1673
GlyphClass: 2
Flags: MW
LayerCount: 2
Fore
SplineSet
926 847 m 1,0,1
 1071 1007 1071 1007 1309 1007 c 0,2,3
 1454 1006 1454 1006 1544 936 c 0,4,5
 1632 866 1632 866 1632 751 c 0,6,7
 1632 612 1632 612 1498 536 c 0,8,9
 1343 447 1343 447 976 413 c 1,10,11
 989 181 989 181 1204 181 c 0,12,13
 1314 180 1314 180 1404 232 c 0,14,15
 1438 252 1438 252 1464 268 c 128,-1,16
 1490 284 1490 284 1518.5 284 c 128,-1,17
 1547 284 1547 284 1566 262 c 2,18,-1
 1632 184 l 1,19,20
 1464 28 1464 28 1293 -4 c 0,21,22
 1230 -16 1230 -16 1157 -15 c 0,23,24
 928 -15 928 -15 831 178 c 1,25,26
 671 -15 671 -15 408 -15 c 0,27,28
 234 -16 234 -16 134 96 c 0,29,30
 40 201 40 201 39.5 360 c 128,-1,31
 39 519 39 519 86 640 c 0,32,33
 134 760 134 760 214 842 c 0,34,35
 374 1006 374 1006 620 1007 c 0,36,37
 831 1007 831 1007 926 847 c 1,0,1
382 189 m 0,38,39
 416 173 416 173 478 173 c 128,-1,40
 540 173 540 173 596 202 c 0,41,42
 650 232 650 232 688 286 c 0,43,44
 761 390 761 390 774 584 c 0,45,46
 791 820 791 820 600 820 c 0,47,48
 456 820 456 820 370 696 c 0,49,50
 288 577 288 577 287 373 c 0,51,52
 288 233 288 233 382 189 c 0,38,39
986 567 m 1,53,54
 1420 616 1420 616 1420 745 c 0,55,56
 1420 781 1420 781 1384 806.5 c 128,-1,57
 1348 832 1348 832 1283 832 c 128,-1,58
 1218 832 1218 832 1172 814 c 0,59,60
 1124 798 1124 798 1088 764 c 0,61,62
 1012 692 1012 692 986 567 c 1,53,54
EndSplineSet
Validated: 33
EndChar

StartChar: p
Encoding: 82 112 114
Width: 1081
GlyphClass: 2
Flags: MW
LayerCount: 2
Fore
SplineSet
308 74 m 1,0,-1
 260 -322 l 1,1,-1
 13 -322 l 1,2,-1
 173 994 l 1,3,-1
 303 994 l 2,4,5
 390 994 390 994 386 912 c 2,6,-1
 380 775 l 1,7,8
 543 1008 543 1008 751 1008 c 0,9,10
 960 1008 960 1008 1020 800 c 0,11,12
 1040 730 1040 730 1040.5 639 c 128,-1,13
 1041 548 1041 548 1023 467.5 c 128,-1,14
 1005 387 1005 387 971.5 315 c 128,-1,15
 938 243 938 243 892 182.5 c 128,-1,16
 846 122 846 122 790 78 c 0,17,18
 671 -15 671 -15 535 -15 c 128,-1,19
 399 -15 399 -15 308 74 c 1,0,-1
789 608 m 0,20,21
 789 810 789 810 652 810 c 0,22,23
 572 810 572 810 486 710 c 0,24,25
 403 612 403 612 356 464 c 1,26,-1
 328 237 l 1,27,28
 392 177 392 177 476.5 177 c 128,-1,29
 561 177 561 177 615.5 215 c 128,-1,30
 670 253 670 253 708 314 c 0,31,32
 788 442 788 442 789 608 c 0,20,21
EndSplineSet
Validated: 33
Substitution2: "sous-table 'ordn' Ordinaux dans Latin lookup 39" p.superior
Substitution2: "sous-table 'sups' Exposant lookups25" p.superior
EndChar

StartChar: thorn
Encoding: 189 254 115
Width: 1081
GlyphClass: 2
Flags: MW
LayerCount: 2
Fore
SplineSet
315 74 m 1,0,-1
 277 -237 l 2,1,2
 273 -270 273 -270 246.5 -296 c 128,-1,3
 220 -322 220 -322 178 -322 c 2,4,-1
 21 -322 l 1,5,-1
 234 1437 l 1,6,-1
 484 1437 l 1,7,-1
 405 800 l 1,8,9
 559 1008 559 1008 755 1008 c 0,10,11
 962 1008 962 1008 1022 800 c 0,12,13
 1042 730 1042 730 1042 639 c 128,-1,14
 1042 548 1042 548 1024 467.5 c 128,-1,15
 1006 387 1006 387 973 315 c 128,-1,16
 940 243 940 243 894 182.5 c 128,-1,17
 848 122 848 122 792 78 c 0,18,19
 675 -15 675 -15 539.5 -15 c 128,-1,20
 404 -15 404 -15 315 74 c 1,0,-1
335 237 m 1,21,22
 397 177 397 177 481 177 c 128,-1,23
 565 177 565 177 618.5 215 c 128,-1,24
 672 253 672 253 710 314 c 0,25,26
 790 442 790 442 790 608 c 0,27,28
 790 711 790 711 754.5 760.5 c 128,-1,29
 719 810 719 810 667.5 810 c 128,-1,30
 616 810 616 810 574 783 c 128,-1,31
 532 756 532 756 493 710 c 0,32,33
 410 611 410 611 364 466 c 1,34,-1
 335 237 l 1,21,22
EndSplineSet
Validated: 1
EndChar

StartChar: q
Encoding: 83 113 116
Width: 1081
GlyphClass: 2
Flags: MW
LayerCount: 2
Fore
SplineSet
664 180 m 1,0,1
 518 -15 518 -15 329 -15 c 0,2,3
 200 -15 200 -15 122 74 c 0,4,5
 38 170 38 170 37 345 c 0,6,7
 37 616 37 616 234 810 c 0,8,9
 362 936 362 936 540 984 c 0,10,11
 630 1008 630 1008 714 1008 c 0,12,13
 888 1008 888 1008 1014 963 c 1,14,-1
 854 -322 l 1,15,-1
 689 -322 l 2,16,17
 646 -322 646 -322 625 -290 c 0,18,19
 607 -264 607 -264 612 -228 c 2,20,-1
 664 180 l 1,0,1
427 192 m 0,21,22
 510 192 510 192 590 294 c 0,23,24
 662 386 662 386 711 543 c 1,25,-1
 711 544 l 1,26,-1
 748 827 l 1,27,28
 720 829 720 829 694 829 c 0,29,30
 524 829 524 829 406 698 c 0,31,32
 290 569 290 569 290 380.5 c 128,-1,33
 290 192 290 192 427 192 c 0,21,22
EndSplineSet
Validated: 1
Substitution2: "sous-table 'ordn' Ordinaux dans Latin lookup 39" q.superior
Substitution2: "sous-table 'sups' Exposant lookups25" q.superior
EndChar

StartChar: r
Encoding: 84 114 117
Width: 721
GlyphClass: 2
Flags: MW
LayerCount: 2
Fore
SplineSet
298 994 m 2,0,1
 386 994 386 994 382 912 c 1,2,-1
 377 759 l 1,3,4
 494 983 494 983 646 998 c 0,5,6
 696 1003 696 1003 746 981 c 1,7,-1
 700 740 l 1,8,9
 448 843 448 843 348 425 c 1,10,-1
 298 0 l 1,11,-1
 49 0 l 1,12,-1
 168 994 l 1,13,-1
 298 994 l 2,0,1
EndSplineSet
Validated: 33
Substitution2: "sous-table 'ordn' Ordinaux dans Latin lookup 39" r.superior
Substitution2: "sous-table 'sups' Exposant lookups25" r.superior
EndChar

StartChar: s
Encoding: 85 115 118
Width: 807
GlyphClass: 2
Flags: MW
LayerCount: 2
Fore
SplineSet
751 802 m 2,0,1
 730 772 730 772 707 772 c 128,-1,2
 684 772 684 772 666 782 c 0,3,4
 646 791 646 791 622 803 c 0,5,6
 560 834 560 834 484 834 c 0,7,8
 409 834 409 834 365.5 801.5 c 128,-1,9
 322 769 322 769 322 725.5 c 128,-1,10
 322 682 322 682 353 656.5 c 128,-1,11
 384 631 384 631 430.5 610.5 c 128,-1,12
 477 590 477 590 531 570 c 0,13,14
 586 550 586 550 632 521 c 0,15,16
 740 453 740 453 740 340 c 0,17,18
 740 190 740 190 624 90 c 0,19,20
 502 -16 502 -16 310 -15 c 0,21,22
 163 -15 163 -15 50 58 c 0,23,24
 16 80 16 80 -8 106 c 1,25,-1
 53 201 l 2,26,27
 75 235 75 235 107 235 c 128,-1,28
 139 235 139 235 157 223 c 0,29,30
 174 211 174 211 198 196 c 0,31,32
 259 157 259 157 321.5 157 c 128,-1,33
 384 157 384 157 416 167 c 0,34,35
 448 176 448 176 470 194 c 0,36,37
 516 229 516 229 516 271.5 c 128,-1,38
 516 314 516 314 498 336 c 128,-1,39
 480 358 480 358 451 374 c 128,-1,40
 422 390 422 390 384.5 402.5 c 128,-1,41
 347 415 347 415 307.5 429 c 128,-1,42
 268 443 268 443 230.5 461.5 c 128,-1,43
 193 480 193 480 164 506 c 0,44,45
 99 565 99 565 99 647 c 128,-1,46
 99 729 99 729 125.5 791 c 128,-1,47
 152 853 152 853 204 901 c 0,48,49
 318 1007 318 1007 503 1007 c 0,50,51
 694 1007 694 1007 814 892 c 1,52,-1
 751 802 l 2,0,1
EndSplineSet
Validated: 33
Substitution2: "sous-table 'ordn' Ordinaux dans Latin lookup 39" s.superior
Substitution2: "sous-table 'sups' Exposant lookups25" s.superior
EndChar

StartChar: scedilla
Encoding: 286 351 119
Width: 807
GlyphClass: 2
Flags: MW
LayerCount: 2
Fore
SplineSet
384 -53 m 1,0,1
 510 -87 510 -87 510 -178 c 0,2,3
 510 -250 510 -250 440 -294 c 0,4,5
 373 -336 373 -336 266 -336 c 0,6,7
 195 -336 195 -336 136 -315 c 1,8,-1
 169 -239 l 1,9,10
 180 -217 180 -217 192.5 -217 c 128,-1,11
 205 -217 205 -217 211 -220 c 0,12,13
 216 -222 216 -222 224 -224 c 0,14,15
 256 -232 256 -232 268 -232 c 0,16,17
 290 -232 290 -232 304 -218 c 0,18,19
 318 -202 318 -202 318 -182 c 0,20,21
 318 -144 318 -144 200 -130 c 1,22,-1
 247 -11 l 1,23,24
 80 10 80 10 -8 106 c 1,25,-1
 53 201 l 2,26,27
 75 235 75 235 107 235 c 128,-1,28
 139 235 139 235 157 223 c 0,29,30
 174 211 174 211 198 196 c 0,31,32
 259 157 259 157 321.5 157 c 128,-1,33
 384 157 384 157 416 167 c 0,34,35
 448 176 448 176 470 194 c 0,36,37
 516 229 516 229 516 271.5 c 128,-1,38
 516 314 516 314 498 336 c 128,-1,39
 480 358 480 358 451 374 c 128,-1,40
 422 390 422 390 384.5 402.5 c 128,-1,41
 347 415 347 415 307.5 429 c 128,-1,42
 268 443 268 443 230.5 461.5 c 128,-1,43
 193 480 193 480 164 506 c 0,44,45
 99 565 99 565 99 647 c 128,-1,46
 99 729 99 729 125.5 791 c 128,-1,47
 152 853 152 853 204 901 c 0,48,49
 318 1007 318 1007 503 1007 c 0,50,51
 694 1007 694 1007 814 892 c 1,52,-1
 751 802 l 2,53,54
 730 772 730 772 707 772 c 128,-1,55
 684 772 684 772 666 782 c 0,56,57
 646 791 646 791 622 803 c 0,58,59
 560 834 560 834 484 834 c 0,60,61
 409 834 409 834 365.5 801.5 c 128,-1,62
 322 769 322 769 322 725.5 c 128,-1,63
 322 682 322 682 353 656.5 c 128,-1,64
 384 631 384 631 430.5 610.5 c 128,-1,65
 477 590 477 590 531 570 c 0,66,67
 586 550 586 550 632 521 c 0,68,69
 740 453 740 453 740 340 c 0,70,71
 740 211 740 211 650 115 c 0,72,73
 556 15 556 15 401 -8 c 1,74,-1
 384 -53 l 1,0,1
EndSplineSet
Validated: 1
Substitution2: "sous-table 'salt' Alternatives stylistiques dans Latin lookup 8" uni0219
EndChar

StartChar: s_t.dlig
Encoding: 2155 -1 120
Width: 1477
GlyphClass: 3
Flags: MW
LayerCount: 2
Fore
SplineSet
1409 72 m 1,0,1
 1296 -15 1296 -15 1161.5 -15 c 128,-1,2
 1027 -15 1027 -15 969 58.5 c 128,-1,3
 911 132 911 132 927 261 c 2,4,-1
 991 788 l 1,5,-1
 904 788 l 2,6,7
 885 788 885 788 872.5 800 c 128,-1,8
 860 812 860 812 863 838 c 2,9,-1
 875 934 l 1,10,-1
 1024 961 l 1,11,-1
 1100 1143 l 2,12,13
 1153 1270 1153 1270 1114 1344 c 0,14,15
 1077 1415 1077 1415 970 1414 c 0,16,17
 851 1414 851 1414 769 1334 c 0,18,19
 692 1258 692 1258 682 1146 c 0,20,21
 672 1029 672 1029 740 933 c 1,22,23
 773 909 773 909 792 892 c 1,24,-1
 729 802 l 2,25,26
 708 772 708 772 685 772 c 128,-1,27
 662 772 662 772 644 782 c 0,28,29
 624 791 624 791 600 803 c 0,30,31
 538 834 538 834 462 834 c 0,32,33
 387 834 387 834 343.5 801.5 c 128,-1,34
 300 769 300 769 300 725.5 c 128,-1,35
 300 682 300 682 331 656.5 c 128,-1,36
 362 631 362 631 408.5 610.5 c 128,-1,37
 455 590 455 590 509 570 c 0,38,39
 564 550 564 550 610 521 c 0,40,41
 718 453 718 453 718 340 c 0,42,43
 718 190 718 190 602 90 c 0,44,45
 480 -16 480 -16 288 -15 c 0,46,47
 141 -15 141 -15 28 58 c 0,48,49
 -6 80 -6 80 -30 106 c 1,50,-1
 31 201 l 2,51,52
 53 235 53 235 85 235 c 128,-1,53
 117 235 117 235 135 223 c 0,54,55
 152 211 152 211 176 196 c 0,56,57
 237 157 237 157 299.5 157 c 128,-1,58
 362 157 362 157 394 167 c 0,59,60
 426 176 426 176 448 194 c 0,61,62
 494 229 494 229 494 271.5 c 128,-1,63
 494 314 494 314 476 336 c 128,-1,64
 458 358 458 358 429 374 c 128,-1,65
 400 390 400 390 362.5 402.5 c 128,-1,66
 325 415 325 415 285.5 429 c 128,-1,67
 246 443 246 443 208.5 461.5 c 128,-1,68
 171 480 171 480 142 506 c 0,69,70
 77 565 77 565 77 647 c 128,-1,71
 77 729 77 729 103.5 791 c 128,-1,72
 130 853 130 853 182 901 c 0,73,74
 296 1007 296 1007 481 1007 c 0,75,76
 534 1007 534 1007 582 997 c 1,77,78
 530 1178 530 1178 636 1340 c 0,79,80
 704 1444 704 1444 835 1490 c 0,81,82
 900 1512 900 1512 986.5 1512.5 c 128,-1,83
 1073 1513 1073 1513 1135 1485.5 c 128,-1,84
 1197 1458 1197 1458 1233 1412 c 0,85,86
 1302 1323 1302 1323 1285 1186 c 2,87,-1
 1257 961 l 1,88,-1
 1491 961 l 1,89,-1
 1469 788 l 1,90,-1
 1235 788 l 1,91,-1
 1173 276 l 2,92,93
 1168 231 1168 231 1184 205.5 c 128,-1,94
 1200 180 1200 180 1225.5 180 c 128,-1,95
 1251 180 1251 180 1264 185 c 0,96,97
 1276 190 1276 190 1286 196 c 0,98,99
 1322 221 1322 221 1333 212 c 128,-1,100
 1344 203 1344 203 1349 190 c 1,101,-1
 1409 72 l 1,0,1
EndSplineSet
Validated: 33
LCarets2: 1 0
Ligature2: "sous-table 'dlig' Ligatures facultatives  dans Latin lookup 36" s t
EndChar

StartChar: glyph121
Encoding: 2156 -1 121
Width: 1477
GlyphClass: 3
Flags: MW
LayerCount: 2
Fore
SplineSet
370 -53 m 1,0,1
 496 -87 496 -87 496 -178 c 0,2,3
 496 -250 496 -250 426 -294 c 0,4,5
 359 -336 359 -336 252 -336 c 0,6,7
 181 -336 181 -336 122 -315 c 1,8,-1
 155 -239 l 1,9,10
 166 -217 166 -217 178.5 -217 c 128,-1,11
 191 -217 191 -217 197 -220 c 0,12,13
 202 -222 202 -222 210 -224 c 0,14,15
 242 -232 242 -232 254 -232 c 0,16,17
 276 -232 276 -232 290 -218 c 0,18,19
 304 -202 304 -202 304 -182 c 0,20,21
 304 -144 304 -144 186 -130 c 1,22,-1
 232 -13 l 1,23,24
 51 3 51 3 -43 106 c 1,25,-1
 18 201 l 2,26,27
 40 235 40 235 72 235 c 128,-1,28
 104 235 104 235 122 223 c 128,-1,29
 140 211 140 211 164 196 c 0,30,31
 225 157 225 157 287 157 c 128,-1,32
 349 157 349 157 381 167 c 0,33,34
 414 176 414 176 436 194 c 0,35,36
 482 229 482 229 481.5 271.5 c 128,-1,37
 481 314 481 314 463 336 c 128,-1,38
 445 358 445 358 416 374 c 128,-1,39
 387 390 387 390 349.5 402.5 c 128,-1,40
 312 415 312 415 272.5 429 c 128,-1,41
 233 443 233 443 195.5 461.5 c 128,-1,42
 158 480 158 480 129 506 c 0,43,44
 64 565 64 565 64 647 c 128,-1,45
 64 729 64 729 90 791 c 128,-1,47
 116 853 116 853 168 901 c 0,48,49
 283 1007 283 1007 468 1007 c 0,50,51
 548 1007 548 1007 621 984 c 1,52,53
 605 1041 605 1041 605 1111.5 c 128,-1,54
 605 1182 605 1182 628 1256 c 0,55,56
 652 1330 652 1330 700 1387 c 0,57,58
 807 1513 807 1513 1006 1513 c 0,59,60
 1177 1513 1177 1513 1258 1410 c 0,61,62
 1328 1321 1328 1321 1312 1184 c 1,63,-1
 1287 984 l 1,64,-1
 1519 984 l 1,65,-1
 1497 810 l 1,66,-1
 1266 810 l 1,67,-1
 1202 277 l 1,68,69
 1192 181 1192 181 1257 181 c 0,70,71
 1285 181 1285 181 1309 197 c 128,-1,72
 1333 213 1333 213 1343 213 c 0,73,74
 1359 213 1359 213 1371 190 c 2,75,-1
 1429 72 l 1,76,77
 1318 -15 1318 -15 1184.5 -15 c 128,-1,78
 1051 -15 1051 -15 995 58 c 128,-1,79
 939 131 939 131 955 261 c 2,80,-1
 1021 810 l 1,81,-1
 938 810 l 2,82,83
 918 810 918 810 906 823 c 128,-1,84
 894 836 894 836 897 862 c 2,85,-1
 909 958 l 1,86,-1
 1069 988 l 1,87,88
 1143 1141 1143 1141 1149.5 1201.5 c 128,-1,89
 1156 1262 1156 1262 1151 1296.5 c 128,-1,90
 1146 1331 1146 1331 1128 1357 c 0,91,92
 1089 1414 1089 1414 1006.5 1414 c 128,-1,93
 924 1414 924 1414 873 1390 c 128,-1,94
 822 1366 822 1366 788 1326 c 0,95,96
 720 1246 720 1246 719 1118 c 256,97,98
 719 982 719 982 810 885 c 1,99,-1
 733 827 l 1,100,-1
 716 802 l 2,101,102
 695 772 695 772 672 772 c 128,-1,103
 649 772 649 772 630.5 781.5 c 128,-1,104
 612 791 612 791 588 803 c 0,105,106
 525 834 525 834 449.5 834 c 128,-1,107
 374 834 374 834 330.5 801.5 c 128,-1,108
 287 769 287 769 287 725.5 c 128,-1,109
 287 682 287 682 318 656.5 c 128,-1,110
 349 631 349 631 395.5 610.5 c 128,-1,111
 442 590 442 590 496 570 c 128,-1,112
 550 550 550 550 596 521 c 0,113,114
 704 453 704 453 705 340 c 0,115,116
 705 216 705 216 621 122 c 0,117,118
 534 26 534 26 389 -4 c 1,119,-1
 370 -53 l 1,0,1
EndSplineSet
Validated: 33
EndChar

StartChar: germandbls
Encoding: 158 223 122
Width: 1136
GlyphClass: 2
Flags: MW
LayerCount: 2
Fore
SplineSet
563 1384 m 128,-1,1
 648 1420 648 1420 730.5 1420 c 128,-1,2
 813 1420 813 1420 867 1406 c 128,-1,3
 921 1392 921 1392 961.5 1369 c 128,-1,4
 1002 1346 1002 1346 1030 1316 c 0,5,6
 1059 1286 1059 1286 1077 1252 c 0,7,8
 1111 1188 1111 1188 1111 1122 c 0,9,10
 1111 1055 1111 1055 1090.5 1010.5 c 128,-1,11
 1070 966 1070 966 1039.5 934 c 128,-1,12
 1009 902 1009 902 973 878 c 0,13,14
 936 856 936 856 906 834 c 0,15,16
 834 781 834 781 835 734 c 0,17,18
 835 691 835 691 903 642 c 0,19,20
 932 621 932 621 966 598 c 0,21,22
 1001 574 1001 574 1030 542 c 0,23,24
 1098 467 1098 467 1098 367 c 0,25,26
 1098 268 1098 268 1064 198 c 128,-1,27
 1030 128 1030 128 974 80 c 0,28,29
 860 -15 860 -15 693 -15 c 0,30,31
 610 -15 610 -15 536 19.5 c 128,-1,32
 462 54 462 54 412 106 c 1,33,-1
 481 198 l 1,34,35
 507 231 507 231 538.5 231 c 128,-1,36
 570 231 570 231 588 218 c 0,37,38
 606 206 606 206 626 192 c 0,39,40
 682 153 682 153 721.5 152.5 c 128,-1,41
 761 152 761 152 784.5 163 c 128,-1,42
 808 174 808 174 826 194 c 0,43,44
 864 237 864 237 864 286.5 c 128,-1,45
 864 336 864 336 842.5 367.5 c 128,-1,46
 821 399 821 399 788 426.5 c 128,-1,47
 755 454 755 454 717.5 480 c 128,-1,48
 680 506 680 506 647 534 c 0,49,50
 571 597 571 597 571 663 c 128,-1,51
 571 729 571 729 593.5 774.5 c 128,-1,52
 616 820 616 820 649.5 853.5 c 128,-1,53
 683 887 683 887 722.5 913.5 c 128,-1,54
 762 940 762 940 796 968 c 0,55,56
 874 1034 874 1034 874 1111 c 0,57,58
 874 1204 874 1204 786 1236 c 0,59,60
 756 1247 756 1247 705 1247 c 128,-1,61
 654 1247 654 1247 607 1214 c 0,62,63
 560 1180 560 1180 526 1126 c 0,64,65
 458 1019 458 1019 438 858 c 2,66,-1
 339 42 l 1,67,-1
 288 -136 l 2,68,69
 258 -239 258 -239 158 -239 c 2,70,-1
 56 -239 l 1,71,-1
 183 808 l 1,72,-1
 95 825 l 2,73,74
 36 836 36 836 41 884 c 2,75,-1
 52 982 l 1,76,-1
 215 982 l 1,77,78
 273 1166 273 1166 410 1288 c 0,79,0
 478 1348 478 1348 563 1384 c 128,-1,1
EndSplineSet
Validated: 33
EndChar

StartChar: longs
Encoding: 318 383 123
Width: 529
GlyphClass: 2
Flags: MW
LayerCount: 2
Fore
SplineSet
340 43 m 1,0,-1
 290 -135 l 2,1,2
 261 -238 261 -238 160 -238 c 2,3,-1
 58 -238 l 1,4,-1
 185 806 l 1,5,-1
 96 823 l 2,6,7
 33 834 33 834 41 883 c 1,8,-1
 51 983 l 1,9,-1
 206 983 l 1,10,-1
 215 1055 l 1,11,12
 235 1226 235 1226 344.5 1324 c 128,-1,13
 454 1422 454 1422 621 1422 c 0,14,15
 677 1422 677 1422 741 1402 c 1,16,-1
 719 1277 l 2,17,18
 714 1254 714 1254 692 1250 c 128,-1,19
 670 1246 670 1246 636.5 1246 c 128,-1,20
 603 1246 603 1246 572 1236 c 0,21,22
 542 1226 542 1226 520 1202 c 0,23,24
 475 1153 475 1153 463 1047 c 1,25,-1
 340 43 l 1,0,-1
EndSplineSet
Validated: 33
EndChar

StartChar: t
Encoding: 86 116 124
Width: 710
GlyphClass: 2
Flags: MW
LayerCount: 2
Fore
SplineSet
645 72 m 1,0,1
 532 -15 532 -15 387 -15 c 0,2,3
 215 -14 215 -14 163 118 c 0,4,5
 146 162 146 162 146 193.5 c 128,-1,6
 146 225 146 225 146 236 c 0,7,8
 146 248 146 248 148 266 c 0,9,10
 151 308 151 308 159 373 c 1,11,-1
 213 806 l 1,12,-1
 119 806 l 2,13,14
 101 806 101 806 89.5 819.5 c 128,-1,15
 78 833 78 833 81 859 c 2,16,-1
 93 960 l 1,17,-1
 248 989 l 1,18,-1
 329 1251 l 1,19,20
 343 1292 343 1292 386 1292 c 2,21,-1
 522 1292 l 1,22,-1
 484 986 l 1,23,-1
 729 986 l 1,24,-1
 709 806 l 1,25,-1
 461 806 l 1,26,-1
 409 386 l 2,27,28
 404 348 404 348 401.5 325 c 128,-1,29
 399 302 399 302 397.5 289 c 128,-1,30
 396 276 396 276 396 270 c 2,31,-1
 396 263 l 2,32,33
 396 188 396 188 466 188 c 0,34,35
 499 188 499 188 525.5 203 c 128,-1,36
 552 218 552 218 566 218 c 128,-1,37
 580 218 580 218 590 195 c 2,38,-1
 645 72 l 1,0,1
EndSplineSet
Validated: 1
Substitution2: "sous-table 'ordn' Ordinaux dans Latin lookup 39" t.superior
Substitution2: "sous-table 'sups' Exposant lookups25" t.superior
EndChar

StartChar: tcaron
Encoding: 292 357 125
Width: 744
GlyphClass: 2
Flags: MW
LayerCount: 2
Fore
SplineSet
622 72 m 1,0,1
 509 -15 509 -15 364 -15 c 0,2,3
 192 -14 192 -14 140 118 c 0,4,5
 123 162 123 162 123 193.5 c 128,-1,6
 123 225 123 225 124 236 c 0,7,8
 124 248 124 248 126 266 c 0,9,10
 129 308 129 308 136 373 c 1,11,-1
 190 806 l 1,12,-1
 96 806 l 2,13,14
 78 806 78 806 66.5 819.5 c 128,-1,15
 55 833 55 833 58 859 c 2,16,-1
 70 960 l 1,17,-1
 225 989 l 1,18,-1
 306 1251 l 1,19,20
 320 1292 320 1292 363 1292 c 2,21,-1
 499 1292 l 1,22,-1
 461 986 l 1,23,-1
 706 986 l 1,24,-1
 686 806 l 1,25,-1
 438 806 l 1,26,-1
 386 386 l 2,27,28
 381 348 381 348 378.5 325 c 128,-1,29
 376 302 376 302 374.5 289 c 128,-1,30
 373 276 373 276 373 270 c 2,31,-1
 373 263 l 2,32,33
 373 188 373 188 443 188 c 0,34,35
 476 188 476 188 502.5 203 c 128,-1,36
 529 218 529 218 543 218 c 128,-1,37
 557 218 557 218 567 195 c 2,38,-1
 622 72 l 1,0,1
848 1437 m 2,39,40
 885 1437 885 1437 885 1407 c 0,41,42
 885 1370 885 1370 760 1146 c 0,43,44
 744 1117 744 1117 723 1109.5 c 128,-1,45
 702 1102 702 1102 670 1102 c 2,46,-1
 584 1102 l 1,47,-1
 685 1437 l 1,48,-1
 848 1437 l 2,39,40
EndSplineSet
Validated: 1
EndChar

StartChar: tbar
Encoding: 294 359 126
Width: 726
GlyphClass: 2
Flags: MW
LayerCount: 2
Fore
SplineSet
657 72 m 1,0,1
 544 -15 544 -15 399 -15 c 0,2,3
 227 -14 227 -14 175 118 c 0,4,5
 158 162 158 162 158 193.5 c 128,-1,6
 158 225 158 225 158 236 c 0,7,8
 158 248 158 248 160 266 c 0,9,10
 163 308 163 308 171 373 c 2,11,-1
 188 514 l 1,12,-1
 82 514 l 2,13,14
 62 514 62 514 48 528.5 c 128,-1,15
 34 543 34 543 37 568 c 2,16,-1
 49 670 l 1,17,-1
 208 670 l 1,18,-1
 225 806 l 1,19,-1
 131 806 l 2,20,21
 113 806 113 806 101.5 819.5 c 128,-1,22
 90 833 90 833 93 859 c 2,23,-1
 105 960 l 1,24,-1
 260 989 l 1,25,-1
 341 1251 l 1,26,27
 355 1292 355 1292 398 1292 c 2,28,-1
 534 1292 l 1,29,-1
 496 986 l 1,30,-1
 741 986 l 1,31,-1
 721 806 l 1,32,-1
 473 806 l 1,33,-1
 456 670 l 1,34,-1
 699 670 l 1,35,-1
 680 514 l 1,36,-1
 437 514 l 1,37,-1
 421 386 l 2,38,39
 416 348 416 348 413.5 325 c 128,-1,40
 411 302 411 302 409.5 289 c 128,-1,41
 408 276 408 276 408 270 c 2,42,-1
 408 263 l 2,43,44
 408 188 408 188 478 188 c 0,45,46
 511 188 511 188 537.5 203 c 128,-1,47
 564 218 564 218 578 218 c 128,-1,48
 592 218 592 218 602 195 c 2,49,-1
 657 72 l 1,0,1
EndSplineSet
Validated: 1
EndChar

StartChar: t_f.liga
Encoding: 2157 -1 127
Width: 1296
GlyphClass: 3
Flags: MW
LayerCount: 2
Fore
SplineSet
655 72 m 1,0,1
 540 -15 540 -15 402 -15 c 128,-1,2
 264 -15 264 -15 205 58.5 c 128,-1,3
 146 132 146 132 162 261 c 2,4,-1
 228 810 l 1,5,-1
 138 810 l 2,6,7
 92 810 92 810 96 862 c 1,8,-1
 108 958 l 1,9,-1
 262 986 l 1,10,-1
 347 1253 l 2,11,12
 360 1293 360 1293 406 1293 c 2,13,-1
 532 1293 l 1,14,-1
 494 984 l 1,15,-1
 893 984 l 1,16,-1
 902 1056 l 1,17,18
 922 1227 922 1227 1032 1324 c 0,19,20
 1143 1422 1143 1422 1309 1422 c 0,21,22
 1372 1422 1372 1422 1430 1404 c 1,23,-1
 1410 1282 l 2,24,25
 1405 1253 1405 1253 1381 1245.5 c 128,-1,26
 1357 1238 1357 1238 1323.5 1238 c 128,-1,27
 1290 1238 1290 1238 1257.5 1229 c 128,-1,28
 1225 1220 1225 1220 1201 1198 c 0,29,30
 1152 1153 1152 1153 1139 1048 c 1,31,-1
 1130 984 l 1,32,-1
 1369 984 l 1,33,-1
 1348 810 l 1,34,-1
 1117 810 l 1,35,-1
 1018 0 l 1,36,-1
 773 0 l 1,37,-1
 872 810 l 1,38,-1
 473 810 l 1,39,-1
 408 277 l 2,40,41
 402 231 402 231 419.5 206 c 128,-1,42
 437 181 437 181 464 181 c 128,-1,43
 491 181 491 181 505 186 c 128,-1,44
 519 191 519 191 529.5 197 c 128,-1,45
 540 203 540 203 548 208 c 128,-1,47
 556 213 556 213 566 213 c 0,48,49
 583 213 583 213 595 190 c 2,50,-1
 655 72 l 1,0,1
EndSplineSet
Validated: 33
LCarets2: 1 0
Ligature2: "sous-table 'liga' Ligatures standard dans Latin lookup 37" t f
EndChar

StartChar: t_iogonek.liga
Encoding: 2158 -1 128
Width: 1199
GlyphClass: 3
Flags: MW
LayerCount: 2
Fore
SplineSet
912 -139 m 0,0,1
 912 -192 912 -192 965 -192 c 0,2,3
 995 -192 995 -192 1010.5 -185 c 128,-1,4
 1026 -178 1026 -178 1031 -178 c 0,5,6
 1048 -178 1048 -178 1053 -194 c 2,7,-1
 1078 -284 l 1,8,9
 1004 -333 1004 -333 907.5 -333 c 128,-1,10
 811 -333 811 -333 766.5 -297.5 c 128,-1,11
 722 -262 722 -262 722 -206 c 256,12,13
 722 -92 722 -92 875 0 c 1,14,-1
 799 0 l 1,15,-1
 898 810 l 1,16,-1
 472 810 l 1,17,-1
 407 277 l 2,18,19
 402 231 402 231 419 206 c 128,-1,20
 436 181 436 181 463 181 c 128,-1,21
 490 181 490 181 504 186 c 128,-1,22
 518 191 518 191 528.5 197 c 128,-1,23
 539 203 539 203 547.5 208 c 128,-1,24
 556 213 556 213 566 213 c 0,25,26
 582 213 582 213 595 190 c 1,27,-1
 654 72 l 1,28,29
 539 -15 539 -15 401 -15 c 128,-1,30
 263 -15 263 -15 204 58 c 128,-1,31
 145 131 145 131 161 261 c 2,32,-1
 228 810 l 1,33,-1
 138 810 l 2,34,35
 118 810 118 810 105.5 823 c 128,-1,36
 93 836 93 836 96 862 c 2,37,-1
 108 958 l 1,38,-1
 262 986 l 1,39,-1
 347 1253 l 2,40,41
 360 1293 360 1293 406 1293 c 2,42,-1
 532 1293 l 1,43,-1
 494 984 l 1,44,-1
 1164 984 l 1,45,-1
 1144 810 l 1,46,-1
 1143 810 l 1,47,-1
 1044 0 l 1,48,-1
 1023 0 l 1,49,50
 912 -58 912 -58 912 -139 c 0,0,1
924 1253 m 128,-1,52
 924 1299 924 1299 938 1330 c 0,53,54
 952 1360 952 1360 976 1384 c 0,55,56
 1028 1436 1028 1436 1095 1436 c 0,57,58
 1154 1436 1154 1436 1194 1394 c 128,-1,59
 1234 1352 1234 1352 1233 1306 c 0,60,61
 1233 1226 1233 1226 1179.5 1176.5 c 128,-1,62
 1126 1127 1126 1127 1063.5 1127 c 128,-1,63
 1001 1127 1001 1127 962.5 1167 c 128,-1,51
 924 1207 924 1207 924 1253 c 128,-1,52
EndSplineSet
Validated: 33
LCarets2: 1 0
Ligature2: "sous-table 'liga' Ligatures standard dans Latin lookup 37" t iogonek
EndChar

StartChar: t_dotlessi.liga
Encoding: 2159 -1 129
Width: 1199
GlyphClass: 3
Flags: MW
LayerCount: 2
Fore
SplineSet
654 72 m 1,0,1
 539 -15 539 -15 401 -15 c 128,-1,2
 263 -15 263 -15 204 58 c 128,-1,3
 145 131 145 131 161 261 c 2,4,-1
 228 810 l 1,5,-1
 138 810 l 2,6,7
 118 810 118 810 105.5 823 c 128,-1,8
 93 836 93 836 96 862 c 2,9,-1
 108 958 l 1,10,-1
 262 986 l 1,11,-1
 347 1253 l 2,12,13
 360 1293 360 1293 406 1293 c 2,14,-1
 532 1293 l 1,15,-1
 494 984 l 1,16,-1
 1164 984 l 1,17,-1
 1144 810 l 1,18,-1
 1143 810 l 1,19,-1
 1044 0 l 1,20,-1
 799 0 l 1,21,-1
 898 810 l 1,22,-1
 472 810 l 1,23,-1
 407 277 l 2,24,25
 402 231 402 231 419 206 c 128,-1,26
 436 181 436 181 463 181 c 128,-1,27
 490 181 490 181 504 186 c 128,-1,28
 518 191 518 191 528.5 197 c 128,-1,29
 539 203 539 203 547.5 208 c 128,-1,30
 556 213 556 213 566 213 c 0,31,32
 582 213 582 213 595 190 c 1,33,-1
 654 72 l 1,0,1
EndSplineSet
Validated: 33
Ligature2: "sous-table 'liga' Ligatures standard dans Latin lookup 37" t dotlessi
EndChar

StartChar: t_t.liga
Encoding: 2160 -1 130
Width: 1344
GlyphClass: 3
Flags: MW
LayerCount: 2
Fore
SplineSet
666 72 m 1,0,1
 551 -15 551 -15 410.5 -15 c 128,-1,2
 270 -15 270 -15 210 58 c 128,-1,3
 150 131 150 131 165 261 c 2,4,-1
 232 810 l 1,5,-1
 139 810 l 2,6,7
 119 810 119 810 106.5 823 c 128,-1,8
 94 836 94 836 97 862 c 2,9,-1
 108 958 l 1,10,-1
 266 986 l 1,11,-1
 352 1253 l 1,12,13
 363 1293 363 1293 411 1293 c 2,14,-1
 536 1293 l 1,15,-1
 498 984 l 1,16,-1
 891 984 l 1,17,-1
 976 1253 l 1,18,19
 990 1293 990 1293 1036 1293 c 2,20,-1
 1162 1293 l 1,21,-1
 1124 984 l 1,22,-1
 1378 984 l 1,23,-1
 1357 810 l 1,24,-1
 1102 810 l 1,25,-1
 1037 277 l 2,26,27
 1032 232 1032 232 1049.5 206.5 c 128,-1,28
 1067 181 1067 181 1095.5 181 c 128,-1,29
 1124 181 1124 181 1138.5 186 c 128,-1,30
 1153 191 1153 191 1164 197 c 128,-1,31
 1175 203 1175 203 1183.5 208 c 128,-1,32
 1192 213 1192 213 1202 213 c 0,33,34
 1220 213 1220 213 1231 190 c 2,35,-1
 1291 72 l 1,36,37
 1176 -15 1176 -15 1035 -15 c 128,-1,38
 894 -15 894 -15 834.5 58 c 128,-1,39
 775 131 775 131 790 261 c 1,40,-1
 858 810 l 1,41,-1
 476 810 l 1,42,-1
 411 277 l 2,43,44
 406 231 406 231 424 206 c 128,-1,45
 442 181 442 181 470.5 181 c 128,-1,46
 499 181 499 181 513.5 186 c 128,-1,47
 528 191 528 191 539 197 c 128,-1,48
 550 203 550 203 558.5 208 c 128,-1,49
 567 213 567 213 577 213 c 0,50,51
 595 213 595 213 606 190 c 2,52,-1
 666 72 l 1,0,1
EndSplineSet
Validated: 33
Ligature2: "sous-table 'liga' Ligatures standard dans Latin lookup 37" t t
EndChar

StartChar: t_t_f.liga
Encoding: 2161 -1 131
Width: 1930
GlyphClass: 3
Flags: MW
LayerCount: 2
Fore
SplineSet
661 72 m 1,0,1
 546 -15 546 -15 406.5 -15 c 128,-1,2
 267 -15 267 -15 207.5 58 c 128,-1,3
 148 131 148 131 164 261 c 2,4,-1
 230 810 l 1,5,-1
 138 810 l 2,6,7
 118 810 118 810 106 823 c 128,-1,8
 94 836 94 836 97 862 c 2,9,-1
 108 958 l 1,10,-1
 264 986 l 1,11,-1
 350 1253 l 1,12,13
 361 1293 361 1293 409 1293 c 2,14,-1
 534 1293 l 1,15,-1
 496 984 l 1,16,-1
 884 984 l 1,17,-1
 969 1253 l 1,18,19
 983 1293 983 1293 1028 1293 c 2,20,-1
 1155 1293 l 1,21,-1
 1117 984 l 1,22,-1
 1522 984 l 1,23,-1
 1531 1056 l 1,24,25
 1551 1227 1551 1227 1661 1324 c 0,26,27
 1772 1422 1772 1422 1941 1422 c 0,28,29
 2005 1422 2005 1422 2063 1404 c 1,30,-1
 2042 1282 l 2,31,32
 2037 1253 2037 1253 2013.5 1245.5 c 128,-1,33
 1990 1238 1990 1238 1955.5 1238 c 128,-1,34
 1921 1238 1921 1238 1888.5 1229 c 128,-1,35
 1856 1220 1856 1220 1832 1198 c 0,36,37
 1782 1153 1782 1153 1768 1048 c 1,38,-1
 1759 984 l 1,39,-1
 2001 984 l 1,40,-1
 1981 810 l 1,41,-1
 1746 810 l 1,42,-1
 1646 0 l 1,43,-1
 1402 0 l 1,44,-1
 1501 810 l 1,45,-1
 1095 810 l 1,46,-1
 1030 277 l 2,47,48
 1025 232 1025 232 1042 206.5 c 128,-1,49
 1059 181 1059 181 1087 181 c 128,-1,50
 1115 181 1115 181 1129 186 c 128,-1,51
 1143 191 1143 191 1154 197 c 128,-1,52
 1165 203 1165 203 1173.5 208 c 128,-1,53
 1182 213 1182 213 1192 213 c 0,54,55
 1210 213 1210 213 1221 190 c 2,56,-1
 1281 72 l 1,57,58
 1166 -15 1166 -15 1026 -15 c 128,-1,59
 886 -15 886 -15 827 58 c 128,-1,60
 768 131 768 131 783 261 c 1,61,-1
 851 810 l 1,62,-1
 475 810 l 1,63,-1
 410 277 l 2,64,65
 404 231 404 231 422 206 c 128,-1,66
 440 181 440 181 467.5 181 c 128,-1,67
 495 181 495 181 509 186 c 128,-1,68
 523 191 523 191 534 197 c 128,-1,69
 545 203 545 203 553.5 208 c 128,-1,70
 562 213 562 213 572 213 c 0,71,72
 590 213 590 213 601 190 c 2,73,-1
 661 72 l 1,0,1
EndSplineSet
Validated: 33
Ligature2: "sous-table 'liga' Ligatures standard dans Latin lookup 37" t t f
EndChar

StartChar: t_t_iogonek.liga
Encoding: 2162 -1 132
Width: 1832
GlyphClass: 3
Flags: MW
LayerCount: 2
Fore
SplineSet
1617 0 m 1,0,1
 1511 -58 1511 -58 1511 -139 c 256,2,3
 1511 -162 1511 -162 1524 -177 c 128,-1,4
 1537 -192 1537 -192 1556.5 -192 c 128,-1,5
 1576 -192 1576 -192 1586 -190 c 128,-1,6
 1596 -188 1596 -188 1603 -185 c 128,-1,7
 1610 -182 1610 -182 1614 -180 c 128,-1,8
 1618 -178 1618 -178 1623 -178 c 0,9,10
 1639 -178 1639 -178 1644 -194 c 2,11,-1
 1668 -285 l 1,12,13
 1593 -334 1593 -334 1500 -334 c 128,-1,14
 1407 -334 1407 -334 1364.5 -298 c 128,-1,15
 1322 -262 1322 -262 1322 -207 c 0,16,17
 1322 -90 1322 -90 1472 0 c 1,18,-1
 1427 0 l 1,19,-1
 1526 810 l 1,20,-1
 1104 810 l 1,21,-1
 1039 277 l 2,22,23
 1034 232 1034 232 1051.5 206.5 c 128,-1,24
 1069 181 1069 181 1097.5 181 c 128,-1,25
 1126 181 1126 181 1140.5 186 c 128,-1,26
 1155 191 1155 191 1166.5 197 c 128,-1,27
 1178 203 1178 203 1186.5 208 c 128,-1,28
 1195 213 1195 213 1205 213 c 0,29,30
 1223 213 1223 213 1234 190 c 2,31,-1
 1294 72 l 1,32,33
 1179 -15 1179 -15 1038 -15 c 128,-1,34
 897 -15 897 -15 837 58.5 c 128,-1,35
 777 132 777 132 792 261 c 2,36,-1
 860 810 l 1,37,-1
 477 810 l 1,38,-1
 412 277 l 2,39,40
 406 231 406 231 424 206 c 128,-1,41
 442 181 442 181 470.5 181 c 128,-1,42
 499 181 499 181 513.5 186 c 128,-1,43
 528 191 528 191 539.5 197 c 128,-1,44
 551 203 551 203 559.5 208 c 128,-1,45
 568 213 568 213 578 213 c 0,46,47
 596 213 596 213 607 190 c 2,48,-1
 667 72 l 1,49,50
 552 -15 552 -15 411 -15 c 128,-1,51
 270 -15 270 -15 210 58 c 128,-1,52
 150 131 150 131 166 261 c 2,53,-1
 232 810 l 1,54,-1
 139 810 l 2,55,56
 93 810 93 810 97 862 c 1,57,-1
 109 958 l 1,58,-1
 266 986 l 1,59,-1
 352 1253 l 2,60,61
 365 1293 365 1293 411 1293 c 2,62,-1
 537 1293 l 1,63,-1
 499 984 l 1,64,-1
 893 984 l 1,65,-1
 978 1253 l 1,66,67
 992 1293 992 1293 1038 1293 c 2,68,-1
 1164 1293 l 1,69,-1
 1126 984 l 1,70,-1
 1792 984 l 1,71,-1
 1672 0 l 1,72,-1
 1617 0 l 1,0,1
1552 1253 m 128,-1,74
 1552 1299 1552 1299 1566 1330.5 c 128,-1,75
 1580 1362 1580 1362 1604 1386 c 0,76,77
 1656 1436 1656 1436 1723 1436 c 0,78,79
 1781 1436 1781 1436 1822 1394 c 0,80,81
 1862 1353 1862 1353 1862 1306 c 0,82,83
 1862 1225 1862 1225 1808.5 1176 c 128,-1,84
 1755 1127 1755 1127 1692 1127 c 128,-1,85
 1629 1127 1629 1127 1590.5 1167 c 128,-1,73
 1552 1207 1552 1207 1552 1253 c 128,-1,74
EndSplineSet
Validated: 33
Ligature2: "sous-table 'liga' Ligatures standard dans Latin lookup 37" t t iogonek
EndChar

StartChar: t_t_dotlessi.liga
Encoding: 2163 -1 133
Width: 1832
GlyphClass: 3
Flags: MW
LayerCount: 2
Fore
SplineSet
667 72 m 1,0,1
 552 -15 552 -15 411 -15 c 128,-1,2
 270 -15 270 -15 210 58 c 128,-1,3
 150 131 150 131 166 261 c 2,4,-1
 232 810 l 1,5,-1
 139 810 l 2,6,7
 93 810 93 810 97 862 c 1,8,-1
 109 958 l 1,9,-1
 266 986 l 1,10,-1
 352 1253 l 2,11,12
 365 1293 365 1293 411 1293 c 2,13,-1
 537 1293 l 1,14,-1
 499 984 l 1,15,-1
 892 984 l 1,16,-1
 978 1253 l 1,17,18
 992 1293 992 1293 1037 1293 c 2,19,-1
 1164 1293 l 1,20,-1
 1126 984 l 1,21,-1
 1791 984 l 1,22,-1
 1771 810 l 1,23,-1
 1770 810 l 1,24,-1
 1671 0 l 1,25,-1
 1426 0 l 1,26,-1
 1525 810 l 1,27,-1
 1104 810 l 1,28,-1
 1039 277 l 2,29,30
 1033 232 1033 232 1050.5 206.5 c 128,-1,31
 1068 181 1068 181 1097 181 c 128,-1,32
 1126 181 1126 181 1140.5 186 c 128,-1,33
 1155 191 1155 191 1166 197 c 128,-1,34
 1177 203 1177 203 1185.5 208 c 128,-1,35
 1194 213 1194 213 1204 213 c 0,36,37
 1222 213 1222 213 1233 190 c 2,38,-1
 1293 72 l 1,39,40
 1178 -15 1178 -15 1037 -15 c 128,-1,41
 896 -15 896 -15 836 58.5 c 128,-1,42
 776 132 776 132 792 261 c 2,43,-1
 859 810 l 1,44,-1
 477 810 l 1,45,-1
 412 277 l 2,46,47
 406 231 406 231 424 206 c 128,-1,48
 442 181 442 181 470.5 181 c 128,-1,49
 499 181 499 181 513.5 186 c 128,-1,50
 528 191 528 191 539.5 197 c 128,-1,51
 551 203 551 203 559.5 208 c 128,-1,52
 568 213 568 213 578 213 c 0,53,54
 596 213 596 213 607 190 c 2,55,-1
 667 72 l 1,0,1
EndSplineSet
Validated: 33
Ligature2: "sous-table 'liga' Ligatures standard dans Latin lookup 37" t t dotlessi
EndChar

StartChar: u
Encoding: 87 117 134
Width: 1080
GlyphClass: 2
Flags: MW
LayerCount: 2
Fore
SplineSet
692 191 m 1,0,1
 539 -15 539 -15 333 -15 c 0,2,3
 201 -15 201 -15 132 83 c 0,4,5
 60 184 60 184 82 363 c 2,6,-1
 157 993 l 1,7,-1
 411 993 l 1,8,-1
 336 363 l 2,9,10
 325 270 325 270 347.5 231 c 128,-1,11
 370 192 370 192 419 192 c 128,-1,12
 468 192 468 192 509 213 c 128,-1,13
 550 234 550 234 588 272 c 0,14,15
 671 355 671 355 713 487 c 1,16,-1
 773 993 l 1,17,-1
 1027 993 l 1,18,-1
 906 0 l 1,19,-1
 779 0 l 2,20,21
 685 0 685 0 688 87 c 2,22,-1
 692 191 l 1,0,1
EndSplineSet
Validated: 33
Substitution2: "sous-table 'ordn' Ordinaux dans Latin lookup 39" u.superior
Substitution2: "sous-table 'sups' Exposant lookups25" u.superior
EndChar

StartChar: uogonek
Encoding: 306 371 135
Width: 1080
GlyphClass: 2
Flags: MW
LayerCount: 2
Fore
SplineSet
692 191 m 1,0,1
 539 -15 539 -15 333 -15 c 0,2,3
 201 -15 201 -15 132 83 c 0,4,5
 60 184 60 184 82 363 c 2,6,-1
 157 993 l 1,7,-1
 411 993 l 1,8,-1
 336 363 l 2,9,10
 325 270 325 270 347.5 231 c 128,-1,11
 370 192 370 192 419 192 c 128,-1,12
 468 192 468 192 509 213 c 128,-1,13
 550 234 550 234 588 272 c 0,14,15
 671 355 671 355 713 487 c 1,16,-1
 773 993 l 1,17,-1
 1027 993 l 1,18,-1
 906 0 l 1,19,-1
 904 0 l 1,20,21
 798 -58 798 -58 798 -139 c 256,22,23
 798 -162 798 -162 811 -177 c 128,-1,24
 824 -192 824 -192 843.5 -192 c 128,-1,25
 863 -192 863 -192 873 -190 c 128,-1,26
 883 -188 883 -188 890 -185 c 128,-1,27
 897 -182 897 -182 901 -180 c 128,-1,28
 905 -178 905 -178 910 -178 c 0,29,30
 926 -178 926 -178 931 -194 c 2,31,-1
 955 -285 l 1,32,33
 880 -334 880 -334 787 -334 c 128,-1,34
 694 -334 694 -334 651.5 -298 c 128,-1,35
 609 -262 609 -262 609 -207 c 0,36,37
 609 -90 609 -90 760 1 c 1,38,39
 685 9 685 9 688 87 c 2,40,-1
 692 191 l 1,0,1
EndSplineSet
Validated: 33
EndChar

StartChar: v
Encoding: 88 118 136
Width: 961
GlyphClass: 2
Flags: MW
LayerCount: 2
Fore
SplineSet
65 993 m 1,0,-1
 274 993 l 2,1,2
 327 993 327 993 336 946 c 1,3,-1
 424 440 l 2,4,5
 439 357 439 357 448 245 c 1,6,7
 479 346 479 346 522 440 c 1,8,-1
 736 947 l 1,9,10
 757 993 757 993 806 993 c 2,11,-1
 1006 993 l 1,12,-1
 522 0 l 1,13,-1
 308 0 l 1,14,-1
 65 993 l 1,0,-1
EndSplineSet
Validated: 1
Substitution2: "sous-table 'ordn' Ordinaux dans Latin lookup 39" v.superior
Substitution2: "sous-table 'sups' Exposant lookups25" v.superior
EndChar

StartChar: w
Encoding: 89 119 137
Width: 1526
GlyphClass: 2
Flags: MW
LayerCount: 2
Fore
SplineSet
70 993 m 1,0,-1
 263 993 l 2,1,2
 289 993 289 993 306 979.5 c 128,-1,3
 323 966 323 966 325 946 c 2,4,-1
 393 440 l 1,5,6
 401 364 401 364 406 269 c 1,7,8
 426 325 426 325 472 440 c 1,9,-1
 702 948 l 1,10,11
 720 994 720 994 771 994 c 2,12,-1
 879 994 l 2,13,14
 933 994 933 994 940 949 c 1,15,-1
 1035 441 l 2,16,17
 1046 380 1046 380 1059 267 c 1,18,19
 1089 374 1089 374 1114 440 c 1,20,-1
 1317 947 l 2,21,22
 1335 993 1335 993 1386 993 c 2,23,-1
 1570 993 l 1,24,-1
 1139 0 l 1,25,-1
 943 0 l 2,26,27
 911 0 911 0 904 44 c 1,28,-1
 795 596 l 2,29,30
 789 627 789 627 784 675 c 1,31,32
 777 655 777 655 770 635 c 128,-1,33
 763 615 763 615 755 595 c 2,34,-1
 505 44 l 1,35,36
 487 0 487 0 450 0 c 2,37,-1
 262 0 l 1,38,-1
 70 993 l 1,0,-1
EndSplineSet
Validated: 1
Substitution2: "sous-table 'ordn' Ordinaux dans Latin lookup 39" w.superior
Substitution2: "sous-table 'sups' Exposant lookups25" w.superior
EndChar

StartChar: x
Encoding: 90 120 138
Width: 941
GlyphClass: 2
Flags: MW
LayerCount: 2
Fore
SplineSet
319 536 m 1,0,-1
 110 993 l 1,1,-1
 342 993 l 2,2,3
 382 993 382 993 397 962 c 1,4,-1
 511 682 l 1,5,6
 520 701 520 701 537 725 c 1,7,-1
 679 958 l 1,8,9
 706 993 706 993 736 993 c 2,10,-1
 966 993 l 1,11,-1
 637 538 l 1,12,-1
 868 0 l 1,13,-1
 637 0 l 2,14,15
 595 0 595 0 575 46 c 1,16,-1
 447 375 l 1,17,18
 442 365 442 365 427 341 c 2,19,-1
 241 46 l 1,20,21
 206 0 206 0 173 0 c 2,22,-1
 -52 0 l 1,23,-1
 319 536 l 1,0,-1
EndSplineSet
Validated: 1
Substitution2: "sous-table 'ordn' Ordinaux dans Latin lookup 39" x.superior
Substitution2: "sous-table 'sups' Exposant lookups25" x.superior
EndChar

StartChar: y
Encoding: 91 121 139
Width: 963
GlyphClass: 2
Flags: MW
LayerCount: 2
Fore
SplineSet
368 -270 m 1,0,1
 343 -322 343 -322 288 -322 c 2,2,-1
 99 -322 l 1,3,-1
 320 78 l 1,4,-1
 73 993 l 1,5,-1
 286 993 l 2,6,7
 335 993 335 993 347 946 c 1,8,-1
 456 456 l 1,9,10
 469 389 469 389 473 353 c 1,11,12
 503 425 503 425 520 458 c 1,13,-1
 745 947 l 1,14,15
 768 993 768 993 814 993 c 2,16,-1
 1018 993 l 1,17,-1
 368 -270 l 1,0,1
EndSplineSet
Validated: 1
Substitution2: "sous-table 'ss04' Style 4 lookups34" y.salt
Substitution2: "sous-table 'salt' Alternatives stylistiques lookups28" y.salt
Substitution2: "sous-table 'sups' Exposant lookups25" y.superior
Substitution2: "sous-table 'ordn' Ordinaux dans Latin lookup 39" y.superior
EndChar

StartChar: z
Encoding: 92 122 140
Width: 814
GlyphClass: 2
Flags: MW
LayerCount: 2
Fore
SplineSet
815 889 m 2,0,1
 809 836 809 836 773 793 c 1,2,-1
 321 194 l 1,3,-1
 721 194 l 1,4,-1
 697 0 l 1,5,-1
 -3 0 l 1,6,-1
 11 106 l 2,7,8
 16 147 16 147 52 192 c 1,9,-1
 506 799 l 1,10,-1
 118 799 l 1,11,-1
 143 993 l 1,12,-1
 827 993 l 1,13,-1
 815 889 l 2,0,1
EndSplineSet
Validated: 1
Substitution2: "sous-table 'ordn' Ordinaux dans Latin lookup 39" z.superior
Substitution2: "sous-table 'sups' Exposant lookups25" z.superior
EndChar

StartChar: ordfeminine
Encoding: 106 170 141
Width: 903
GlyphClass: 2
Flags: MW
LayerCount: 2
Fore
SplineSet
337 1321 m 1,0,1
 443 1416 443 1416 595 1416 c 0,2,3
 692 1416 692 1416 746 1347 c 0,4,5
 800 1280 800 1280 790 1184 c 1,6,-1
 744 812 l 1,7,-1
 662 812 l 2,8,9
 638 812 638 812 626.5 818.5 c 128,-1,10
 615 825 615 825 610 848 c 2,11,-1
 602 881 l 1,12,13
 526 821 526 821 485 812.5 c 128,-1,14
 444 804 444 804 416 804 c 0,15,16
 346 804 346 804 306 840.5 c 128,-1,17
 266 877 266 877 266 928.5 c 128,-1,18
 266 980 266 980 281.5 1017 c 128,-1,19
 297 1054 297 1054 336 1084 c 0,20,21
 426 1154 426 1154 615 1160 c 1,22,-1
 618 1184 l 1,23,24
 623 1276 623 1276 555 1276 c 0,25,26
 511 1276 511 1276 484 1261 c 0,27,28
 435 1233 435 1233 409 1233 c 256,29,30
 375 1233 375 1233 363 1265 c 1,31,-1
 337 1321 l 1,0,1
436 965 m 0,32,33
 436 923 436 923 487 923 c 0,34,35
 540 923 540 923 593 972 c 1,36,-1
 603 1053 l 1,37,38
 468 1047 468 1047 444 998 c 0,39,40
 436 983 436 983 436 965 c 0,32,33
EndSplineSet
Validated: 33
Substitution2: "sous-table 'case' Formes sensibles +AOAA la casse lookups14" ordfeminine.case
EndChar

StartChar: ordmasculine
Encoding: 121 186 142
Width: 891
GlyphClass: 2
Flags: MW
LayerCount: 2
Fore
SplineSet
556 1415 m 0,0,1
 622 1415 622 1415 670 1396.5 c 128,-1,2
 718 1378 718 1378 752 1344 c 0,3,4
 823 1272 823 1272 823 1172 c 128,-1,5
 823 1072 823 1072 797.5 1006.5 c 128,-1,6
 772 941 772 941 728 895 c 0,7,8
 636 800 636 800 488 800 c 0,9,10
 368 800 368 800 296 872 c 0,11,12
 224 944 224 944 223 1065 c 0,13,14
 222 1222 222 1222 320 1320 c 0,15,16
 414 1414 414 1414 556 1415 c 0,0,1
506 943 m 0,17,18
 633 943 633 943 633 1153 c 0,19,20
 633 1272 633 1272 545 1272 c 0,21,22
 436 1272 436 1272 418 1148 c 0,23,24
 412 1110 412 1110 413 1062 c 0,25,26
 413 943 413 943 506 943 c 0,17,18
EndSplineSet
Validated: 33
EndChar

StartChar: ordfeminine.case
Encoding: 2164 -1 143
Width: 933
GlyphClass: 2
Flags: MW
LayerCount: 2
Fore
SplineSet
769 813 m 1,0,-1
 635 813 l 2,1,2
 595 813 595 813 590 846 c 2,3,-1
 578 916 l 1,4,-1
 415 916 l 1,5,-1
 387 846 l 2,6,7
 374 813 374 813 334 813 c 2,8,-1
 198 813 l 1,9,-1
 477 1398 l 1,10,-1
 634 1398 l 1,11,-1
 769 813 l 1,0,-1
466 1040 m 1,12,-1
 557 1040 l 1,13,-1
 537 1162 l 2,14,15
 535 1172 535 1172 532 1205 c 1,16,-1
 466 1040 l 1,12,-1
EndSplineSet
Validated: 1
EndChar

StartChar: a.superior
Encoding: 2165 -1 144
Width: 748
GlyphClass: 2
Flags: MW
LayerCount: 2
Fore
SplineSet
307 1327 m 1,0,1
 405 1407 405 1407 535 1407 c 0,2,3
 624 1407 624 1407 671 1349 c 0,4,5
 716 1293 716 1293 703 1187 c 2,6,-1
 667 887 l 1,7,-1
 588 887 l 2,8,9
 564 887 564 887 552.5 893 c 128,-1,10
 541 899 541 899 535 920 c 2,11,-1
 529 941 l 1,12,13
 490 909 490 909 457 894 c 128,-1,14
 424 879 424 879 369 879 c 128,-1,15
 314 879 314 879 280.5 910.5 c 128,-1,16
 247 942 247 942 247 986 c 128,-1,17
 247 1030 247 1030 259 1062.5 c 128,-1,18
 271 1095 271 1095 303 1122 c 0,19,20
 377 1184 377 1184 538 1188 c 1,21,-1
 539 1196 l 1,22,23
 550 1273 550 1273 496 1273 c 0,24,25
 465 1273 465 1273 443 1262 c 0,26,27
 401 1241 401 1241 380 1241 c 0,28,29
 343 1241 343 1241 331 1271 c 1,30,-1
 307 1327 l 1,0,1
518 1027 m 1,31,-1
 525 1085 l 1,32,33
 432 1080 432 1080 416 1044 c 0,34,35
 412 1034 412 1034 412 1022 c 0,36,37
 412 993 412 993 447 993 c 128,-1,38
 482 993 482 993 518 1027 c 1,31,-1
EndSplineSet
Validated: 33
EndChar

StartChar: b.superior
Encoding: 2166 -1 145
Width: 746
GlyphClass: 2
Flags: MW
LayerCount: 2
Fore
SplineSet
459 1352 m 1,0,1
 521 1405 521 1405 589 1405 c 128,-1,2
 657 1405 657 1405 696 1349 c 128,-1,3
 735 1293 735 1293 735 1210 c 128,-1,4
 735 1127 735 1127 716 1068 c 0,5,6
 696 1010 696 1010 664 968 c 0,7,8
 596 879 596 879 497 879 c 0,9,10
 456 879 456 879 434 895.5 c 128,-1,11
 412 912 412 912 394 938 c 1,12,-1
 389 917 l 1,13,14
 381 887 381 887 345 887 c 2,15,-1
 231 887 l 1,16,-1
 322 1622 l 1,17,-1
 492 1622 l 1,18,-1
 459 1352 l 1,0,1
514 1273 m 0,19,20
 481 1273 481 1273 444 1236 c 1,21,-1
 419 1030 l 1,22,23
 438 1008 438 1008 462.5 1008 c 128,-1,24
 487 1008 487 1008 502.5 1016.5 c 128,-1,25
 518 1025 518 1025 530 1046 c 0,26,27
 558 1094 558 1094 558.5 1183.5 c 128,-1,28
 559 1273 559 1273 514 1273 c 0,19,20
EndSplineSet
Validated: 33
EndChar

StartChar: c.superior
Encoding: 2167 -1 146
Width: 567
GlyphClass: 2
Flags: MW
LayerCount: 2
Fore
SplineSet
598 968 m 1,0,1
 509 879 509 879 380 879 c 0,2,3
 299 878 299 878 245 938 c 0,4,5
 189 999 189 999 189 1082.5 c 128,-1,6
 189 1166 189 1166 207.5 1221 c 128,-1,7
 226 1276 226 1276 261 1317 c 0,8,9
 336 1405 336 1405 466 1405 c 0,10,11
 576 1405 576 1405 639 1326 c 1,12,-1
 586 1264 l 2,13,14
 569 1243 569 1243 553 1243 c 128,-1,15
 537 1243 537 1243 529 1248 c 0,16,17
 520 1253 520 1253 512 1259 c 0,18,19
 489 1275 489 1275 462 1275 c 0,20,21
 364 1275 364 1275 364 1109 c 0,22,23
 364 1008 364 1008 428 1008 c 0,24,25
 459 1008 459 1008 477 1022 c 0,26,27
 511 1048 511 1048 529.5 1047.5 c 128,-1,28
 548 1047 548 1047 557 1033 c 2,29,-1
 598 968 l 1,0,1
EndSplineSet
Validated: 33
EndChar

StartChar: d.superior
Encoding: 2168 -1 147
Width: 748
GlyphClass: 2
Flags: MW
LayerCount: 2
Fore
SplineSet
381.5 1383.5 m 128,-1,1
 425 1407 425 1407 475.5 1407 c 128,-1,2
 526 1407 526 1407 565 1373 c 1,3,-1
 596 1622 l 1,4,-1
 766 1622 l 1,5,-1
 676 887 l 1,6,-1
 570 887 l 2,7,8
 537 887 537 887 533 915 c 2,9,-1
 528 949 l 1,10,11
 458 879 458 879 375 879 c 0,12,13
 316 879 316 879 276 936 c 0,14,15
 236 994 236 994 236 1076 c 128,-1,16
 236 1158 236 1158 255 1216.5 c 128,-1,17
 274 1275 274 1275 306 1317.5 c 128,-1,0
 338 1360 338 1360 381.5 1383.5 c 128,-1,1
461 1013 m 0,18,19
 497 1013 497 1013 524 1044 c 1,20,-1
 550 1255 l 1,21,22
 529 1278 529 1278 506 1278 c 128,-1,23
 483 1278 483 1278 467.5 1269.5 c 128,-1,24
 452 1261 452 1261 440 1240 c 0,25,26
 412 1192 412 1192 411.5 1102.5 c 128,-1,27
 411 1013 411 1013 461 1013 c 0,18,19
EndSplineSet
Validated: 33
EndChar

StartChar: e.superior
Encoding: 2169 -1 148
Width: 700
GlyphClass: 2
Flags: MW
LayerCount: 2
Fore
SplineSet
670 968 m 1,0,1
 581 879 581 879 447 879 c 0,2,3
 354 879 354 879 294 938 c 0,4,5
 232 999 232 999 232 1111 c 0,6,7
 232 1234 232 1234 308 1318 c 0,8,9
 386 1405 386 1405 489.5 1405 c 128,-1,10
 593 1405 593 1405 645 1352 c 128,-1,11
 697 1299 697 1299 697 1205 c 0,12,13
 697 1118 697 1118 670 1108 c 0,14,15
 661 1104 661 1104 649 1104 c 2,16,-1
 399 1104 l 1,17,18
 403 1010 403 1010 479 1010 c 0,19,20
 507 1010 507 1010 533 1022 c 0,21,22
 584 1046 584 1046 602 1046.5 c 128,-1,23
 620 1047 620 1047 629 1033 c 2,24,-1
 670 968 l 1,0,1
548 1206 m 1,25,26
 554 1284 554 1284 493 1284 c 0,27,28
 430 1284 430 1284 409 1206 c 1,29,-1
 548 1206 l 1,25,26
EndSplineSet
Validated: 33
EndChar

StartChar: f.superior
Encoding: 2170 -1 149
Width: 464
GlyphClass: 2
Flags: MW
LayerCount: 2
Fore
SplineSet
213 887 m 1,0,-1
 261 1282 l 1,1,2
 223 1294 223 1294 213 1302 c 128,-1,3
 203 1310 203 1310 205 1330 c 2,4,-1
 214 1400 l 1,5,-1
 275 1400 l 1,6,-1
 278 1421 l 1,7,8
 289 1510 289 1510 349 1564 c 128,-1,9
 409 1618 409 1618 506 1618 c 0,10,11
 536 1618 536 1618 570 1610 c 1,12,-1
 555 1523 l 2,13,14
 549 1490 549 1490 516.5 1490 c 128,-1,15
 484 1490 484 1490 466 1475 c 0,16,17
 449 1461 449 1461 441 1400 c 1,18,-1
 539 1400 l 1,19,-1
 523 1280 l 1,20,-1
 431 1280 l 1,21,-1
 383 887 l 1,22,-1
 213 887 l 1,0,-1
EndSplineSet
Validated: 1
EndChar

StartChar: g.superior
Encoding: 2171 -1 150
Width: 748
GlyphClass: 2
Flags: MW
LayerCount: 2
Fore
SplineSet
344 1103 m 1,0,1
 278 1146 278 1146 278 1221 c 0,2,3
 278 1305 278 1305 344 1357 c 0,4,5
 408 1407 408 1407 483 1407 c 128,-1,6
 558 1407 558 1407 606 1383 c 1,7,-1
 756 1383 l 1,8,-1
 748 1318 l 2,9,10
 744 1290 744 1290 710 1283 c 1,11,-1
 681 1275 l 1,12,-1
 682 1258 l 1,13,14
 682 1176 682 1176 616 1123 c 0,15,16
 554 1073 554 1073 462 1073 c 0,17,18
 454 1073 454 1073 446 1073 c 128,-1,19
 438 1073 438 1073 430 1074 c 1,20,21
 421 1069 421 1069 421 1057 c 128,-1,22
 421 1045 421 1045 441 1037 c 128,-1,23
 461 1029 461 1029 490.5 1023 c 128,-1,24
 520 1017 520 1017 555 1010 c 0,25,26
 590 1002 590 1002 620 992 c 0,27,28
 690 967 690 967 689 921 c 0,29,30
 690 838 690 838 618 778 c 0,31,32
 542 714 542 714 421 714 c 0,33,34
 270 714 270 714 230 791 c 0,35,36
 218 813 218 813 218 837 c 0,37,38
 218 915 218 915 316 943 c 1,39,40
 267 961 267 961 267 996 c 0,41,42
 267 1068 267 1068 344 1103 c 1,0,1
416 922 m 1,43,44
 368 898 368 898 368 862 c 128,-1,45
 368 826 368 826 428 826 c 0,46,47
 526 826 526 826 527 877 c 0,48,49
 527 907 527 907 416 922 c 1,43,44
432 1223 m 0,50,51
 432 1181 432 1181 475 1181 c 0,52,53
 531 1181 531 1181 531 1247 c 0,54,55
 531 1288 531 1288 488 1288 c 0,56,57
 432 1288 432 1288 432 1223 c 0,50,51
EndSplineSet
Validated: 33
EndChar

StartChar: h.superior
Encoding: 2172 -1 151
Width: 753
GlyphClass: 2
Flags: MW
LayerCount: 2
Fore
SplineSet
469 1363 m 1,0,1
 522 1405 522 1405 574.5 1405 c 128,-1,2
 627 1405 627 1405 655 1390 c 0,3,4
 682 1376 682 1376 700 1350 c 0,5,6
 736 1298 736 1298 726 1210 c 2,7,-1
 687 887 l 1,8,-1
 516 887 l 1,9,-1
 556 1210 l 2,10,11
 564 1273 564 1273 519 1273 c 0,12,13
 487 1273 487 1273 455 1246 c 1,14,-1
 411 887 l 1,15,-1
 240 887 l 1,16,-1
 331 1622 l 1,17,-1
 501 1622 l 1,18,-1
 469 1363 l 1,0,1
EndSplineSet
Validated: 33
EndChar

StartChar: i.superior
Encoding: 2173 -1 152
Width: 378
GlyphClass: 2
Flags: MW
LayerCount: 2
Fore
SplineSet
413 1367 m 1,0,-1
 354 887 l 1,1,-1
 184 887 l 1,2,-1
 243 1367 l 1,3,-1
 413 1367 l 1,0,-1
443.5 1575.5 m 128,-1,5
 450 1559 450 1559 450 1538 c 128,-1,6
 450 1517 450 1517 440.5 1497 c 128,-1,7
 431 1477 431 1477 415 1462 c 0,8,9
 381 1430 381 1430 349.5 1430 c 128,-1,10
 318 1430 318 1430 302 1438 c 0,11,12
 288 1445 288 1445 276 1457 c 0,13,14
 252 1481 252 1481 252 1512 c 0,15,16
 251 1542 251 1542 260 1562 c 0,17,18
 270 1584 270 1584 284 1597 c 0,19,20
 318 1630 318 1630 349 1630 c 128,-1,21
 380 1630 380 1630 396.5 1623 c 128,-1,22
 413 1616 413 1616 425 1604 c 128,-1,4
 437 1592 437 1592 443.5 1575.5 c 128,-1,5
EndSplineSet
Validated: 1
EndChar

StartChar: j.superior
Encoding: 2174 -1 153
Width: 388
GlyphClass: 2
Flags: MW
LayerCount: 2
Fore
SplineSet
421 1367 m 1,0,-1
 364 900 l 2,1,2
 353 815 353 815 319 779 c 0,3,4
 256 714 256 714 159 714 c 0,5,6
 126 714 126 714 92 722 c 1,7,-1
 109 814 l 2,8,9
 114 839 114 839 139 839 c 0,10,11
 169 839 169 839 178 848 c 0,12,13
 190 861 190 861 194 900 c 2,14,-1
 251 1367 l 1,15,-1
 421 1367 l 1,0,-1
451.5 1575.5 m 128,-1,17
 458 1559 458 1559 458 1538 c 128,-1,18
 458 1517 458 1517 448.5 1497 c 128,-1,19
 439 1477 439 1477 423 1462 c 0,20,21
 389 1430 389 1430 357.5 1430 c 128,-1,22
 326 1430 326 1430 310 1438 c 0,23,24
 296 1445 296 1445 284 1457 c 0,25,26
 260 1481 260 1481 260 1512 c 0,27,28
 259 1542 259 1542 268.5 1562 c 128,-1,29
 278 1582 278 1582 293 1597 c 0,30,31
 326 1630 326 1630 357 1630 c 128,-1,32
 388 1630 388 1630 404.5 1623 c 128,-1,33
 421 1616 421 1616 433 1604 c 128,-1,16
 445 1592 445 1592 451.5 1575.5 c 128,-1,17
EndSplineSet
Validated: 1
EndChar

StartChar: k.superior
Encoding: 2175 -1 154
Width: 704
GlyphClass: 2
Flags: MW
LayerCount: 2
Fore
SplineSet
468 1622 m 1,0,-1
 418 1218 l 1,1,-1
 439 1218 l 2,2,3
 465 1218 465 1218 478 1238 c 1,4,-1
 552 1371 l 2,5,6
 567 1398 567 1398 609 1398 c 2,7,-1
 764 1398 l 1,8,-1
 647 1223 l 2,9,10
 626 1191 626 1191 592 1174 c 1,11,12
 615 1162 615 1162 627 1128 c 1,13,-1
 704 887 l 1,14,-1
 550 887 l 2,15,16
 504 887 504 887 499 914 c 2,17,-1
 464 1084 l 2,18,19
 460 1105 460 1105 433 1105 c 2,20,-1
 404 1105 l 1,21,-1
 378 887 l 1,22,-1
 207 887 l 1,23,-1
 298 1622 l 1,24,-1
 468 1622 l 1,0,-1
EndSplineSet
Validated: 1
EndChar

StartChar: l.superior
Encoding: 2176 -1 155
Width: 374
GlyphClass: 2
Flags: MW
LayerCount: 2
Fore
SplineSet
442 1622 m 1,0,-1
 352 887 l 1,1,-1
 182 887 l 1,2,-1
 273 1622 l 1,3,-1
 442 1622 l 1,0,-1
EndSplineSet
Validated: 1
EndChar

StartChar: m.superior
Encoding: 2177 -1 156
Width: 1121
GlyphClass: 2
Flags: MW
LayerCount: 2
Fore
SplineSet
727 1325 m 1,0,1
 783 1405 783 1405 879 1405 c 0,2,3
 1061 1405 1061 1405 1038 1210 c 1,4,-1
 998 887 l 1,5,-1
 829 887 l 1,6,-1
 868 1210 l 2,7,8
 875 1273 875 1273 828 1273 c 0,9,10
 779 1273 779 1273 771 1210 c 2,11,-1
 731 887 l 1,12,-1
 561 887 l 1,13,-1
 601 1210 l 2,14,15
 609 1273 609 1273 559 1273 c 0,16,17
 533 1273 533 1273 507 1251 c 1,18,-1
 462 887 l 1,19,-1
 292 887 l 1,20,-1
 355 1398 l 1,21,-1
 461 1398 l 2,22,23
 492 1398 492 1398 494 1367 c 2,24,-1
 495 1343 l 1,25,26
 562 1405 562 1405 632.5 1405 c 128,-1,27
 703 1405 703 1405 727 1325 c 1,0,1
EndSplineSet
Validated: 33
EndChar

StartChar: uni207F
Encoding: 1921 8319 157
Width: 754
GlyphClass: 2
Flags: MW
LayerCount: 2
Fore
SplineSet
427 1334 m 1,0,1
 507 1405 507 1405 593 1405 c 0,2,3
 674 1404 674 1404 714 1348 c 0,4,5
 752 1294 752 1294 742 1210 c 2,6,-1
 702 886 l 1,7,-1
 532 886 l 1,8,-1
 572 1210 l 1,9,10
 578 1271 578 1271 522 1271 c 0,11,12
 484 1271 484 1271 443 1241 c 1,13,-1
 400 886 l 1,14,-1
 230 886 l 1,15,-1
 293 1397 l 1,16,-1
 383 1397 l 2,17,18
 417 1397 417 1397 422 1364 c 2,19,-1
 427 1334 l 1,0,1
EndSplineSet
Validated: 33
EndChar

StartChar: o.superior
Encoding: 2178 -1 158
Width: 747
GlyphClass: 2
Flags: MW
LayerCount: 2
Fore
SplineSet
405.5 1384 m 128,-1,1
 458 1405 458 1405 513 1405 c 128,-1,2
 568 1405 568 1405 608.5 1389 c 128,-1,3
 649 1373 649 1373 678 1344 c 0,4,5
 738 1284 738 1284 738 1197.5 c 128,-1,6
 738 1111 738 1111 716 1055 c 128,-1,7
 694 999 694 999 656 960 c 0,8,9
 576 879 576 879 452 879 c 0,10,11
 353 878 353 878 293 940 c 0,12,13
 233 1001 233 1001 233 1087.5 c 128,-1,14
 233 1174 233 1174 255 1229.5 c 128,-1,15
 277 1285 277 1285 315 1324 c 128,-1,0
 353 1363 353 1363 405.5 1384 c 128,-1,1
501 1275 m 0,16,17
 407 1275 407 1275 407 1100 c 0,18,19
 407 1008 407 1008 469 1008 c 0,20,21
 562 1008 562 1008 562 1184 c 0,22,23
 562 1275 562 1275 501 1275 c 0,16,17
EndSplineSet
Validated: 33
EndChar

StartChar: p.superior
Encoding: 2179 -1 159
Width: 747
GlyphClass: 2
Flags: MW
LayerCount: 2
Fore
SplineSet
589.5 902.5 m 128,-1,1
 546 879 546 879 494.5 879 c 128,-1,2
 443 879 443 879 406 912 c 1,3,-1
 384 729 l 1,4,-1
 213 729 l 1,5,-1
 295 1398 l 1,6,-1
 402 1398 l 2,7,8
 436 1398 436 1398 438 1370 c 2,9,-1
 441 1334 l 1,10,11
 514 1407 514 1407 597 1407 c 0,12,13
 658 1408 658 1408 696 1350 c 0,14,15
 736 1291 736 1291 736 1209 c 128,-1,16
 736 1127 736 1127 717 1068.5 c 128,-1,17
 698 1010 698 1010 665.5 968 c 128,-1,0
 633 926 633 926 589.5 902.5 c 128,-1,1
552 1102 m 128,-1,19
 560 1137 560 1137 560 1205 c 128,-1,20
 560 1273 560 1273 519 1273 c 0,21,22
 479 1273 479 1273 446 1238 c 1,23,-1
 421 1030 l 1,24,25
 440 1008 440 1008 464 1008 c 128,-1,26
 488 1008 488 1008 503.5 1016.5 c 128,-1,27
 519 1025 519 1025 531.5 1046 c 128,-1,18
 544 1067 544 1067 552 1102 c 128,-1,19
EndSplineSet
Validated: 33
EndChar

StartChar: q.superior
Encoding: 2180 -1 160
Width: 747
GlyphClass: 2
Flags: MW
LayerCount: 2
Fore
SplineSet
380.5 1383.5 m 128,-1,1
 424 1407 424 1407 480.5 1407 c 128,-1,2
 537 1407 537 1407 581 1354 c 1,3,-1
 588 1370 l 2,4,5
 600 1398 600 1398 632 1398 c 2,6,-1
 738 1398 l 1,7,-1
 656 729 l 1,8,-1
 485 729 l 1,9,-1
 510 933 l 1,10,11
 447 879 447 879 374 879 c 0,12,13
 314 879 314 879 274 936 c 0,14,15
 234 994 234 994 234.5 1076 c 128,-1,16
 235 1158 235 1158 254 1216.5 c 128,-1,17
 273 1275 273 1275 305 1317.5 c 128,-1,0
 337 1360 337 1360 380.5 1383.5 c 128,-1,1
434.5 1236 m 128,-1,19
 410 1194 410 1194 410 1103.5 c 128,-1,20
 410 1013 410 1013 455 1013 c 0,21,22
 489 1013 489 1013 524 1048 c 1,23,-1
 549 1255 l 1,24,25
 530 1278 530 1278 494.5 1278 c 128,-1,18
 459 1278 459 1278 434.5 1236 c 128,-1,19
EndSplineSet
Validated: 33
EndChar

StartChar: r.superior
Encoding: 2181 -1 161
Width: 508
GlyphClass: 2
Flags: MW
LayerCount: 2
Fore
SplineSet
518 1238 m 1,0,-1
 472 1243 l 1,1,2
 432 1243 432 1243 404 1195 c 1,3,-1
 367 887 l 1,4,-1
 196 887 l 1,5,-1
 259 1398 l 1,6,-1
 360 1398 l 2,7,8
 386 1398 386 1398 394 1389 c 128,-1,9
 402 1380 402 1380 403 1357 c 2,10,-1
 404 1322 l 1,11,12
 461 1407 461 1407 525 1407 c 0,13,14
 557 1407 557 1407 574 1390 c 1,15,-1
 546 1260 l 1,16,17
 540 1238 540 1238 518 1238 c 1,0,-1
EndSplineSet
Validated: 1
EndChar

StartChar: s.superior
Encoding: 2182 -1 162
Width: 570
GlyphClass: 2
Flags: MW
LayerCount: 2
Fore
SplineSet
414 1029 m 0,0,1
 414 1049 414 1049 367 1068 c 0,2,3
 347 1076 347 1076 323 1084 c 128,-1,4
 299 1092 299 1092 279 1108 c 0,5,6
 232 1146 232 1146 232 1198 c 0,7,8
 232 1252 232 1252 245.5 1287 c 128,-1,9
 259 1322 259 1322 286 1348 c 0,10,11
 344 1404 344 1404 450 1405 c 0,12,13
 504 1405 504 1405 547 1385.5 c 128,-1,14
 590 1366 590 1366 612 1337 c 1,15,-1
 565 1274 l 2,16,17
 550 1255 550 1255 531 1255 c 256,18,19
 516 1254 516 1254 497 1264 c 0,20,21
 462 1282 462 1282 438 1282 c 0,22,23
 397 1282 397 1282 397 1249 c 0,24,25
 396 1228 396 1228 430 1216 c 2,26,-1
 488 1194 l 2,27,28
 579 1160 579 1160 579 1075 c 0,29,30
 578 940 578 940 446 894 c 0,31,32
 402 879 402 879 362.5 879 c 128,-1,33
 323 879 323 879 298.5 884 c 128,-1,34
 274 889 274 889 252 897 c 0,35,36
 205 914 205 914 179 941 c 1,37,-1
 227 1007 l 2,38,39
 244 1031 244 1031 265.5 1031 c 128,-1,40
 287 1031 287 1031 296.5 1025.5 c 128,-1,41
 306 1020 306 1020 316 1014 c 0,42,43
 342 996 342 996 378 996 c 128,-1,44
 414 996 414 996 414 1029 c 0,0,1
EndSplineSet
Validated: 1
EndChar

StartChar: t.superior
Encoding: 2183 -1 163
Width: 506
GlyphClass: 2
Flags: MW
LayerCount: 2
Fore
SplineSet
510 923 m 1,0,1
 445 879 445 879 367.5 879 c 128,-1,2
 290 879 290 879 257.5 922 c 128,-1,3
 225 965 225 965 233 1035 c 2,4,-1
 262 1280 l 1,5,-1
 231 1280 l 2,6,7
 200 1280 200 1280 204 1313 c 2,8,-1
 212 1382 l 1,9,-1
 289 1400 l 1,10,-1
 335 1513 l 2,11,12
 346 1540 346 1540 375 1540 c 2,13,-1
 464 1540 l 1,14,-1
 447 1400 l 1,15,-1
 555 1400 l 1,16,-1
 540 1280 l 1,17,-1
 432 1280 l 1,18,-1
 404 1047 l 1,19,20
 399 1015 399 1015 421 1015 c 257,21,-1
 448 1021 l 1,22,23
 459 1021 459 1021 468 1007 c 1,24,-1
 510 923 l 1,0,1
EndSplineSet
Validated: 33
EndChar

StartChar: u.superior
Encoding: 2184 -1 164
Width: 754
GlyphClass: 2
Flags: MW
LayerCount: 2
Fore
SplineSet
528 937 m 1,0,1
 463 879 463 879 390 879 c 0,2,3
 316 879 316 879 278 935 c 0,4,5
 243 987 243 987 253 1074 c 2,6,-1
 292 1398 l 1,7,-1
 462 1398 l 1,8,-1
 422 1074 l 1,9,10
 416 1011 416 1011 460 1011 c 0,11,12
 490 1011 490 1011 523 1036 c 1,13,-1
 568 1398 l 1,14,-1
 738 1398 l 1,15,-1
 675 887 l 1,16,-1
 569 887 l 2,17,18
 538 887 538 887 532 915 c 2,19,-1
 528 937 l 1,0,1
EndSplineSet
Validated: 33
EndChar

StartChar: v.superior
Encoding: 2185 -1 165
Width: 677
GlyphClass: 2
Flags: MW
LayerCount: 2
Fore
SplineSet
225 1398 m 1,0,-1
 367 1398 l 2,1,2
 406 1398 406 1398 410 1369 c 1,3,-1
 430 1176 l 2,4,5
 436 1107 436 1107 440 1051 c 1,6,7
 451 1082 451 1082 461.5 1113.5 c 128,-1,8
 472 1145 472 1145 485 1179 c 2,9,-1
 553 1368 l 2,10,11
 565 1398 565 1398 601 1398 c 2,12,-1
 738 1398 l 1,13,-1
 495 887 l 1,14,-1
 340 887 l 1,15,-1
 225 1398 l 1,0,-1
EndSplineSet
Validated: 1
EndChar

StartChar: w.superior
Encoding: 2186 -1 166
Width: 1051
GlyphClass: 2
Flags: MW
LayerCount: 2
Fore
SplineSet
289 1398 m 1,0,-1
 430 1398 l 2,1,2
 470 1398 470 1398 472 1361 c 2,3,-1
 479 1180 l 2,4,5
 481 1122 481 1122 485 1070 c 1,6,-1
 588 1362 l 2,7,8
 600 1397 600 1397 638 1397 c 2,9,-1
 706 1397 l 2,10,11
 746 1397 746 1397 750 1361 c 2,12,-1
 768 1180 l 2,13,14
 771 1149 771 1149 777 1075 c 1,15,-1
 865 1362 l 2,16,17
 876 1398 876 1398 914 1398 c 2,18,-1
 1048 1398 l 1,19,-1
 838 887 l 1,20,-1
 703 887 l 2,21,22
 680 887 680 887 677 915 c 2,23,-1
 651 1135 l 2,24,25
 646 1171 646 1171 645 1205 c 1,26,27
 639 1187 639 1187 633 1169 c 128,-1,28
 627 1151 627 1151 620 1133 c 2,29,-1
 541 915 l 1,30,31
 529 887 529 887 502 887 c 2,32,-1
 369 887 l 1,33,-1
 289 1398 l 1,0,-1
EndSplineSet
Validated: 1
EndChar

StartChar: x.superior
Encoding: 2187 -1 167
Width: 676
GlyphClass: 2
Flags: MW
LayerCount: 2
Fore
SplineSet
338 1150 m 1,0,-1
 219 1398 l 1,1,-1
 383 1398 l 2,2,3
 412 1398 412 1398 421 1377 c 2,4,-1
 477 1242 l 1,5,6
 484 1260 484 1260 496 1280 c 1,7,-1
 547 1374 l 2,8,9
 561 1398 561 1398 586 1398 c 2,10,-1
 742 1398 l 1,11,-1
 562 1159 l 1,12,-1
 686 887 l 1,13,-1
 522 887 l 2,14,15
 493 887 493 887 480 915 c 1,16,-1
 425 1054 l 1,17,18
 420 1041 420 1041 411 1025 c 2,19,-1
 349 915 l 1,20,21
 331 887 331 887 302 887 c 2,22,-1
 150 887 l 1,23,-1
 338 1150 l 1,0,-1
EndSplineSet
Validated: 1
EndChar

StartChar: y.superior
Encoding: 2188 -1 168
Width: 678
GlyphClass: 2
Flags: MW
LayerCount: 2
Fore
SplineSet
419 772 m 2,0,1
 406 747 406 747 393.5 738 c 128,-1,2
 381 729 381 729 358 729 c 2,3,-1
 229 729 l 1,4,-1
 349 937 l 1,5,-1
 220 1398 l 1,6,-1
 372 1398 l 2,7,8
 407 1398 407 1398 412 1369 c 2,9,-1
 445 1188 l 2,10,11
 451 1156 451 1156 455 1119 c 1,12,13
 468 1156 468 1156 485 1191 c 1,14,-1
 559 1368 l 1,15,16
 574 1398 574 1398 607 1398 c 2,17,-1
 740 1398 l 1,18,-1
 419 772 l 2,0,1
EndSplineSet
Validated: 1
EndChar

StartChar: z.superior
Encoding: 2189 -1 169
Width: 572
GlyphClass: 2
Flags: MW
LayerCount: 2
Fore
SplineSet
614 1327 m 2,0,1
 610 1293 610 1293 581 1257 c 2,2,-1
 386 1017 l 1,3,-1
 574 1017 l 1,4,-1
 557 887 l 1,5,-1
 176 887 l 1,6,-1
 185 959 l 1,7,8
 190 987 190 987 220 1022 c 1,9,-1
 415 1268 l 1,10,-1
 234 1268 l 1,11,-1
 250 1398 l 1,12,-1
 623 1398 l 1,13,-1
 614 1327 l 2,0,1
EndSplineSet
Validated: 1
EndChar

StartChar: grave
Encoding: 66 96 170
Width: 615
GlyphClass: 2
Flags: MW
LayerCount: 2
Fore
SplineSet
455 1412 m 2,0,1
 493 1412 493 1412 510 1399 c 128,-1,2
 527 1386 527 1386 538 1361 c 2,3,-1
 634 1126 l 1,4,-1
 494 1126 l 2,5,6
 447 1126 447 1126 419 1160 c 1,7,-1
 225 1412 l 1,8,-1
 455 1412 l 2,0,1
EndSplineSet
Validated: 1
Substitution2: "sous-table 'locl' Formes localis+AOkA-es g+AOkA-ographiquement dans Grec lookup 38" uni1FEF
EndChar

StartChar: glyph171
Encoding: 2190 -1 171
Width: 672
GlyphClass: 2
Flags: MW
LayerCount: 2
Fore
SplineSet
473 1798 m 2,0,1
 530 1798 530 1798 544 1785 c 128,-1,2
 558 1772 558 1772 567 1758 c 2,3,-1
 724 1496 l 1,4,-1
 546 1496 l 2,5,6
 493 1496 493 1496 469 1520 c 1,7,-1
 218 1798 l 1,8,-1
 473 1798 l 2,0,1
EndSplineSet
Validated: 1
EndChar

StartChar: acute
Encoding: 115 180 172
Width: 616
GlyphClass: 2
Flags: MW
LayerCount: 2
Fore
SplineSet
751 1412 m 1,0,-1
 495 1160 l 2,1,2
 461 1126 461 1126 410 1126 c 2,3,-1
 264 1126 l 1,4,-1
 418 1361 l 2,5,6
 451 1412 451 1412 515 1412 c 2,7,-1
 751 1412 l 1,0,-1
EndSplineSet
Validated: 1
Substitution2: "sous-table 'locl' Formes localis+AOkA-es g+AOkA-ographiquement dans Grec lookup 38" uni1FFD
EndChar

StartChar: glyph173
Encoding: 2191 -1 173
Width: 672
GlyphClass: 2
Flags: MW
LayerCount: 2
Fore
SplineSet
832 1798 m 1,0,-1
 510 1522 l 1,1,2
 476 1496 476 1496 426 1496 c 2,3,-1
 248 1496 l 1,4,-1
 458 1758 l 2,5,6
 486 1794 486 1794 527 1797 c 0,7,8
 541 1798 541 1798 560 1798 c 2,9,-1
 832 1798 l 1,0,-1
EndSplineSet
Validated: 1
EndChar

StartChar: circumflex
Encoding: 644 710 174
Width: 822
GlyphClass: 2
Flags: MW
LayerCount: 2
Fore
SplineSet
812 1127 m 1,0,-1
 650 1127 l 2,1,2
 619 1127 619 1127 604 1145 c 2,3,-1
 529 1233 l 2,4,5
 525 1238 525 1238 520.5 1243 c 128,-1,6
 516 1248 516 1248 511 1254 c 1,7,8
 499 1242 499 1242 489 1234 c 2,9,-1
 391 1145 l 2,10,11
 370 1127 370 1127 340 1127 c 2,12,-1
 171 1127 l 1,13,-1
 410 1397 l 1,14,-1
 640 1397 l 1,15,-1
 812 1127 l 1,0,-1
EndSplineSet
Validated: 1
EndChar

StartChar: glyph175
Encoding: 2192 -1 175
Width: 923
GlyphClass: 2
Flags: MW
LayerCount: 2
Fore
SplineSet
947 1496 m 1,0,-1
 770 1496 l 2,1,2
 719 1496 719 1496 698 1536 c 2,3,-1
 647 1634 l 1,4,5
 643 1639 643 1639 640.5 1644 c 128,-1,6
 638 1649 638 1649 635 1654 c 1,7,-1
 544 1536 l 2,8,9
 512 1496 512 1496 462 1496 c 2,10,-1
 293 1496 l 1,11,-1
 541 1762 l 1,12,-1
 763 1762 l 1,13,-1
 947 1496 l 1,0,-1
EndSplineSet
Validated: 1
EndChar

StartChar: caron
Encoding: 645 711 176
Width: 822
GlyphClass: 2
Flags: MW
LayerCount: 2
Fore
SplineSet
204 1397 m 1,0,-1
 373 1397 l 2,1,2
 404 1397 404 1397 419 1380 c 2,3,-1
 493 1289 l 2,4,5
 501 1279 501 1279 511 1265 c 1,6,-1
 631 1380 l 2,7,8
 648 1397 648 1397 682 1397 c 2,9,-1
 845 1397 l 1,10,-1
 606 1127 l 1,11,-1
 376 1127 l 1,12,-1
 204 1397 l 1,0,-1
EndSplineSet
Validated: 1
EndChar

StartChar: glyph177
Encoding: 2193 -1 177
Width: 923
GlyphClass: 2
Flags: MW
LayerCount: 2
Fore
SplineSet
318 1762 m 1,0,-1
 495 1762 l 2,1,2
 546 1762 546 1762 563 1733 c 1,3,-1
 629 1603 l 1,4,-1
 726 1732 l 1,5,6
 751 1762 751 1762 802 1762 c 2,7,-1
 979 1762 l 1,8,-1
 730 1496 l 1,9,-1
 501 1496 l 1,10,-1
 318 1762 l 1,0,-1
EndSplineSet
Validated: 1
EndChar

StartChar: uni0315
Encoding: 706 789 178
Width: 508
GlyphClass: 4
Flags: MW
LayerCount: 2
Fore
SplineSet
501 1438 m 2,0,1
 536 1438 536 1438 536 1408 c 0,2,3
 536 1367 536 1367 414 1146 c 0,4,5
 399 1118 399 1118 377.5 1110 c 128,-1,6
 356 1102 356 1102 325 1102 c 2,7,-1
 238 1102 l 1,8,-1
 336 1438 l 1,9,-1
 501 1438 l 2,0,1
EndSplineSet
Validated: 1
EndChar

StartChar: tilde
Encoding: 664 732 179
Width: 910
GlyphClass: 2
Flags: MW
LayerCount: 2
Fore
SplineSet
458 1224 m 0,0,1
 406 1224 406 1224 397 1151 c 1,2,-1
 248 1151 l 1,3,4
 260 1256 260 1256 324 1326 c 0,5,6
 386 1392 386 1392 470 1393 c 0,7,8
 517 1393 517 1393 559 1366 c 128,-1,9
 601 1339 601 1339 619.5 1326.5 c 128,-1,10
 638 1314 638 1314 655 1314 c 0,11,12
 706 1314 706 1314 717 1387 c 1,13,-1
 864 1387 l 1,14,15
 852 1280 852 1280 788 1212 c 0,16,17
 727 1146 727 1146 643 1146 c 0,18,19
 593 1146 593 1146 552.5 1173 c 128,-1,20
 512 1200 512 1200 493.5 1212 c 128,-1,21
 475 1224 475 1224 458 1224 c 0,0,1
EndSplineSet
Validated: 1
EndChar

StartChar: glyph180
Encoding: 2194 -1 180
Width: 918
GlyphClass: 2
Flags: MW
LayerCount: 2
Fore
SplineSet
698 1660 m 0,0,1
 719 1645 719 1645 740.5 1645 c 128,-1,2
 762 1645 762 1645 778 1654 c 0,3,4
 794 1662 794 1662 804 1675 c 0,5,6
 824 1701 824 1701 828 1735 c 1,7,-1
 977 1735 l 1,8,9
 956 1571 956 1571 838 1507 c 0,10,11
 800 1486 800 1486 753 1486 c 256,12,13
 682 1486 682 1486 616 1534 c 0,14,15
 591 1552 591 1552 570 1567.5 c 128,-1,16
 549 1583 549 1583 527 1583 c 128,-1,17
 505 1583 505 1583 490.5 1574.5 c 128,-1,18
 476 1566 476 1566 466 1552 c 0,19,20
 445 1525 445 1525 442 1491 c 1,21,-1
 291 1491 l 1,22,23
 304 1594 304 1594 363 1664 c 0,24,25
 427 1740 427 1740 516 1741 c 256,26,27
 586 1741 586 1741 652 1693 c 0,28,29
 676 1675 676 1675 698 1660 c 0,0,1
EndSplineSet
Validated: 1
EndChar

StartChar: dieresis
Encoding: 104 168 181
Width: 849
GlyphClass: 2
Flags: MW
LayerCount: 2
Fore
SplineSet
468.5 1323.5 m 128,-1,1
 480 1298 480 1298 480 1269.5 c 128,-1,2
 480 1241 480 1241 468 1216 c 0,3,4
 458 1192 458 1192 438 1174 c 0,5,6
 394 1134 394 1134 354 1134 c 0,7,8
 311 1134 311 1134 286 1144 c 0,9,10
 264 1154 264 1154 243 1174 c 0,11,12
 202 1213 202 1213 202 1256 c 0,13,14
 202 1298 202 1298 213 1323.5 c 128,-1,15
 224 1349 224 1349 243 1368 c 0,16,17
 284 1409 284 1409 325.5 1409 c 128,-1,18
 367 1409 367 1409 392.5 1398 c 128,-1,19
 418 1387 418 1387 437.5 1368 c 128,-1,0
 457 1349 457 1349 468.5 1323.5 c 128,-1,1
833 1323.5 m 128,-1,21
 844 1298 844 1298 844 1269.5 c 128,-1,22
 844 1241 844 1241 833 1216.5 c 128,-1,23
 822 1192 822 1192 803 1174 c 0,24,25
 762 1134 762 1134 719 1134 c 128,-1,26
 676 1134 676 1134 651 1144 c 0,27,28
 626 1156 626 1156 607 1174 c 0,29,30
 566 1213 566 1213 566 1256 c 0,31,32
 566 1298 566 1298 577 1323.5 c 128,-1,33
 588 1349 588 1349 607 1368 c 0,34,35
 648 1409 648 1409 690.5 1409 c 128,-1,36
 733 1409 733 1409 758.5 1398 c 128,-1,37
 784 1387 784 1387 803 1368 c 128,-1,20
 822 1349 822 1349 833 1323.5 c 128,-1,21
EndSplineSet
Validated: 1
EndChar

StartChar: glyph182
Encoding: 2195 -1 182
Width: 904
GlyphClass: 2
Flags: MW
LayerCount: 2
Fore
SplineSet
541.5 1669.5 m 128,-1,1
 550 1648 550 1648 550 1621 c 128,-1,2
 550 1594 550 1594 538 1568 c 0,3,4
 526 1544 526 1544 506 1524 c 0,5,6
 464 1482 464 1482 403 1482 c 0,7,8
 357 1482 357 1482 334 1506 c 0,9,10
 293 1548 293 1548 293 1587 c 128,-1,11
 293 1626 293 1626 305 1652.5 c 128,-1,12
 317 1679 317 1679 337 1699 c 0,13,14
 381 1743 381 1743 435 1743 c 0,15,16
 484 1743 484 1743 508.5 1717 c 128,-1,0
 533 1691 533 1691 541.5 1669.5 c 128,-1,1
940.5 1669.5 m 128,-1,18
 949 1648 949 1648 949 1621.5 c 128,-1,19
 949 1595 949 1595 937 1569 c 0,20,21
 925 1544 925 1544 905 1524 c 0,22,23
 862 1482 862 1482 804 1482 c 0,24,25
 756 1482 756 1482 732 1506 c 0,26,27
 690 1548 690 1548 690.5 1587 c 128,-1,28
 691 1626 691 1626 703 1652.5 c 128,-1,29
 715 1679 715 1679 735 1699 c 0,30,31
 779 1743 779 1743 836 1743 c 0,32,33
 885 1743 885 1743 908.5 1717 c 128,-1,17
 932 1691 932 1691 940.5 1669.5 c 128,-1,18
EndSplineSet
Validated: 33
EndChar

StartChar: macron
Encoding: 110 175 183
Width: 799
GlyphClass: 2
Flags: MW
LayerCount: 2
Fore
SplineSet
237 1326 m 1,0,-1
 776 1326 l 1,1,-1
 756 1170 l 1,2,-1
 217 1170 l 1,3,-1
 237 1326 l 1,0,-1
EndSplineSet
Validated: 1
EndChar

StartChar: glyph184
Encoding: 2196 -1 184
Width: 878
GlyphClass: 2
Flags: MW
LayerCount: 2
Fore
SplineSet
338 1655 m 1,0,-1
 888 1655 l 1,1,-1
 871 1515 l 1,2,-1
 321 1515 l 1,3,-1
 338 1655 l 1,0,-1
EndSplineSet
Validated: 1
EndChar

StartChar: breve
Encoding: 660 728 185
Width: 788
GlyphClass: 2
Flags: MW
LayerCount: 2
Fore
SplineSet
476 1120 m 256,0,1
 197 1120 197 1120 232 1397 c 1,2,-1
 403 1397 l 1,3,4
 394 1334 394 1334 408 1312 c 0,5,6
 433 1274 433 1274 496.5 1274 c 128,-1,7
 560 1274 560 1274 585.5 1306.5 c 128,-1,8
 611 1339 611 1339 617 1397 c 1,9,-1
 789 1397 l 1,10,11
 765 1202 765 1202 611 1142 c 0,12,13
 555 1120 555 1120 476 1120 c 256,0,1
EndSplineSet
Validated: 33
Substitution2: "sous-table 'locl' Formes localis+AOkA-es g+AOkA-ographiquement dans Cyrillique lookup 35" breve.locl
EndChar

StartChar: glyph186
Encoding: 2197 -1 186
Width: 804
GlyphClass: 2
Flags: MW
LayerCount: 2
Fore
SplineSet
556 1494 m 256,0,1
 339 1494 339 1494 292 1640 c 0,2,3
 276 1690 276 1690 285 1758 c 1,4,-1
 471 1758 l 1,5,6
 464 1701 464 1701 486 1670 c 128,-1,7
 508 1639 508 1639 574.5 1639 c 128,-1,8
 641 1639 641 1639 670 1670 c 128,-1,9
 699 1701 699 1701 707 1758 c 1,10,-1
 893 1758 l 1,11,12
 877 1636 877 1636 785 1564 c 0,13,14
 695 1494 695 1494 556 1494 c 256,0,1
EndSplineSet
Validated: 33
EndChar

StartChar: ring
Encoding: 662 730 187
Width: 671
GlyphClass: 2
Flags: MW
LayerCount: 2
Fore
SplineSet
213 1282 m 0,0,1
 213 1328 213 1328 231 1365 c 128,-1,2
 249 1402 249 1402 279 1428 c 0,3,4
 342 1484 342 1484 432 1484 c 0,5,6
 524 1484 524 1484 588 1428 c 0,7,8
 656 1369 656 1369 656 1281 c 0,9,10
 656 1193 656 1193 589 1137 c 0,11,12
 525 1083 525 1083 432 1083 c 0,13,14
 341 1083 341 1083 279 1137 c 0,15,16
 213 1195 213 1195 213 1282 c 0,0,1
435 1366 m 0,17,18
 350 1366 350 1366 350 1281 c 0,19,20
 350 1244 350 1244 371.5 1221 c 128,-1,21
 393 1198 393 1198 433 1198 c 128,-1,22
 473 1198 473 1198 496 1221 c 128,-1,23
 519 1244 519 1244 519 1282.5 c 128,-1,24
 519 1321 519 1321 496 1343.5 c 128,-1,25
 473 1366 473 1366 435 1366 c 0,17,18
EndSplineSet
Validated: 1
EndChar

StartChar: glyph188
Encoding: 2198 -1 188
Width: 680
GlyphClass: 2
Flags: MW
LayerCount: 2
Fore
SplineSet
320 1634 m 0,0,1
 320 1675 320 1675 338 1713 c 0,2,3
 357 1750 357 1750 387 1778 c 0,4,5
 449 1836 449 1836 534 1836 c 0,6,7
 648 1836 648 1836 692 1738 c 0,8,9
 706 1708 706 1708 706 1666.5 c 128,-1,10
 706 1625 706 1625 687.5 1587.5 c 128,-1,11
 669 1550 669 1550 639 1524 c 0,12,13
 576 1468 576 1468 488 1468 c 0,14,15
 418 1468 418 1468 370 1513 c 0,16,17
 320 1559 320 1559 320 1634 c 0,0,1
459.5 1707.5 m 128,-1,19
 437 1680 437 1680 437 1642 c 0,20,21
 437 1564 437 1564 504 1564 c 0,22,23
 542 1564 542 1564 566 1592 c 0,24,25
 589 1620 589 1620 589 1658 c 0,26,27
 589 1736 589 1736 525 1735 c 0,28,18
 482 1735 482 1735 459.5 1707.5 c 128,-1,19
EndSplineSet
Validated: 33
EndChar

StartChar: glyph189
Encoding: 2199 -1 189
Width: 719
GlyphClass: 2
Flags: MW
LayerCount: 2
Fore
SplineSet
280 1272 m 0,0,1
 280 1316 280 1316 300 1357 c 128,-1,3
 320 1398 320 1398 352 1428 c 0,4,5
 418 1490 418 1490 511 1489 c 0,6,7
 590 1490 590 1490 644 1440 c 128,-1,8
 698 1390 698 1390 698.5 1325.5 c 128,-1,9
 699 1261 699 1261 679 1221 c 0,10,11
 659 1180 659 1180 626 1152 c 0,12,13
 557 1092 557 1092 463 1093 c 0,14,15
 386 1092 386 1092 334 1140 c 0,16,17
 280 1190 280 1190 280 1272 c 0,0,1
413 1275 m 0,18,19
 413 1203 413 1203 479 1203 c 0,20,21
 518 1203 518 1203 542 1230 c 0,22,23
 566 1258 566 1258 566 1296 c 0,24,25
 566 1374 566 1374 500 1374 c 0,26,27
 457 1374 457 1374 435 1346.5 c 128,-1,28
 413 1319 413 1319 413 1275 c 0,18,19
916 1827 m 1,29,-1
 659 1575 l 2,30,31
 623 1539 623 1539 575 1539 c 2,32,-1
 428 1539 l 1,33,-1
 582 1774 l 2,34,35
 617 1827 617 1827 679 1827 c 2,36,-1
 916 1827 l 1,29,-1
EndSplineSet
Validated: 33
EndChar

StartChar: glyph190
Encoding: 2200 -1 190
Width: 693
GlyphClass: 2
Flags: MW
LayerCount: 2
Fore
SplineSet
335 1601 m 0,0,1
 335 1639 335 1639 352 1675 c 0,2,3
 369 1710 369 1710 397 1736 c 0,4,5
 456 1790 456 1790 535 1790 c 0,6,7
 602 1790 602 1790 648 1746 c 128,-1,8
 694 1702 694 1702 694 1647 c 128,-1,9
 694 1592 694 1592 677 1556.5 c 128,-1,10
 660 1521 660 1521 632 1496 c 0,11,12
 572 1443 572 1443 492 1443 c 0,13,14
 428 1443 428 1443 382 1486 c 128,-1,15
 336 1529 336 1529 335 1601 c 0,0,1
526 1697 m 0,16,17
 443 1697 443 1697 443 1601 c 0,18,19
 443 1534 443 1534 505 1534 c 0,20,21
 540 1534 540 1534 563 1560 c 128,-1,22
 586 1586 586 1586 586 1622 c 0,23,24
 586 1696 586 1696 526 1697 c 0,16,17
988 2056 m 1,25,-1
 685 1851 l 2,26,27
 648 1827 648 1827 601 1827 c 2,28,-1
 423 1827 l 1,29,-1
 612 2018 l 2,30,31
 646 2052 646 2052 672 2054 c 128,-1,32
 698 2056 698 2056 717 2056 c 2,33,-1
 988 2056 l 1,25,-1
EndSplineSet
Validated: 1
EndChar

StartChar: hungarumlaut
Encoding: 665 733 191
Width: 995
GlyphClass: 2
Flags: MW
LayerCount: 2
Fore
SplineSet
736 1412 m 1,0,-1
 528 1160 l 2,1,2
 500 1126 500 1126 444 1126 c 2,3,-1
 343 1126 l 1,4,-1
 482 1361 l 2,5,6
 513 1412 513 1412 578 1412 c 2,7,-1
 736 1412 l 1,0,-1
1059 1412 m 1,8,-1
 800 1160 l 2,9,10
 764 1126 764 1126 716 1126 c 2,11,-1
 600 1126 l 1,12,-1
 786 1361 l 2,13,14
 805 1384 805 1384 825 1398 c 128,-1,15
 845 1412 845 1412 883 1412 c 2,16,-1
 1059 1412 l 1,8,-1
EndSplineSet
Validated: 1
EndChar

StartChar: glyph192
Encoding: 2201 -1 192
Width: 1093
GlyphClass: 2
Flags: MW
LayerCount: 2
Fore
SplineSet
865 1762 m 1,0,-1
 651 1534 l 1,1,2
 617 1496 617 1496 569 1496 c 2,3,-1
 453 1496 l 1,4,-1
 599 1711 l 1,5,6
 635 1762 635 1762 706 1762 c 2,7,-1
 865 1762 l 1,0,-1
1227 1762 m 1,8,-1
 965 1532 l 2,9,10
 923 1496 923 1496 873 1496 c 2,11,-1
 742 1496 l 1,12,-1
 930 1711 l 1,13,14
 979 1762 979 1762 1044 1762 c 2,15,-1
 1227 1762 l 1,8,-1
EndSplineSet
Validated: 1
EndChar

StartChar: dotaccent
Encoding: 661 729 193
Width: 478
GlyphClass: 2
Flags: MW
LayerCount: 2
Fore
SplineSet
505 1281 m 256,0,1
 505 1216 505 1216 457 1170 c 128,-1,2
 409 1124 409 1124 342 1123 c 0,3,4
 278 1123 278 1123 231.5 1169.5 c 128,-1,5
 185 1216 185 1216 185 1281 c 256,6,7
 185 1347 185 1347 231.5 1393.5 c 128,-1,8
 278 1440 278 1440 326.5 1440 c 128,-1,9
 375 1440 375 1440 405 1428 c 128,-1,11
 435 1416 435 1416 457 1394 c 0,12,13
 505 1346 505 1346 505 1281 c 256,0,1
EndSplineSet
Validated: 1
EndChar

